<?xml version="1.0" encoding="UTF-8"?>
<svg width="372px" height="329px" viewBox="0 0 372 329" version="1.1" xmlns="http://www.w3.org/2000/svg" xmlns:xlink="http://www.w3.org/1999/xlink">
    <!-- Generator: Sketch 53.2 (72643) - https://sketchapp.com -->
    <title>Untitled</title>
    <desc>Created with Sketch.</desc>
    <defs>
        <linearGradient x1="50%" y1="100%" x2="50%" y2="-3.43494416e-15%" id="linearGradient-1">
            <stop stop-color="#808080" stop-opacity="0.25" offset="0%"></stop>
            <stop stop-color="#808080" stop-opacity="0.12" offset="54%"></stop>
            <stop stop-color="#808080" stop-opacity="0.1" offset="100%"></stop>
        </linearGradient>
        <linearGradient x1="49.9843289%" y1="100.006138%" x2="49.9843289%" y2="-7.55216111e-05%" id="linearGradient-2">
            <stop stop-color="#808080" stop-opacity="0.25" offset="0%"></stop>
            <stop stop-color="#808080" stop-opacity="0.12" offset="54%"></stop>
            <stop stop-color="#808080" stop-opacity="0.1" offset="100%"></stop>
        </linearGradient>
    </defs>
    <g id="Page-1" stroke="none" stroke-width="1" fill="none" fill-rule="evenodd">
        <g id="undraw_time_management_30iu" transform="translate(0.000000, 52.000000)">
            <path d="M37.3600841,27.7341611 C35.0481812,28.6953903 32.6754388,29.9292069 31.4049658,32.0919727 C30.0593381,34.3766855 30.220384,37.2137464 30.4708998,39.8571268 C32.653966,62.7831613 38.4050929,87.1653864 28.473931,107.932242 C23.6532913,118.007215 15.5902615,126.080824 9.17705714,135.230435 C2.76385277,144.380046 -2.07825967,155.80361 0.899299497,166.567225 C4.53535733,179.719567 18.1061558,187.01128 27.2535612,197.13288 C33.2408887,203.750298 37.4388177,211.791626 43.0253199,218.753365 C48.6118221,225.715103 56.2668691,231.84832 65.1852314,232.257201 C78.0116401,232.849002 88.4474124,221.748239 101.023305,219.176592 C113.906975,216.543972 126.880114,223.243883 137.326623,231.263691 C147.773132,239.283499 157.274838,248.999805 169.446327,254.006805 C182.888289,259.541047 198.040915,258.694591 212.191479,262.01944 C225.075148,265.050182 236.935282,271.495439 249.725903,274.931475 C262.516524,278.36751 277.508104,278.159483 287.417794,269.382886 C300.333672,257.905522 299.317294,237.461468 307.566421,222.279067 C315.228626,208.17267 330.227364,199.751154 340.323151,187.28028 C358.489125,164.834861 357.895044,130.528302 342.470429,106.117384 C327.045814,81.7064652 299.106145,66.9257724 270.536608,63.0772688 C257.652938,61.3449042 244.386338,61.5816248 232.000121,57.6398676 C198.846145,47.0950394 179.116236,9.31299187 145.267974,1.45099754 C123.752246,-3.53806912 102.827019,5.10223396 84.4999992,15.736729 C68.5922462,24.9688337 53.9155994,20.8513294 37.3600841,27.7341611 Z" id="Path" fill="#3D7BA4" fill-rule="nonzero" opacity="0.1"></path>
            <path d="M70,102 C70,102 57.8267814,113.701627 44.7618826,114.050387 C39.2755721,114.161636 33.9727515,116.082728 29.649686,119.525193 C27.6062602,121.170561 25.7151279,123.003156 24,125" id="Path" stroke="#535461" stroke-width="2"></path>
            <path d="M16.0361484,124.469265 C17.6894037,123.619258 24,124.183663 24,124.183663 C24,124.183663 20.7270922,129.674709 19.073837,130.524717 C17.9947338,131.17198 16.6491575,131.157154 15.584241,130.486265 C14.5193246,129.815377 13.9124093,128.60015 14.0102767,127.334716 C14.108144,126.069282 14.8944961,124.964374 16.0495895,124.469265 L16.0361484,124.469265 Z" id="Path" fill="#3D7BA4" fill-rule="nonzero"></path>
            <path d="M22.7666196,115.006347 C24.7180328,115.210201 30,119.287272 30,119.287272 C30,119.287272 23.9573726,122.190427 22.0237319,121.990089 C20.1443622,121.709318 18.820929,120.016272 19.0197547,118.147151 C19.2185804,116.27803 20.8693004,114.894316 22.7666196,115.006347 L22.7666196,115.006347 Z" id="Path" fill="#3D7BA4" fill-rule="nonzero"></path>
            <path d="M38.7650226,106.597878 C40.4115462,107.762137 43,114 43,114 C43,114 36.024525,113.490859 34.3780014,112.330161 C32.836335,111.134288 32.5465861,108.98592 33.7201524,107.452484 C34.8937187,105.919049 37.1157267,105.542638 38.7650226,106.597878 L38.7650226,106.597878 Z" id="Path" fill="#3D7BA4" fill-rule="nonzero"></path>
            <path d="M53.0283341,103.445871 C54.6878001,104.290171 58,109.790091 58,109.790091 C58,109.790091 51.6785453,110.395116 50.0190793,109.550815 C48.8784096,109.045008 48.1057012,107.941275 48.0099979,106.681051 C47.9142947,105.420827 48.5112192,104.209833 49.5620323,103.532403 C50.6128453,102.854973 51.9460121,102.821692 53.0283341,103.445871 Z" id="Path" fill="#3D7BA4" fill-rule="nonzero"></path>
            <path d="M32.8806196,125.340878 C33.4539663,123.471187 31.7758784,117 31.7758784,117 C31.7758784,117 26.7835668,121.37089 26.2102201,123.24058 C25.7701281,124.469813 26.0321389,125.845069 26.8920192,126.819242 C27.7518994,127.793415 29.0701813,128.208501 30.3224244,127.899368 C31.5746674,127.590236 32.5577648,126.607025 32.8806196,125.340878 L32.8806196,125.340878 Z" id="Path" fill="#3D7BA4" fill-rule="nonzero"></path>
            <path d="M49.9929839,121.498561 C49.9929839,119.571556 46.4754933,114 46.4754933,114 C46.4754933,114 42.9965026,119.58552 43.0000026,121.519507 C43.0058017,123.447505 44.5775018,125.005768 46.5104932,124.999984 C48.4434847,124.9942 50.0057828,123.42656 49.9999839,121.498561 L49.9929839,121.498561 Z" id="Path" fill="#3D7BA4" fill-rule="nonzero"></path>
            <path d="M64.9713661,115.179314 C65.2957372,113.233731 62.7571804,107 62.7571804,107 C62.7571804,107 58.346438,112.04993 58.0255926,113.995513 C57.8005231,115.891529 59.0836721,117.632414 60.9401514,117.949778 C62.7966308,118.267142 64.571393,117.049006 64.9713661,115.18289 L64.9713661,115.179314 Z" id="Path" fill="#3D7BA4" fill-rule="nonzero"></path>
            <path d="M86,71 C86,71 71.1915149,62.9091613 66.7896738,50.5149138 C64.9812472,45.3030793 61.5216641,40.8156051 56.9305583,37.7265156 C54.7396695,36.2763419 52.4197812,35.0289532 50,34" id="Path" stroke="#535461" stroke-width="2"></path>
            <path d="M47.0699716,25.9435287 C48.4805917,27.3561208 50,34 50,34 C50,34 43.3421632,32.44651 41.9315431,31.0303052 C40.6377085,29.5988367 40.698754,27.4077935 42.0703004,26.050034 C43.4418467,24.6922746 45.6414249,24.6454182 47.0699716,25.9435287 Z" id="Path" fill="#3D7BA4" fill-rule="nonzero"></path>
            <path d="M58.9528345,29.9308873 C59.3519635,31.8163571 57.0867314,38 57.0867314,38 C57.0867314,38 52.5107526,33.2549008 52.1116236,31.3659393 C51.7889364,30.1216329 52.1777921,28.8011328 53.1238898,27.928424 C54.0699875,27.0557152 55.4203458,26.7719122 56.6391318,27.1896304 C57.8579178,27.6073486 58.7480572,28.659044 58.9563356,29.9273956 L58.9528345,29.9308873 Z" id="Path" fill="#3D7BA4" fill-rule="nonzero"></path>
            <path d="M71.8021765,43.7603339 C71.1906885,45.6510322 66.0844117,50 66.0844117,50 C66.0844117,50 64.5310915,43.3735179 65.1425795,41.4792045 C65.7549316,39.5824671 67.746076,38.5555058 69.5899251,39.1854223 C71.4337743,39.8153388 72.4321,41.8635964 71.819748,43.7603339 L71.8021765,43.7603339 Z" id="Path" fill="#3D7BA4" fill-rule="nonzero"></path>
            <path d="M78.9307497,56.153749 C78.6404302,58.0420116 74.3416037,63 74.3416037,63 C74.3416037,63 71.7322265,56.9991363 72.0225459,55.1108738 C72.1543114,53.8396843 72.9817876,52.7435378 74.1754942,52.2588922 C75.3692008,51.7742467 76.7353181,51.9797932 77.7298924,52.7936881 C78.7244667,53.6075831 79.1860109,54.897676 78.9307497,56.1502843 L78.9307497,56.153749 Z" id="Path" fill="#3D7BA4" fill-rule="nonzero"></path>
            <path d="M51.530701,43.992764 C53.4573613,43.971765 59,40.4089342 59,40.4089342 C59,40.4089342 53.3770838,36.979097 51.4504235,37.000096 C49.5227693,37.0223244 47.9780676,38.6072731 48.0002356,40.540178 C48.0224037,42.4730828 49.6030469,44.0219921 51.530701,43.9997637 L51.530701,43.992764 Z" id="Path" fill="#3D7BA4" fill-rule="nonzero"></path>
            <path d="M61.8047744,57.7808358 C63.6758397,57.1823941 68,52.1218866 68,52.1218866 C68,52.1218866 61.4619839,50.5365409 59.5909186,51.1349827 C58.3335368,51.4866792 57.3728567,52.4838389 57.0866708,53.7343234 C56.800485,54.9848078 57.234571,56.2885925 58.2182223,57.1329571 C59.2018736,57.9773217 60.5777476,58.2272036 61.8047744,57.7843355 L61.8047744,57.7808358 Z" id="Path" fill="#3D7BA4" fill-rule="nonzero"></path>
            <path d="M72.1165103,70.9343739 C74.0108578,70.6544699 79,66.3859338 79,66.3859338 C79,66.3859338 73.0047026,63.7408409 71.1138246,64.0207449 C69.8454579,64.15258 68.7510068,64.9753923 68.2635649,66.1635805 C67.7761231,67.3517686 67.9742481,68.7138407 68.7795383,69.7108006 C69.5848286,70.7077605 70.8675012,71.1789353 72.1199799,70.9378727 L72.1165103,70.9343739 Z" id="Path" fill="#3D7BA4" fill-rule="nonzero"></path>
            <circle id="Oval" fill="url(#linearGradient-1)" fill-rule="nonzero" cx="186.5" cy="137.5" r="129.5"></circle>
            <circle id="Oval" fill="#3D7BA4" fill-rule="nonzero" cx="187.5" cy="137.5" r="127.5"></circle>
            <circle id="Oval" fill="#DDE1EC" fill-rule="nonzero" cx="186.5" cy="137.5" r="101.5"></circle>
            <rect id="Rectangle" fill="#535461" fill-rule="nonzero" opacity="0.3" x="184" y="54" width="6" height="90"></rect>
            <g id="Group" opacity="0.1" transform="translate(131.000000, 108.000000)" fill="#000000" fill-rule="nonzero">
                <rect id="Rectangle" x="61.7328608" y="27.3036207" width="81.2455696" height="7.24137931"></rect>
                <polygon id="Rectangle" transform="translate(28.265137, 16.900199) rotate(-62.360000) translate(-28.265137, -16.900199) " points="24.7349349 -11.9866631 31.9652293 -12.0078306 31.7953388 45.7870611 24.5650444 45.8082286"></polygon>
                <ellipse id="Oval" cx="55.6214684" cy="30.9243103" rx="10.7848101" ry="10.862069"></ellipse>
            </g>
            <rect id="Rectangle" fill="#535461" fill-rule="nonzero" x="193" y="134" width="81" height="7"></rect>
            <polygon id="Rectangle" fill="#535461" fill-rule="nonzero" transform="translate(159.805508, 123.879432) rotate(27.640000) translate(-159.805508, -123.879432) " points="131.042608 120.297144 188.568716 120.294677 188.568408 127.46172 131.042301 127.464187"></polygon>
            <circle id="Oval" fill="#535461" fill-rule="nonzero" cx="187" cy="138" r="11"></circle>
            <g id="Group" opacity="0.1" transform="translate(85.000000, 36.000000)" fill="#000000" fill-rule="nonzero">
                <path d="M8.21335835,113.959978 C8.21335835,57.8434581 53.6161726,12.3542511 109.626116,12.3542511 C141.499416,12.3259931 171.525588,27.335722 190.670319,52.8672907 C173.412233,21.4449119 140.085779,0.147202643 101.742439,0.147202643 C45.7324953,0.147202643 0.329681051,45.6364097 0.329681051,101.75293 C0.296738554,123.798023 7.4528224,145.250392 20.7089869,162.845617 C12.4881283,147.869917 8.18911454,131.051232 8.21335835,113.959978 Z" id="Path"></path>
            </g>
            <path d="M280.812568,63.7356152 C279.60169,62.5814741 269.410137,70.167361 269.410137,70.167361 C269.410137,70.167361 265.781108,70.8248284 266.64602,73.2939041 C267.510933,75.7629799 262.844009,89.5912334 262.844009,89.5912334 L260.944805,86.9577908 C261.128599,83.8669796 260.270894,81.6766129 259.434812,80.3116535 C259.366339,80.2008845 259.297867,80.0936887 259.229395,79.9936394 L259.560945,79.8792972 C259.434812,78.1927505 256.713941,75.6236254 255.268816,74.3658618 C255.268816,74.183629 255.268816,74.0085425 255.268816,73.8227366 C255.358911,71.8074562 256.17337,69.6814069 255.268816,67.8555057 C254.245336,65.7723347 251.250576,64.7253894 250.99831,62.4385464 C250.84695,61.073587 251.776731,59.8408358 252.187565,58.5259011 C253.167799,55.381492 251.131651,52.1727655 249.185597,49.4642858 C248.526441,48.4488075 247.724294,47.5319471 246.803484,46.7415134 C245.926229,46.1056771 244.962943,45.5956467 243.942065,45.22648 C241.091457,44.0830585 238.175981,43.5077746 235.235278,42.7252455 C232.413501,41.9820215 229.811555,41.6282755 226.946532,42.5608786 C226.266638,42.7426435 225.645835,43.0959574 225.144631,43.5863848 C224.463512,44.3439015 224.373417,45.4230055 223.926546,46.3270231 C223.205785,47.7813123 221.652546,48.649598 220.279498,49.5822012 C218.906449,50.5148043 217.529796,51.7940071 217.522589,53.4019436 C217.522589,55.6852133 220.153365,57.1216366 221.032692,59.2476859 C221.854359,61.2272343 221.032692,63.4318939 220.575009,65.5186381 C220.383769,66.1930794 220.36519,66.9041616 220.520952,67.5875163 C220.702409,68.0968024 220.975963,68.5690335 221.328204,68.9810612 C221.872378,69.6956996 222.456194,70.3603134 223.036407,71.0392199 L222.769725,71.1428425 C217.933422,70.6497419 214.823341,76.7384613 214.823341,76.7384613 C215.046776,76.7849128 215.259401,76.8385107 215.468421,76.899255 L215.263005,77.1636712 C213.801659,79.0454584 212.607299,81.1169332 211.713259,83.3202812 L207.749076,88.5871664 C207.749076,88.5871664 206.884164,75.4163802 208.959954,72.454204 C211.035744,69.4920277 207.06075,67.6804193 207.06075,67.6804193 C207.06075,67.6804193 198.411624,58.1328499 197.211558,58.9546841 C196.011492,59.7765183 200.148657,70.1494951 203.777686,71.7967366 C203.777686,71.7967366 204.138066,75.0876466 203.417306,77.2279887 C202.981246,78.5822285 200.653189,92.8678506 200.653189,92.8678506 C200.653189,92.8678506 198.581003,104.884496 208.08423,98.9422772 C214.257544,95.0903761 218.246953,88.4585315 220.279498,84.2921895 C220.421247,83.9991877 220.554588,83.7192877 220.67952,83.4524893 C220.773452,83.8943806 220.837264,84.3420425 220.870521,84.7924364 L221.230901,98.5599457 C221.322214,101.965254 220.572481,105.341063 219.046997,108.39337 L214.812529,116.908287 L215.284627,117.051215 L214.999927,117.458559 C212.210584,121.528425 207.46798,130.67937 217.230681,135.342385 L230.20437,136.989627 L229.51244,140.280537 C229.51244,140.280537 224.157189,150.321207 222.600346,157.235334 C221.633378,161.469358 220.123094,165.563044 218.106405,169.416346 L218.506427,169.627164 C218.423539,169.720067 218.337048,169.816543 218.254161,169.916592 C217.467473,170.79384 216.947659,171.874196 216.754979,173.032416 L214.996323,175.505065 C214.996323,175.505065 214.304393,185.710102 215.688253,188.182751 C216.445052,189.533417 218.956902,190.390983 221.093957,190.89123 C224.265303,191.638027 226.824003,188.389996 225.141027,185.713675 L225.119404,185.677943 L225.08697,185.677943 C224.72659,184.016409 223.623826,178.860292 223.984207,176.902183 C224.085113,176.344765 224.178812,175.79092 224.225661,175.226356 C224.312397,174.484477 224.539828,173.765548 224.895969,173.107453 C224.953629,172.996684 225.014894,172.889488 225.076159,172.782293 L225.263556,172.860903 C225.843769,173.107453 226.416773,173.33971 226.960947,173.543382 C226.117658,174.304472 225.519426,175.88025 226.240187,179.121135 C226.240187,179.121135 226.308659,187.228708 226.932117,188.504338 C227.555575,189.779967 234.532536,191.466514 235.743414,190.151579 C236.954292,188.836645 234.964993,184.305837 234.964993,184.305837 L234.903728,184.348715 C234.503706,181.722419 234.009985,177.020098 235.224467,175.169185 C235.714584,174.422388 236.190286,173.650578 236.615534,172.928793 L236.878612,172.482144 L236.878612,172.482144 C239.134592,173.59698 241.520309,174.43668 242.824886,173.85425 C242.824886,173.85425 248.526101,160.683464 248.180136,159.039796 C247.834171,157.396127 256.991433,138.790516 256.991433,138.790516 C256.991433,138.790516 264.764835,130.214855 255.265212,124.304795 C252.248829,122.421723 250.05051,121.156813 248.454025,120.30282 L247.117015,113.370827 C246.429608,109.736688 246.552612,105.997423 247.477395,102.41542 L248.918916,96.9627288 L248.918916,96.9627288 L249.037841,96.4982138 C249.037841,96.4982138 252.66687,89.0909865 252.493888,85.6321365 C252.480508,85.3634537 252.51093,85.09439 252.583983,84.8353147 C252.623625,84.9996815 252.66687,85.1711948 252.71372,85.3498544 C253.667151,88.9448461 254.923283,92.4541326 256.468882,95.8407464 C259.225791,102.008076 263.316107,101.518549 265.557672,100.643117 C266.532346,100.269093 267.251633,99.4336956 267.471291,98.4205912 C268.278543,94.5829828 270.494881,83.8312477 270.63543,80.861925 C270.761074,78.5400652 271.050082,76.2297377 271.500342,73.9477983 C277.187143,70.6497419 282.023445,64.8897562 280.812568,63.7356152 Z" id="Path" fill="url(#linearGradient-2)" fill-rule="nonzero"></path>
            <path d="M239,168.819341 C239,168.819341 238.239266,170.349324 237.197312,172.18675 C236.789905,172.910147 236.335628,173.687797 235.870534,174.436512 C234.222878,177.080525 235.870534,185.504474 235.870534,185.504474 L232.265159,186 L228.659784,184.19151 L228,178.078812 L228,173.608224 L232.110128,168.996573 L233.912815,167 L239,168.819341 Z" id="Path" fill="#F8BDC5" fill-rule="nonzero"></path>
            <g id="Group" opacity="0.1" transform="translate(232.000000, 167.000000)" fill="#000000" fill-rule="nonzero">
                <path d="M6.67666667,1.81666667 C6.67666667,1.81666667 5.97333333,3.22666667 5.01,4.92 C3.53835701,4.13355998 2.11574728,3.2586216 0.75,2.3 L0.456666667,2.09333333 L0.3,1.98 L1.96666667,0.14 L6.67666667,1.81666667 Z" id="Path"></path>
            </g>
            <path d="M256.161127,138.529664 C256.161127,138.529664 247.479488,157.243887 247.809397,158.901007 C248.139307,160.558128 242.731661,173.807842 242.731661,173.807842 C241.498086,174.395267 239.231752,173.55039 237.094512,172.429929 C235.482802,171.561314 233.925894,170.5925 232.432748,169.529062 L232.117183,169.304244 L231.927126,169.166453 L246.17778,129.250513 L233.569501,119.89884 L232.637148,119.206258 L227,115 L244.212667,118.147442 C244.212667,118.147442 244.811525,118.071294 247.977938,119.86258 C249.49839,120.721962 251.610528,122.009222 254.52951,123.945551 C263.526714,129.917712 256.161127,138.529664 256.161127,138.529664 Z" id="Path" fill="#5E52AD" fill-rule="nonzero"></path>
            <g id="Group" opacity="0.03" transform="translate(227.000000, 115.000000)" fill="#000000" fill-rule="nonzero">
                <path d="M29.1271111,23.5384663 C29.1271111,23.5384663 20.5191111,42.2193865 20.8462222,43.8735583 C21.1733333,45.5277301 15.8115556,58.753865 15.8115556,58.753865 C14.5884444,59.3402454 12.3413333,58.4968712 10.2222222,57.3784049 C8.62418249,56.5113349 7.08048103,55.5442449 5.6,54.4826994 L5.28711111,54.2582822 L5.09866667,54.1207362 L19.2284444,14.2758282 L6.72711111,4.94079755 L5.80266667,4.24944785 L0.213333333,0.0506748466 L17.28,3.19251534 C17.28,3.19251534 17.8737778,3.11650307 21.0133333,4.90460123 C22.5208889,5.76245399 24.6151111,7.04742331 27.5093333,8.98030675 C36.4302222,14.9418405 29.1271111,23.5384663 29.1271111,23.5384663 Z" id="Path"></path>
            </g>
            <path d="M229.193686,172.017144 C229.193686,172.017144 224.796398,171.348928 226.321384,178.356067 C226.321384,178.356067 226.388009,186.571837 226.998744,187.849845 C227.609478,189.127854 234.438599,190.85134 235.619353,189.518559 C236.800106,188.185779 234.85686,183.599554 234.85686,183.599554 C234.85686,183.599554 229.871046,187.185281 228.516326,183.347603 C227.161606,179.509926 229.193686,172.017144 229.193686,172.017144 Z" id="Path" fill="#5D3E53" fill-rule="nonzero"></path>
            <path d="M226.837141,171.299943 C226.371808,171.746527 225.993156,172.276626 225.72059,172.863074 C225.381782,173.527273 225.166415,174.248343 225.085125,174.990668 C225.042042,175.555132 224.952287,176.115978 224.858942,176.673205 C224.44966,179.028756 226.018576,186.00857 226.018576,186.00857 L219.785993,187 L217.491857,184.521424 L217,179.068558 C217.612247,177.198935 217.943814,175.247591 217.983714,173.279185 C217.983714,171.85717 218.701754,170.587126 219.419793,169.660827 C219.906577,169.042746 220.464584,168.485221 221.082055,168 C221.082055,168 228.151153,170.142068 226.837141,171.299943 Z" id="Path" fill="#F8BDC5" fill-rule="nonzero"></path>
            <g id="Group" opacity="0.1" transform="translate(219.000000, 167.000000)" fill="#000000" fill-rule="nonzero">
                <path d="M7.68727273,3.31 C7.21595556,3.72140618 6.83243465,4.20974792 6.55636364,4.75 C3.97090909,3.68 1.25454545,2.33 0.265454545,1.83 L0.189090909,1.79333333 C0.682134122,1.22394065 1.24731705,0.710332191 1.87272727,0.263333333 C1.87272727,0.263333333 9.01818182,2.24333333 7.68727273,3.31 Z" id="Path"></path>
            </g>
            <path d="M247.138964,133.466556 C247.138964,133.466556 243.038354,141.211759 240.407638,147.636634 C238.682579,151.857355 235.117456,161.907721 232.860503,168.307344 L232.529866,169.252497 C231.537957,172.084348 230.876684,173.999906 230.876684,173.999906 C230.439405,174.002815 230.004271,173.938333 229.586484,173.808711 C229.198345,173.704095 228.763486,173.563404 228.299877,173.390246 L227.778765,173.191836 C227.261247,172.989819 226.700603,172.755334 226.165116,172.510027 C223.555963,171.341212 220.774304,169.818867 219.764426,169.263319 L219.383475,169.050479 C221.309672,165.17671 222.747515,161.077127 223.663779,156.846463 C225.140861,149.927367 230.229787,139.891431 230.229787,139.891431 L230.887466,136.594218 L218.574854,134.945612 C209.299065,130.291996 213.805783,121.118242 216.454468,117.045426 C216.906118,116.338446 217.394356,115.655702 217.917175,115 L227.767983,117.164472 C227.767983,117.164472 229.320537,117.662301 232.770656,119.195469 L234.355554,119.916959 C236.289059,120.808001 238.668203,121.955171 241.543303,123.427012 C251.239575,128.347579 247.138964,133.466556 247.138964,133.466556 Z" id="Path" fill="#5E52AD" fill-rule="nonzero"></path>
            <path d="M225.524936,184.731907 C226.223784,185.942721 226.146134,187.466937 225.32808,188.596017 C224.510026,189.725098 223.112052,190.237544 221.784012,189.895142 C219.822649,189.395358 217.497682,188.539613 216.798443,187.191275 C215.522334,184.728311 216.158641,174.545662 216.158641,174.545662 L217.836812,172 C217.836812,172 216.959268,183.250533 219.036006,184.224932 C221.112743,185.19933 225.503959,184.681569 225.503959,184.681569 L225.524936,184.731907 Z" id="Path" fill="#5D3E53" fill-rule="nonzero"></path>
            <path d="M227.899449,42.5612742 C227.248711,42.7441845 226.657819,43.0985824 226.187331,43.588148 C225.545286,44.3447918 225.473948,45.4257116 225.038785,46.3300811 C224.361071,47.7713075 222.898636,48.6540587 221.60028,49.5728405 C220.301923,50.4916223 219.007134,51.785123 219,53.3920904 C219,55.6764342 221.496839,57.1104545 222.310096,59.2326603 C223.084116,61.2143466 222.310096,63.4158199 221.878499,65.5019951 C221.69852,66.1774512 221.681396,66.8866388 221.828562,67.570155 C221.99873,68.0771761 222.257234,68.5493956 222.591882,68.9645415 C224.164891,71.1263811 226.119559,73.0432122 227.171799,75.5041062 C227.970787,77.3740974 228.191936,79.4386542 228.402384,81.4671804 C228.705572,84.3856638 229.008759,87.3581932 228.459455,90.240646 C228.406014,90.4130697 228.406014,90.5978729 228.459455,90.7702967 C228.553015,90.9356312 228.700535,91.0629945 228.876783,91.1306033 C230.974127,92.1599179 233.396382,92.2804685 235.583733,91.4643942 C237.771084,90.6483199 239.53423,88.966247 240.465685,86.8069241 C241.179068,85.1747352 241.45372,83.2038582 242.866218,82.1445568 C243.031062,82.006825 243.229307,81.9160264 243.440491,81.8815329 C243.773557,81.8908141 244.096368,81.9999266 244.367889,82.1949997 C246.201282,83.196652 248.423469,83.2254765 250.467311,82.814727 C251.701463,82.5661155 252.96415,82.1229384 253.780973,81.1501106 C255.389651,79.2188672 254.494356,76.3328114 254.601363,73.8142683 C254.686969,71.8001544 255.453856,69.6743455 254.601363,67.8511941 C253.638297,65.768622 250.809734,64.7237329 250.574318,62.4465952 C250.431642,61.0846362 251.309102,59.8487846 251.697896,58.5372686 C252.621726,55.391792 250.702727,52.1850633 248.869333,49.4791608 C248.252577,48.4697843 247.497189,47.5538887 246.625745,46.758846 C245.803437,46.1263064 244.895258,45.6166491 243.929158,45.2455583 C241.243272,44.1033864 238.503883,43.5268958 235.725257,42.7486336 C233.06434,41.9811805 230.61387,41.624477 227.899449,42.5612742 Z" id="Path" fill="#85555C" fill-rule="nonzero"></path>
            <path d="M241.563469,90 L232.332086,90 L232.332086,74.4392343 C232.606343,72.9447632 232.767083,71.4301516 232.812815,69.9094353 C232.812815,69.3984739 232.812815,68.8766411 232.812815,68.3511844 C232.725727,66.4957787 232.356471,64.6439968 231.388047,63.513359 C228.841579,60.5345631 239.661456,61.0310291 239.661456,61.0310291 C239.993474,62.3988716 240.424336,63.7386715 240.950366,65.0389953 C241.734236,67.0679716 242.777047,68.9779683 244.050717,70.7175514 C245.171322,72.2654524 246.607157,73.5363649 248.255351,74.4392343 C254.60933,77.7514234 241.563469,90 241.563469,90 Z" id="Path" fill="#F8BDC5" fill-rule="nonzero"></path>
            <g id="Group" opacity="0.1" transform="translate(231.000000, 60.000000)" fill="#000000" fill-rule="nonzero">
                <path d="M9.67,4.21090909 C7.84207719,6.81095712 4.84334573,8.09092624 1.88333333,7.53454545 C1.8,5.67272727 1.44666667,3.81454545 0.52,2.68 C-1.91666667,-0.309090909 8.43666667,0.189090909 8.43666667,0.189090909 C8.75436806,1.5616608 9.16665195,2.90609123 9.67,4.21090909 Z" id="Path"></path>
            </g>
            <circle id="Oval" fill="#F8BDC5" fill-rule="nonzero" cx="234.5" cy="59.5" r="8.5"></circle>
            <path d="M270.169628,74.1776654 C269.751392,76.428154 269.483381,78.7044698 269.367406,80.9912356 C269.237221,83.9148895 267.175369,94.5153554 266.422406,98.2986986 C266.229514,99.2840294 265.561312,100.106667 264.642036,100.490551 C262.552036,101.353793 258.752036,101.836924 256.197592,95.7587076 C254.757338,92.4141664 253.588857,88.9569101 252.703704,85.4211219 C252.390559,84.232613 252.15548,83.0245259 252,81.8047432 L257.629629,78.7212297 C258.159509,79.2217519 258.608303,79.8031357 258.959629,80.4441606 C259.737222,81.7905334 260.535925,83.9504139 260.367036,86.9948506 L262.126295,89.5916806 C262.126295,89.5916806 266.464628,75.9609877 265.644814,73.5275698 C264.824999,71.0941519 268.216851,70.4440563 268.216851,70.4440563 C268.216851,70.4440563 277.699257,62.9839429 278.825183,64.1171697 C279.951109,65.2503964 275.472035,70.9307399 270.169628,74.1776654 Z" id="Path" fill="#F8BDC5" fill-rule="nonzero"></path>
            <path d="M223,79.772293 C222.54525,81.0694483 222.022399,82.3418831 221.43361,83.5843308 C219.4738,87.7848334 215.634322,94.4758674 209.689324,98.3459934 C200.53869,104.314555 202.534927,92.2104278 202.534927,92.2104278 C202.534927,92.2104278 204.77523,77.8190774 205.197791,76.4576353 C205.864417,74.3011111 205.529283,70.9864534 205.529283,70.9864534 C202.035868,69.3273094 198.043393,58.8823258 199.205437,58.0509385 C200.36748,57.2195512 208.676635,66.8404085 208.676635,66.8404085 C208.676635,66.8404085 212.505184,68.6556646 210.498019,71.6508372 C208.490853,74.6460097 209.332333,87.9010098 209.332333,87.9010098 L213.182739,82.6040925 C214.039284,80.3938435 215.189751,78.3082354 216.603299,76.4031776 C217.331852,75.4120478 217.84184,74.8130133 217.84184,74.8130133 L223,79.772293 Z" id="Path" fill="#F8BDC5" fill-rule="nonzero"></path>
            <g id="Group" opacity="0.1" transform="translate(251.000000, 78.000000)" fill="#000000" fill-rule="nonzero">
                <path d="M6.80666667,1.9985 C5.68666667,2.4325 1.35,4.27 0.87,6.8985 C0.573337078,5.72753382 0.350630473,4.53727837 0.203333333,3.3355 L5.53666667,0.2975 C6.04249049,0.790911413 6.47108315,1.36495559 6.80666667,1.9985 L6.80666667,1.9985 Z" id="Path"></path>
            </g>
            <g id="Group" opacity="0.1" transform="translate(217.000000, 75.000000)" fill="#000000" fill-rule="nonzero">
                <path d="M6.69789474,5.1624 C6.2379715,6.44865353 5.70917176,7.71039432 5.11368421,8.9424 C4.88526316,7.3152 3.94578947,3.1536 0.228421053,1.8108 C0.965263158,0.828 1.48105263,0.234 1.48105263,0.234 L6.69789474,5.1624 Z" id="Path"></path>
            </g>
            <g id="Group" opacity="0.1" transform="translate(231.000000, 70.000000)" fill="#000000" fill-rule="nonzero">
                <path d="M9.79230769,19.8071429 L0.109615385,19.8071429 L0.109615385,4.47142857 C0.397280243,2.99857159 0.565877957,1.50586545 0.613846154,0.00714285714 C2.60519231,1.88571429 2.11192308,4.79642857 2.11192308,4.79642857 L7.28576923,16.225 L9.79230769,6.12142857 L8.95923077,4.81785714 L12.3938462,0.825 C13.5692357,2.35051409 15.0752663,3.60304567 16.8040385,4.49285714 C23.4759615,7.73571429 9.79230769,19.8071429 9.79230769,19.8071429 Z" id="Path"></path>
            </g>
            <g id="Group" opacity="0.1" transform="translate(216.000000, 115.000000)" fill="#000000" fill-rule="nonzero">
                <path d="M31.8293333,5.69647059 C31.8293333,5.69647059 24.448,5.11411765 18.0444444,4.83882353 L17.4008889,4.81058824 C16.4906667,4.77529412 15.6231111,4.74705882 14.7733333,4.72588235 C8.55822222,4.57764706 1.52888889,2.42117647 0.334222222,2.04352941 C0.78241898,1.35416966 1.26663611,0.688554366 1.78488889,0.0494117647 L11.5306667,2.16705882 C11.5306667,2.16705882 13.0666667,2.65411765 16.48,4.15411765 L10.88,0.0494117647 L27.9466667,3.11294118 C27.9466667,3.11294118 28.5404444,3.03882353 31.68,4.78235294 L31.8293333,5.69647059 Z" id="Path"></path>
            </g>
            <path d="M240.976331,76.678329 L240.166864,75.3914071 L243.766864,71.1145952 C243.766864,71.1145952 251.190533,74.7285541 253.136095,73.9352461 C253.136095,73.9352461 257.840237,77.813641 258,80.0560584 C258,80.0560584 251.190533,82.3090532 251.350296,85.6973601 C251.510059,89.0856669 248.119527,96.3241621 248.119527,96.3241621 L246.699408,102.113548 C245.825513,105.622115 245.704551,109.274004 246.344379,112.832021 L247.640237,120 C247.640237,120 237.422485,119.196115 230.598817,119.033927 C223.775148,118.87174 216.00355,116.297896 216.00355,116.297896 L219.983432,107.980502 C221.41859,104.978903 222.121599,101.683777 222.035503,98.3620823 L221.680473,84.8970004 C221.680473,84.8970004 221.357396,78.13449 216,77.0062297 C216,77.0062297 218.918343,71.0476048 223.455621,71.5306412 C223.455621,71.5306412 230.066272,68.7910841 232.029586,70.6421362 C233.992899,72.4931883 233.510059,75.3949329 233.510059,75.3949329 L238.537278,86.6775362 L240.976331,76.678329 Z" id="Path" fill="#ED677B" fill-rule="nonzero"></path>
            <g id="Group" opacity="0.1" transform="translate(225.000000, 46.000000)" fill="#000000" fill-rule="nonzero">
                <path d="M2.69315789,10.682 C4.04526316,10.682 5.10631579,9.3205 6.45842105,9.3905 C7.15842105,9.4255 7.75894737,9.849 8.33736842,10.2305 C10.5230385,11.6683461 12.955224,12.7342193 15.5252632,13.3805 C16.5236842,13.6325 17.5810526,13.8215 18.5831579,13.5905 C19.5852632,13.3595 20.5247368,12.6105 20.6389474,11.634 C20.6669994,11.203622 20.6069437,10.7721595 20.4621053,10.3635 C19.3276641,6.60882446 16.7609905,3.39056522 13.2631579,1.337 C11.8631579,0.5215 10.1536842,-0.1015 8.60263158,0.4095 C7.20263158,0.868 6.3,2.114 5.28684211,3.1395 C4.52329191,3.90736544 3.65611158,4.57583759 2.70789474,5.1275 C1.97105263,5.551 0.865789474,5.8275 0.442105263,6.6045 C-0.357368421,8.0535 0.898947368,10.668 2.69315789,10.682 Z" id="Path"></path>
            </g>
            <path d="M227.441943,56.8686944 C228.76434,56.8686944 229.80208,55.4537058 231.124477,55.5264559 C231.809097,55.5628309 232.396429,56.0029687 232.962141,56.3994565 C235.099789,57.8937905 237.478535,59.0015381 239.992107,59.6732089 C240.968591,59.9351091 242.002727,60.1315342 242.982815,59.891459 C243.962902,59.6513839 244.881734,58.8729583 244.993436,57.8580951 C245.020871,57.410809 244.962135,56.9623959 244.820479,56.5376816 C243.710963,52.6354982 241.200683,49.2908049 237.779703,47.1565623 C236.410464,46.3090242 234.73855,45.6615488 233.221576,46.1926241 C231.852336,46.669137 230.969537,47.9640879 229.97864,49.0298762 C229.231866,49.8279084 228.383739,50.5226424 227.456356,51.0959777 C226.735703,51.5361155 225.654724,51.8234782 225.240349,52.6310038 C224.458441,54.1514799 225.687154,56.8505068 227.441943,56.8686944 Z" id="Path" fill="#85555C" fill-rule="nonzero"></path>
            <path d="M224,94 C224,94 232.072428,97.0899496 237.345838,94.6879085 L239.982542,94.8608254 C239.982542,94.8608254 244.365027,98.0635469 249,96.631344" id="Path" fill="#000000" fill-rule="nonzero" opacity="0.05"></path>
            <path d="M261,89 C261,89 259.439212,92.0402802 260.217468,93" id="Path" fill="#000000" fill-rule="nonzero" opacity="0.05"></path>
            <path d="M208.854258,89 C208.854258,89 209.510096,92.0402802 208.854258,93" id="Path" fill="#000000" fill-rule="nonzero" opacity="0.05"></path>
            <path d="M345.139775,159 C345.139775,159 330.071833,174.073837 338.578161,196.439608 C347.08449,218.805378 324,256 324,256 C324,256 324.248491,255.963973 324.720265,255.884713 C355.666446,250.419366 371.0405,215.015302 353.833372,188.711744 C347.419413,178.930322 342.168682,167.459219 345.139775,159 Z" id="Path" fill="#3D7BA4" fill-rule="nonzero"></path>
            <path d="M345.139775,159 C345.139775,159 330.071833,174.074397 338.578161,196.440998 C347.08449,218.807599 324,256 324,256 C324,256 324.248491,255.963971 324.720265,255.884708 C355.666446,250.419158 371.0405,215.01378 353.833372,188.709245 C347.419413,178.931063 342.168682,167.459533 345.139775,159 Z" id="Path" fill="#000000" fill-rule="nonzero" opacity="0.1"></path>
            <path d="M345.46149,159 C345.46149,159 336.827179,177.474818 345.46149,192.548655 C354.095801,207.622493 346.923694,249.922188 324,256" id="Path" stroke="#535461"></path>
            <path d="M372,220.185554 C372,220.185554 355.082685,217.485706 353.541203,232.683008 C351.999722,247.880311 321,249.986903 321,249.986903 L321.581156,250.374118 C347.166203,267.212643 371.627918,261.098909 367.938994,238.739904 C366.578238,230.430767 366.691634,222.082552 372,220.185554 Z" id="Path" fill="#3D7BA4" fill-rule="nonzero"></path>
            <path d="M372,220 C372,220 358.863636,222.891958 359.94829,234.879534 C361.032944,246.867109 340.452877,261.234415 321,249.844439" id="Path" stroke="#535461"></path>
            <path d="M357,250.354264 C357,250.354264 343.500814,247.634243 339.899834,244.006344 C336.298854,240.378444 320.099831,234.034141 318.301136,238.580771 C316.502441,243.127401 294.0026,258.528793 309.300482,261.248814 C324.598363,263.968834 345.299508,264.865862 349.79804,263.057338 C354.296573,261.248814 357,250.354264 357,250.354264 Z" id="Path" fill="#A8A8A8" fill-rule="nonzero"></path>
            <path d="M309.297757,258.801797 C324.601254,261.377264 345.30155,262.22662 349.800678,260.514208 C353.229781,259.205926 355.610405,252.924799 356.551164,250 L357,250.089045 C357,250.089045 354.299805,260.390915 349.800678,262.106751 C345.30155,263.822588 324.597664,262.966382 309.297757,260.39434 C304.881216,259.651153 303.617295,257.904493 304.094856,255.695482 C304.468287,257.137332 306.008691,258.246975 309.297757,258.801797 Z" id="Path" fill="#000000" fill-rule="nonzero" opacity="0.2"></path>
        </g>
    </g>
</svg>