<?xml version="1.0" encoding="UTF-8"?>
<svg width="173px" height="15px" viewBox="0 0 173 15" version="1.1" xmlns="http://www.w3.org/2000/svg" xmlns:xlink="http://www.w3.org/1999/xlink">
    <!-- Generator: Sketch 52.1 (67048) - http://www.bohemiancoding.com/sketch -->
    <title>Untitled</title>
    <desc>Created with Sketch.</desc>
    <g id="Page-1" stroke="none" stroke-width="1" fill="none" fill-rule="evenodd">
        <path d="M0.92,7.56 C0.92,6.4799946 1.0899983,5.5166709 1.43,4.67 C1.7700017,3.8233291 2.2299971,3.1066696 2.81,2.52 C3.3900029,1.9333304 4.0699961,1.4866682 4.85,1.18 C5.6300039,0.8733318 6.4599956,0.72 7.34,0.72 C8.2600046,0.72 9.0566633,0.8933316 9.73,1.24 C10.4033367,1.5866684 10.9533312,1.9799978 11.38,2.42 L9.76,4.24 C9.4399984,3.9333318 9.1033351,3.6933342 8.75,3.52 C8.3966649,3.3466658 7.9400028,3.26 7.38,3.26 C6.8733308,3.26 6.4100021,3.3566657 5.99,3.55 C5.5699979,3.7433343 5.2066682,4.0199982 4.9,4.38 C4.5933318,4.7400018 4.3566675,5.1799974 4.19,5.7 C4.0233325,6.2200026 3.94,6.8066634 3.94,7.46 C3.94,8.8066734 4.2433303,9.8499963 4.85,10.59 C5.4566697,11.3300037 6.3733272,11.7 7.6,11.7 C7.866668,11.7 8.1266654,11.666667 8.38,11.6 C8.6333346,11.533333 8.8399992,11.433334 9,11.3 L9,9.06 L6.84,9.06 L6.84,6.66 L11.6,6.66 L11.6,12.66 C11.133331,13.1000022 10.5200038,13.4733318 9.76,13.78 C8.9999962,14.0866682 8.1600046,14.24 7.24,14.24 C6.3599956,14.24 5.5366705,14.0966681 4.77,13.81 C4.0033295,13.5233319 3.3333362,13.1000028 2.76,12.54 C2.1866638,11.9799972 1.7366683,11.2833375 1.41,10.45 C1.0833317,9.6166625 0.92,8.6533388 0.92,7.56 Z M14.3,0.96 L22.46,0.96 L22.46,3.44 L17.24,3.44 L17.24,6.06 L21.68,6.06 L21.68,8.52 L17.24,8.52 L17.24,11.52 L22.66,11.52 L22.66,14 L14.3,14 L14.3,0.96 Z M27.8,3.44 L24.22,3.44 L24.22,0.96 L34.34,0.96 L34.34,3.44 L30.76,3.44 L30.76,14 L27.8,14 L27.8,3.44 Z M46.06,8.6 L45.76,7.4 C45.5733324,6.7466634 45.3933342,6.053337 45.22,5.32 C45.0466658,4.586663 44.8733342,3.8800034 44.7,3.2 L44.62,3.2 C44.4599992,3.8933368 44.2966675,4.6033297 44.13,5.33 C43.9633325,6.0566703 43.7866676,6.7466634 43.6,7.4 L43.28,8.6 L46.06,8.6 Z M46.66,10.9 L42.68,10.9 L41.88,14 L38.88,14 L42.96,0.96 L46.5,0.96 L50.58,14 L47.46,14 L46.66,10.9 Z M56.16,0.96 L59.18,0.96 L62.58,7.44 L63.86,10.32 L63.94,10.32 C63.873333,9.6266632 63.7966671,8.8533376 63.71,8 C63.6233329,7.1466624 63.58,6.3333372 63.58,5.56 L63.58,0.96 L66.38,0.96 L66.38,14 L63.36,14 L59.96,7.5 L58.68,4.66 L58.6,4.66 C58.666667,5.3800036 58.7433329,6.1533292 58.83,6.98 C58.9166671,7.8066708 58.96,8.6066628 58.96,9.38 L58.96,14 L56.16,14 L56.16,0.96 Z M69.46,0.96 L77.62,0.96 L77.62,3.44 L72.4,3.44 L72.4,6.06 L76.84,6.06 L76.84,8.52 L72.4,8.52 L72.4,11.52 L77.82,11.52 L77.82,14 L69.46,14 L69.46,0.96 Z M79.16,0.96 L82.18,0.96 L83.08,7.06 C83.1600004,7.7400034 83.2466662,8.4233299 83.34,9.11 C83.4333338,9.7966701 83.5199996,10.4866632 83.6,11.18 L83.68,11.18 C83.813334,10.4866632 83.9433327,9.7966701 84.07,9.11 C84.1966673,8.4233299 84.326666,7.7400034 84.46,7.06 L85.86,0.96 L88.36,0.96 L89.76,7.06 C89.893334,7.72667 90.0233327,8.4033299 90.15,9.09 C90.2766673,9.7766701 90.406666,10.4733298 90.54,11.18 L90.62,11.18 C90.7133338,10.4733298 90.8033329,9.7800034 90.89,9.1 C90.9766671,8.4199966 91.0666662,7.7400034 91.16,7.06 L92.06,0.96 L94.88,0.96 L92.56,14 L88.86,14 L87.58,8.08 C87.4733328,7.5733308 87.3766671,7.0633359 87.29,6.55 C87.2033329,6.0366641 87.126667,5.5400024 87.06,5.06 L86.98,5.06 C86.8999996,5.5400024 86.8166671,6.0366641 86.73,6.55 C86.6433329,7.0633359 86.5466672,7.5733308 86.44,8.08 L85.22,14 L81.58,14 L79.16,0.96 Z M97.52,10.34 C97.986669,10.740002 98.5033305,11.0666654 99.07,11.32 C99.6366695,11.5733346 100.193331,11.7 100.74,11.7 C101.353336,11.7 101.809999,11.5866678 102.11,11.36 C102.410002,11.1333322 102.56,10.8266686 102.56,10.44 C102.56,10.239999 102.516667,10.0666674 102.43,9.92 C102.343333,9.7733326 102.216667,9.6433339 102.05,9.53 C101.883332,9.4166661 101.683335,9.3100005 101.45,9.21 L100.68,8.88 L98.98,8.16 C98.646665,8.026666 98.3233349,7.8533344 98.01,7.64 C97.6966651,7.4266656 97.4166679,7.1766681 97.17,6.89 C96.9233321,6.6033319 96.7266674,6.2700019 96.58,5.89 C96.4333326,5.5099981 96.36,5.0800024 96.36,4.6 C96.36,4.066664 96.4733322,3.5633357 96.7,3.09 C96.9266678,2.6166643 97.2466646,2.2033351 97.66,1.85 C98.0733354,1.4966649 98.5633305,1.220001 99.13,1.02 C99.6966695,0.819999 100.319997,0.72 101,0.72 C101.760004,0.72 102.509996,0.8666652 103.25,1.16 C103.990004,1.4533348 104.639997,1.8799972 105.2,2.44 L103.7,4.3 C103.273331,3.966665 102.846669,3.7100009 102.42,3.53 C101.993331,3.3499991 101.520003,3.26 101,3.26 C100.493331,3.26 100.090001,3.3633323 99.79,3.57 C99.4899985,3.7766677 99.34,4.0666648 99.34,4.44 C99.34,4.640001 99.3899995,4.8099993 99.49,4.95 C99.5900005,5.0900007 99.7299991,5.2166661 99.91,5.33 C100.090001,5.4433339 100.299999,5.5499995 100.54,5.65 C100.780001,5.7500005 101.039999,5.8599994 101.32,5.98 L103,6.66 C103.800004,6.9800016 104.429998,7.4199972 104.89,7.98 C105.350002,8.5400028 105.58,9.2799954 105.58,10.2 C105.58,10.7466694 105.470001,11.2633309 105.25,11.75 C105.029999,12.2366691 104.710002,12.6633315 104.29,13.03 C103.869998,13.3966685 103.353336,13.6899989 102.74,13.91 C102.126664,14.1300011 101.433337,14.24 100.66,14.24 C99.8066624,14.24 98.9566709,14.0833349 98.11,13.77 C97.2633291,13.4566651 96.50667,12.9866698 95.84,12.36 L97.52,10.34 Z M107.8,0.96 L110.74,0.96 L110.74,11.52 L115.9,11.52 L115.9,14 L107.8,14 L107.8,0.96 Z M118.16,0.96 L126.32,0.96 L126.32,3.44 L121.1,3.44 L121.1,6.06 L125.54,6.06 L125.54,8.52 L121.1,8.52 L121.1,11.52 L126.52,11.52 L126.52,14 L118.16,14 L118.16,0.96 Z M131.66,3.44 L128.08,3.44 L128.08,0.96 L138.2,0.96 L138.2,3.44 L134.62,3.44 L134.62,14 L131.66,14 L131.66,3.44 Z M142.78,3.44 L139.2,3.44 L139.2,0.96 L149.32,0.96 L149.32,3.44 L145.74,3.44 L145.74,14 L142.78,14 L142.78,3.44 Z M151.36,0.96 L159.52,0.96 L159.52,3.44 L154.3,3.44 L154.3,6.06 L158.74,6.06 L158.74,8.52 L154.3,8.52 L154.3,11.52 L159.72,11.52 L159.72,14 L151.36,14 L151.36,0.96 Z M165.26,6.96 L166.78,6.96 C167.553337,6.96 168.143331,6.7966683 168.55,6.47 C168.956669,6.1433317 169.16,5.6600032 169.16,5.02 C169.16,4.3799968 168.956669,3.9333346 168.55,3.68 C168.143331,3.4266654 167.553337,3.3 166.78,3.3 L165.26,3.3 L165.26,6.96 Z M169.38,14 L166.88,9.3 L165.26,9.3 L165.26,14 L162.32,14 L162.32,0.96 L167.02,0.96 C167.713337,0.96 168.36333,1.026666 168.97,1.16 C169.57667,1.293334 170.106664,1.5166651 170.56,1.83 C171.013336,2.1433349 171.373332,2.5599974 171.64,3.08 C171.906668,3.6000026 172.04,4.2466628 172.04,5.02 C172.04,5.9800048 171.830002,6.7699969 171.41,7.39 C170.989998,8.0100031 170.42667,8.4733318 169.72,8.78 L172.68,14 L169.38,14 Z" id="GET-A-NEWSLETTER" fill="#FFFFFF"></path>
    </g>
</svg>