<?xml version="1.0" encoding="UTF-8"?>
<svg width="32px" height="31px" viewBox="0 0 32 31" version="1.1" xmlns="http://www.w3.org/2000/svg" xmlns:xlink="http://www.w3.org/1999/xlink">
    <!-- Generator: Sketch 52.5 (67469) - http://www.bohemiancoding.com/sketch -->
    <title>Group Copy</title>
    <desc>Created with Sketch.</desc>
    <g id="Page-1" stroke="none" stroke-width="1" fill="none" fill-rule="evenodd">
        <g id="Desktop-Copy-4" transform="translate(-173.000000, -152.000000)">
            <g id="bg" transform="translate(0.000000, -14.000000)" fill="#37405C">
                <rect id="Rectangle" x="0" y="13" width="600" height="301"></rect>
            </g>
            <g id="logo" transform="translate(168.000000, 146.000000)">
                <g id="Group-Copy">
                    <circle id="Oval" fill="#2994F2" cx="21.5" cy="21.5" r="17.5"></circle>
                    <path d="M18.3467742,42 C15.2983719,42 12.6357641,41.4362472 10.358871,40.3087248 C8.08197786,39.1812024 6.17205073,37.6872576 4.62903226,35.8268456 C3.08601379,33.9664337 1.9287673,31.8053814 1.15725806,29.3436242 C0.385748831,26.8818669 4.83285851e-16,24.3355836 0,21.704698 C-5.52326687e-16,18.6979715 0.53628496,15.8792078 1.60887097,13.2483221 C2.68145698,10.6174365 4.15859274,8.32484199 6.04032258,6.3704698 C7.92205242,4.41609761 10.1424603,2.86577754 12.7016129,1.71946309 C15.2607655,0.573148631 18.0456839,5.53069062e-16 21.0564516,0 C24.104854,-5.59982425e-16 26.9179979,0.535565114 29.4959677,1.60671141 C32.0739376,2.6778577 34.284937,4.1718025 36.1290323,6.0885906 C37.9731275,8.00537871 39.4126292,10.2979732 40.4475806,12.966443 C41.4825321,15.6349127 42,18.566427 42,21.7610738 C42,25.1812252 41.5013491,28.3476364 40.5040323,31.2604027 C39.5067154,34.1731689 37.9354946,36.7194522 35.7903226,38.8993289 L31.8387097,35.347651 C33.3817281,33.6563674 34.5766087,31.7490039 35.4233871,29.6255034 C36.2701655,27.5020028 36.6935484,25.0872619 36.6935484,22.3812081 C36.6935484,20.013411 36.3266166,17.8429629 35.5927419,15.8697987 C34.8588673,13.8966344 33.8145229,12.1865844 32.4596774,10.7395973 C31.1048319,9.29261021 29.4677515,8.17450059 27.5483871,7.3852349 C25.6290227,6.59596921 23.4650658,6.20134228 21.0564516,6.20134228 C18.7983758,6.20134228 16.69087,6.57717745 14.733871,7.32885906 C12.7768719,8.08054067 11.092749,9.13287914 9.68145161,10.485906 C8.27015423,11.8389329 7.15995028,13.46442 6.35080645,15.3624161 C5.54166262,17.2604122 5.13709677,19.3556932 5.13709677,21.6483221 C5.13709677,23.7906147 5.42876052,25.7543535 6.01209677,27.5395973 C6.59543302,29.3248411 7.45160726,30.8657653 8.58064516,32.1624161 C9.70968306,33.4590669 11.1115508,34.464426 12.7862903,35.1785235 C14.4610299,35.892621 16.389774,36.2496644 18.5725806,36.2496644 C21.2070024,36.2496644 23.1733806,35.8080581 24.4717742,34.9248322 C25.7701678,34.0416063 26.4193548,33.0362472 26.4193548,31.9087248 C26.4193548,31.2697955 26.2123677,30.837585 25.7983871,30.6120805 C25.3844065,30.3865761 24.9139811,30.2738255 24.3870968,30.2738255 C23.8225778,30.2738255 23.1263482,30.3489925 22.2983871,30.4993289 C21.470426,30.6496652 20.6048432,30.818791 19.7016129,31.0067114 C15.9404663,31.7471102 13.4767103,31.8316739 12.3103448,31.2604027 C11.1439794,30.6891314 10.6534344,29.1575878 10.8387097,26.6657718 L12.7580645,26.2711409 L12.7580645,26.2147651 C11.9301034,25.9516765 11.2150568,25.3503403 10.6129032,24.4107383 C10.0107497,23.4711362 9.70967742,22.2872555 9.70967742,20.8590604 C9.70967742,19.2053609 10.0766092,17.7208119 10.8104839,16.4053691 C11.5443585,15.0899263 12.5040263,13.9530249 13.6895161,12.9946309 C14.8750059,12.0362368 16.2298311,11.3033582 17.7540323,10.7959732 C19.2782334,10.2885881 20.8306373,10.0348993 22.4112903,10.0348993 C23.8037704,10.0348993 25.0833275,10.2228169 26.25,10.5986577 C27.4166725,10.9744985 28.4233829,11.5100636 29.2701613,12.2053691 C30.1169397,12.9006746 30.7755353,13.7463037 31.2459677,14.7422819 C31.7164002,15.73826 31.9516129,16.8751614 31.9516129,18.1530201 C31.9516129,19.8443038 31.5658641,21.2536856 30.7943548,22.3812081 C30.0228456,23.5087305 29.2043054,24.3355678 28.3387097,24.861745 L28.3387097,25.0872483 C29.430113,25.2375846 30.3051042,25.7919415 30.9637097,26.7503356 C31.6223151,27.7087296 31.9516129,28.9395898 31.9516129,30.442953 C31.9516129,32.0590685 31.6505406,33.571805 31.0483871,34.9812081 C30.4462335,36.3906111 29.5618338,37.6214712 28.3951613,38.6738255 C27.2284888,39.7261798 25.7983956,40.5436212 24.1048387,41.1261745 C22.4112819,41.7087277 20.4919462,42 18.3467742,42 Z M19.372093,24.9069767 C18.8294547,24.9069767 18.3049121,24.860131 17.7984496,24.766438 C17.2919871,24.6727451 16.8397953,24.5134694 16.4418605,24.2886063 C16.0439257,24.0637432 15.7273914,23.745192 15.4922481,23.3329429 C15.2571048,22.9206939 15.1395349,22.3960213 15.1395349,21.7589092 C15.1395349,21.0468427 15.3475431,20.4097401 15.7635659,19.8475824 C16.1795886,19.2854247 16.7222189,18.7982286 17.3914729,18.3859796 C18.0607269,17.9737306 18.8113653,17.6551793 19.6434109,17.4303162 C20.4754564,17.2054531 21.2894017,17.0930233 22.0852713,17.0930233 C22.9896686,17.0930233 23.8488331,17.3085138 24.6627907,17.7395014 C25.4767483,18.170489 25.8837209,18.9856055 25.8837209,20.1848754 C25.8837209,21.0093734 25.6757127,21.7214292 25.2596899,22.3210641 C24.8436672,22.920699 24.3100808,23.4078951 23.6589147,23.7826669 C23.0077487,24.1574387 22.3023294,24.4385134 21.5426357,24.6258993 C20.7829419,24.8132852 20.059435,24.9069767 19.372093,24.9069767 Z" id="@" fill="#37405C"></path>
                </g>
            </g>
        </g>
    </g>
</svg>