<?xml version="1.0" encoding="UTF-8"?>
<svg width="372px" height="329px" viewBox="0 0 372 329" version="1.1" xmlns="http://www.w3.org/2000/svg" xmlns:xlink="http://www.w3.org/1999/xlink">
    <!-- Generator: Sketch 53.2 (72643) - https://sketchapp.com -->
    <title>Untitled</title>
    <desc>Created with Sketch.</desc>
    <defs>
        <linearGradient x1="0.00572912906%" y1="50.0083239%" x2="99.9475584%" y2="50.0083239%" id="linearGradient-1">
            <stop stop-color="#808080" stop-opacity="0.25" offset="0%"></stop>
            <stop stop-color="#808080" stop-opacity="0.12" offset="54%"></stop>
            <stop stop-color="#808080" stop-opacity="0.1" offset="100%"></stop>
        </linearGradient>
        <linearGradient x1="50.0009134%" y1="100.0056%" x2="50.0009134%" y2="-0.000695461321%" id="linearGradient-2">
            <stop stop-color="#808080" stop-opacity="0.25" offset="0%"></stop>
            <stop stop-color="#808080" stop-opacity="0.12" offset="54%"></stop>
            <stop stop-color="#808080" stop-opacity="0.1" offset="100%"></stop>
        </linearGradient>
    </defs>
    <g id="Page-1" stroke="none" stroke-width="1" fill="none" fill-rule="evenodd">
        <g id="undraw_newsletter_vovu" transform="translate(0.000000, 47.000000)">
            <ellipse id="Oval" fill="#F5F5F5" fill-rule="nonzero" cx="200.5" cy="243.5" rx="135.5" ry="38.5"></ellipse>
            <path d="M329.725071,92 C329.725071,92 305.691112,116.085213 319.25867,151.824561 C332.826227,187.56391 296,247 296,247 C296,247 296.387644,246.941729 297.128045,246.813534 C346.490696,238.080702 371.016963,181.503759 343.567856,139.475063 C333.376682,123.850752 324.984179,105.518797 329.725071,92 Z" id="Path" fill="#3D7BA4" fill-rule="nonzero"></path>
            <path d="M329.47624,92 C329.47624,92 316.008787,121.52381 329.47624,145.609023 C342.943693,169.694236 331.784946,237.288221 296,247" id="Path" stroke="#535461" stroke-width="2"></path>
            <path d="M372,189.301892 C372,189.301892 344.456614,184.912188 341.945591,209.6106 C339.434568,234.309011 289,237.728851 289,237.728851 C289,237.728851 289.327017,237.954763 289.946013,238.359846 C331.601735,265.718566 371.423827,255.786229 365.424625,219.457246 C363.17833,205.953163 363.357411,192.386759 372,189.301892 Z" id="Path" fill="#3D7BA4" fill-rule="nonzero"></path>
            <path d="M372,189.301892 C372,189.301892 344.456614,184.912188 341.945591,209.6106 C339.434568,234.309011 289,237.728851 289,237.728851 C289,237.728851 289.327017,237.954763 289.946013,238.359846 C331.601735,265.718566 371.423827,255.786229 365.424625,219.457246 C363.17833,205.953163 363.357411,192.386759 372,189.301892 Z" id="Path" fill="#F5F5F5" fill-rule="nonzero" opacity="0.2"></path>
            <path d="M372,190 C372,190 350.623335,194.683137 352.378775,214.075828 C354.134215,233.468519 320.621272,256.705576 289,238.272035" id="Path" stroke="#535461" stroke-width="2"></path>
            <path d="M58.7822562,0.0330793772 C55.6529223,-0.0753955514 52.4459375,0.0330793772 49.5107311,1.12557687 C41.5243295,4.0970151 37.738845,13.8171435 38.9696127,22.2355728 C40.2003805,30.6540021 45.2632234,37.9644375 50.5163111,44.6627643 C55.7693988,51.3610912 61.4612144,57.9741877 64.3420652,65.9703396 C65.778608,69.9645414 66.4502889,74.4391322 64.9904507,78.4255859 C62.7385728,84.5737898 55.947996,88.0101206 49.4291976,88.7229559 C42.9103992,89.4357911 36.3644229,88.0449876 29.8223292,87.5607245 C27.0773676,87.3670193 24.2547551,87.3437746 21.668978,88.2425669 C18.8308353,89.2227154 16.4663634,91.2217533 14.2921364,93.3060216 C5.80876863,101.480382 -0.981808163,112.637804 0.116952975,124.353096 C1.3593684,137.633526 12.4401609,148.13235 24.5770066,153.761424 C28.595444,155.628742 32.8468342,157.139643 36.3838356,159.805027 C45.7019513,166.832653 47.7946448,180.000734 46.8667158,191.626922 C45.9387868,203.25311 42.7783925,214.89092 44.5371869,226.416381 C46.606585,239.820783 55.7655162,251.92736 68.1197846,257.583553 C79.1268087,262.619889 92.9020897,262.306086 102.674463,255.181608 C107.43835,251.694914 111.041355,246.88715 114.174571,241.901177 C118.903673,234.379096 122.740773,226.334158 125.608676,217.928218 C126.97145,213.934016 128.252691,209.637634 131.432498,206.859901 C133.373772,205.151421 135.889663,204.194517 138.378377,203.450689 C145.87946,201.211457 153.780445,200.595474 161.351414,198.604184 C168.922383,196.612895 176.539943,192.901503 180.655444,186.265161 C186.479266,176.847213 183.761483,164.802622 183.78866,153.722683 C183.835251,128.479017 198.973306,105.877491 204.560293,81.2769268 C206.385091,73.2342857 207.064537,64.3354674 202.987861,57.1644998 C200.215722,52.2715057 195.545016,48.7848116 190.633593,46.0729384 C179.840109,40.0913209 167.571257,37.429811 155.500414,34.8380351 C138.723923,31.242866 118.352193,30.7779734 105.349539,19.1479114 C92.8710293,7.99049022 75.7994649,0.0330793772 58.7822562,0.0330793772 Z" id="Path" fill="#3D7BA4" fill-rule="nonzero" opacity="0.2"></path>
            <g id="Group" opacity="0.5" transform="translate(41.000000, 11.000000)" fill="url(#linearGradient-1)" fill-rule="nonzero">
                <path d="M79.3877778,86.103071 C79.3868863,80.0194794 78.4303175,73.9734886 76.5527778,68.1844599 L71.8861111,53.7713272 C71.8861111,53.5311728 71.8861111,53.294892 71.8861111,53.0586111 C72.03,43.8204167 64.8005556,39.2110031 62.0161111,39.710679 C59.1655556,40.2219753 51.2555556,36.2710494 51.2555556,36.2710494 L51.2555556,36.3795062 C50.7132186,35.7576616 50.224103,35.0916835 49.7933333,34.3885494 C52.5542507,32.3857062 54.3876484,29.3585562 54.8787758,25.9919001 C55.3699032,22.6252441 54.4772593,19.2035694 52.4027778,16.5009259 C53.2577043,15.8610923 53.9097523,14.9897664 54.2811111,13.9909259 C54.9266667,12.1820216 54.4327778,10.1174691 53.3827778,8.50611111 C52.9363043,7.83345227 52.4144282,7.21358469 51.8272222,6.65847222 C50.9377913,5.78080622 49.9663571,4.98962206 48.9261111,4.29566358 C46.3322222,2.50612654 43.4816667,0.968364198 40.3705556,0.42220679 C39.8322167,0.295597108 39.2716722,0.295597108 38.7333333,0.42220679 C38.2661035,0.610008438 37.8213251,0.849053754 37.4072222,1.13492284 C35.2761111,2.34344136 32.6238889,1.82052469 30.1661111,1.69270062 C27.7083333,1.56487654 24.7216667,2.2504784 23.9438889,4.54743827 C23.7027778,5.25628086 23.7183333,6.02322531 23.555,6.75143519 C23.1661111,8.53322531 21.7855556,9.91604938 20.72,11.3995833 C19.6544444,12.8831173 18.8572222,14.8856944 19.7438889,16.4970525 C20.0472222,17.0393364 20.5216667,17.5390123 20.5216667,18.1587654 C20.5216667,18.604213 20.2572222,19.003179 20.1327778,19.4292593 C19.8644444,20.3976235 20.37,21.3659877 21.1477778,22.0670833 C21.482927,22.42698 21.8775289,22.7269975 22.3144444,22.9541049 C23.5472222,23.5816049 24.9666667,23.7752778 26.2227778,24.3562963 C26.8497724,24.6495865 27.424985,25.0420043 27.9261111,25.5183333 C29.1661058,26.8112397 29.833025,28.5458844 29.7772222,30.3330401 L30.0377778,30.3601543 C30.0377778,30.4376235 30.0377778,30.5112191 30.0377778,30.5886883 C30.31,30.6196759 30.5977778,30.6467901 30.8816667,30.6584105 C31.2900352,31.3150392 31.7573172,31.9334487 32.2777778,32.5060494 C32.1896296,32.8365844 32.0898148,33.172284 31.9783333,33.5131481 C31.0644444,34.1445216 23.59,39.1025463 15.0888889,37.9095216 C6.01611111,36.6351543 0.828333333,76.1444136 0.828333333,76.1444136 C0.492055665,78.4038194 0.328252854,80.6853689 0.338333333,82.9694444 C0.299444444,88.7796296 1.52444444,96.3832253 8.34944444,95.2637963 L11.9777778,94.0746451 L11.9777778,113.616235 C11.9777778,113.616235 12.495,118.969352 10.6827778,122.525185 C8.87055556,126.081019 16.3877778,124.818272 16.3877778,124.818272 C16.3877778,124.818272 16.6755556,125.116528 17.2044444,125.623951 L17.0372222,126.092639 L17.2588889,126.317299 C16.2702272,129.683885 14.9371255,132.940463 13.2805556,136.035802 L13.4944444,136.144259 C13.3583333,136.403781 13.2805556,136.531605 13.2805556,136.531605 C13.2805556,136.531605 16.0727778,137.953164 19.915,139.785309 C23.0027778,150.181667 29.7616667,174.259074 27.5372222,178.845247 L27.5994444,178.976944 L27.5994444,178.976944 C28.0155556,179.836852 30.3411111,184.907207 29.8705556,189.551481 C29.4466667,193.703827 35.2177778,212.571435 37.3722222,219.42358 L36.3533333,219.628873 L39.9816667,232.628194 L39.2038889,241.041343 C39.2038889,241.041343 34.7977778,252.766296 45.1655556,250.47321 C55.5333333,248.180123 52.6827778,238.748256 52.6827778,238.748256 L52.9433333,219.628873 C52.9433333,219.628873 51.9438889,219.074969 50.7111111,218.544306 C49.8633333,216.26284 48.0161111,210.870988 48.0161111,207.140849 C48.0161111,202.299028 44.6444444,181.393981 44.6444444,181.393981 L44.6444444,181.351373 L44.6444444,181.270031 L44.6444444,181.24679 L44.625,180.967901 L44.625,180.92142 C44.625,180.661898 44.5822222,180.30554 44.5511111,179.871713 L44.5511111,179.848472 C44.1622222,174.197099 42.9955556,154.996373 43.8472222,144.987361 C44.5961885,144.478646 45.3753919,144.015567 46.1805556,143.600664 C48.7044444,149.953133 55.2105556,167.11642 54.7944444,174.317176 C54.2772222,183.226127 54.6661111,176.230664 54.7944444,175.091867 C54.8333333,174.739383 54.8605556,175.165463 54.8722222,176.122207 C54.8722222,176.296512 54.8722222,176.490185 54.8722222,176.695478 C54.8722222,176.900772 54.8722222,177.129306 54.8722222,177.365586 C54.8722222,177.601867 54.8722222,177.857515 54.8722222,178.140278 C54.8722222,178.274558 54.8722222,178.41142 54.8722222,178.550864 C54.8722222,178.829753 54.8722222,179.121553 54.8722222,179.426265 C54.8722222,179.578621 54.8722222,179.73356 54.8722222,179.89108 C54.8722222,180.665772 54.8722222,181.525679 54.845,182.420448 C54.845,182.598627 54.845,182.779388 54.845,182.962731 C54.845,183.508889 54.845,184.066667 54.8177778,184.632191 C54.8177778,185.406883 54.7866667,186.158333 54.7711111,186.936898 C54.7322222,188.679954 54.6816667,190.442377 54.6194444,192.092469 C54.6194444,192.275813 54.612963,192.457865 54.6,192.638627 C54.587037,193.000149 54.5727778,193.353925 54.5572222,193.699954 C54.5416667,194.045983 54.5261111,194.384264 54.5105556,194.714799 C54.495,195.042752 54.4781481,195.361667 54.46,195.671543 C54.4405556,196.035648 54.4172222,196.384259 54.3977778,196.717377 L52.99,196.515957 L52.6905556,199.738673 C52.2188546,204.85526 52.882682,210.012566 54.635,214.845154 C55.1172222,216.169877 55.4905556,217.266065 55.5722222,217.657284 C55.8327778,218.931651 55.5722222,228.115617 55.5722222,228.115617 C55.5722222,228.115617 57.1277778,240.096219 64.3883333,237.799259 C67.655,236.765046 69.2416667,233.619799 70,230.466806 C70.8414158,226.811782 70.5276422,222.987029 69.1016667,219.516543 C68.0711111,216.936821 67.0172222,213.319012 67.76,210.522377 C69.055,205.680556 69.055,198.797423 69.055,198.797423 L68.2538889,198.685093 C68.4535491,198.307033 68.6339629,197.919196 68.7944444,197.523056 C68.7944444,197.523056 68.5338889,179.933688 70.8672222,177.640602 C72.1505556,176.377855 72.0338889,173.344938 71.645,170.865926 C71.0894566,167.278337 70.9589326,163.638169 71.2561111,160.020247 C71.4155556,158.157114 71.645,156.534136 71.9133333,155.956991 C72.5977778,154.609028 73.2822222,141.020941 70.2527778,134.482546 L70.875,134.288873 L70.7777778,133.808565 L70.875,133.777577 C71.3319745,134.992423 71.8511743,136.183137 72.4305556,137.345031 C72.5836162,137.464549 72.7596452,137.551555 72.9477778,137.600679 C81.3438889,136.132639 81.6822222,128.327623 81.2155556,124.066821 C81.5694444,124.237253 81.7638889,124.34571 81.7638889,124.34571 L82.5416667,113.112685 C83.3388889,111.319275 83.6344444,109.030062 83.615,106.554923 C83.65,97.7079475 79.3877778,86.103071 79.3877778,86.103071 Z M70.1322222,118.031975 C69.5566667,113.139799 68.7594444,108.534259 68.7594444,108.534259 L64.8705556,94.7679938 L64.8705556,89.7557407 L71.0383333,112.686605 L70.1322222,118.031975 Z" id="Shape"></path>
            </g>
            <path d="M93.4218553,205 L93.1389264,208.176782 C92.6924459,213.224423 93.3251708,218.310922 94.9932579,223.083824 C95.4482382,224.39283 95.8038111,225.471295 95.8802783,225.858136 C96.1249736,227.116345 95.8802783,236.162164 95.8802783,236.162164 C95.8802783,236.162164 97.3560969,247.97448 104.241975,245.712048 C107.3389,244.696103 108.830012,241.589656 109.564098,238.483208 C110.359947,234.880475 110.061165,231.115328 108.707665,227.690744 C107.728883,225.146974 106.727162,221.571628 107.434484,218.824669 C108.665608,214.049727 108.665608,207.266339 108.665608,207.266339 L93.4218553,205 Z" id="Path" fill="#5A5773" fill-rule="nonzero"></path>
            <path d="M86,150.736709 C86,150.736709 95.6349023,174.419624 95.1393271,183.140829 C94.643752,191.862034 95.0163938,185.009105 95.1393271,183.888915 C95.3583022,181.892728 95.1393271,205.595024 94.3978853,208.308287 C94.3978853,208.308287 104.528363,215.785267 108.481439,205.815961 C108.481439,205.815961 108.235572,188.617746 110.456056,186.373489 C111.677706,185.140892 111.558614,182.171806 111.197498,179.749249 C110.664496,176.24494 110.535581,172.690134 110.813331,169.155893 C110.963156,167.33413 111.170606,165.729429 111.439523,165.1829 C112.180964,163.686729 112.922406,146.736583 108.473755,142 L86,150.736709 Z" id="Path" fill="#605D82" fill-rule="nonzero"></path>
            <path d="M94.7203304,208.30905 C95.4686446,205.568142 95.6896494,181.876923 95.4686446,183.885113 C95.3445718,185.005513 94.9684761,191.863599 95.4686446,183.136888 C95.9688132,174.410177 86.2446055,150.726711 86.2446055,150.726711 L108,142.360544 C107.899191,142.232609 107.794504,142.112428 107.689818,142 L85,150.726711 C85,150.726711 94.7242077,174.414053 94.2240391,183.136888 C93.7238705,191.859723 94.0999663,185.005513 94.2240391,183.885113 C94.4450438,181.888553 94.2240391,205.595279 93.4757249,208.30905 C93.4757249,208.30905 97.5584963,211.294198 101.571477,210.976299 C98.0005057,210.708799 94.7203304,208.30905 94.7203304,208.30905 Z" id="Path" fill="#000000" fill-rule="nonzero" opacity="0.1"></path>
            <path d="M77,227.045318 L80.4782861,239.96917 L79.7323869,248.330271 C79.7323869,248.330271 75.5082018,259.985378 85.4483704,257.704003 C95.388539,255.422629 92.6561521,246.048896 92.6561521,246.048896 L92.9034968,227.045318 C92.9034968,227.045318 88.9266564,224.763943 87.1875134,225.020056 C85.4483704,225.276169 77,227.045318 77,227.045318 Z" id="Path" fill="#5A5773" fill-rule="nonzero"></path>
            <path d="M60,144 C60,144 71.315153,181.579898 68.6106861,187.380427 C68.6106861,187.380427 71.315153,192.929953 70.8255183,197.969628 C70.3358835,203.009303 78.6979269,230 78.6979269,230 L91,227.729205 C91,227.729205 88.0468904,220.163809 88.0468904,215.371215 C88.0468904,210.578621 84.8489635,189.878694 84.8489635,189.878694 C84.8489635,189.878694 82.1444965,152.043871 85.3424235,148.008209 L60,144 Z" id="Path" fill="#605D82" fill-rule="nonzero"></path>
            <g id="Group" opacity="0.1" transform="translate(59.000000, 144.000000)" fill="#000000" fill-rule="nonzero">
                <path d="M25.2097561,7.392 C23.1297561,15.9248372 25.4282927,47.3252093 25.4282927,47.3252093 C25.4282927,47.3252093 28.6907317,67.9266977 28.6907317,72.7205581 C28.6907317,76.3657674 30.4429268,81.6167442 31.2741463,83.8984186 L31.9531707,83.7773023 C31.9531707,83.7773023 28.9404878,76.2407442 28.9404878,71.4664186 C28.9404878,66.692093 25.6780488,46.0710698 25.6780488,46.0710698 C25.6780488,46.0710698 23.5785366,17.3743256 25.2097561,7.392 Z" id="Path"></path>
                <path d="M9.11609756,43.5510698 L9.17853659,43.68 C9.19804878,43.5510698 9.21756098,43.4143256 9.22926829,43.2893023 C9.19604715,43.3784409 9.15827379,43.4658118 9.11609756,43.5510698 L9.11609756,43.5510698 Z" id="Path"></path>
                <path d="M25.6156098,5.56353488 C25.7296347,5.13012542 25.9213663,4.72106363 26.1814634,4.35627907 L0.331707317,0.336 C0.331707317,0.336 0.483902439,0.824372093 0.745365854,1.69562791 L25.6156098,5.56353488 Z" id="Path"></path>
            </g>
            <path d="M119.399098,130.998272 C119.399098,130.998272 123.153177,144.993952 111.894832,147 C111.712182,146.952509 111.541327,146.867799 111.392992,146.751188 C111.392992,146.751188 104.888517,133.999568 109.891361,129 L119.399098,130.998272 Z" id="Path" fill="#A1616A" fill-rule="nonzero"></path>
            <path d="M73.2340107,38 C73.2340107,38 73.992918,48.7264472 65.6488695,53.8393871 C57.3048209,58.9523269 83.3436001,73 83.3436001,73 L97,51.0266742 C97,51.0266742 91.188264,51.7854711 87.6493179,41.5754824 L73.2340107,38 Z" id="Path" fill="#A1616A" fill-rule="nonzero"></path>
            <path d="M68.37338,54 C68.37338,54 81.0108581,80.5762843 92.4077058,55.5048329 L110,143.751976 C110,143.751976 82.7408056,152.278062 82.4980736,156.289651 C82.2553415,160.301239 55,146.013123 55,146.013123 C55,146.013123 60.9450088,134.980281 59.4616462,128.212432 C57.9782837,121.444582 68.37338,54 68.37338,54 Z" id="Path" fill="#000000" fill-rule="nonzero" opacity="0.1"></path>
            <path d="M68.37338,54 C68.37338,54 81.0108581,80.5753204 92.4077058,55.5047783 L110,143.752619 C110,143.752619 82.7408056,152.278396 82.4980736,156.289839 C82.2553415,160.301282 55,146.009786 55,146.009786 C55,146.009786 60.9450088,134.977344 59.4616462,128.20974 C57.9782837,121.442136 68.37338,54 68.37338,54 Z" id="Path" fill="#E1E7EF" fill-rule="nonzero"></path>
            <path d="M80.6833456,235 C80.6833456,235 77.5136752,228 84.8274243,228 C92.1411735,228 90.924111,234.275603 90.924111,234.275603 L80.6833456,235 Z" id="Path" fill="#5A5773" fill-rule="nonzero"></path>
            <path d="M97.6059172,216 C97.6059172,216 94.5384615,208.254849 102.207101,208.006258 C109.87574,207.757667 106.04142,214.997869 106.04142,214.997869 L97.6059172,216 Z" id="Path" fill="#5A5773" fill-rule="nonzero"></path>
            <path d="M92,48 C92,48 99.5865,51.8931643 102.325532,51.3792666 C105.064564,50.8653689 112.275801,55.6344952 111.780609,65.1493889 L116.276026,79.343866 C118.074314,85.0354506 118.987787,90.9725084 118.984109,96.9448619 L118.984109,96.9448619 C118.984109,96.9448619 125.452558,114.970213 121.970737,122.982345 L121.22408,134 C121.22408,134 115.502288,130.745315 109.529032,131.745858 L111.033952,122.748755 L104.302432,97.2057039 L93.1064452,69.914622 L92,48 Z" id="Path" fill="#000000" fill-rule="nonzero" opacity="0.1"></path>
            <path d="M92,48 C92,48 99.5865,51.8931643 102.325532,51.3792666 C105.064564,50.8653689 112.275801,55.6344952 111.780609,65.1493889 L116.276026,79.343866 C118.074314,85.0354506 118.987787,90.9725084 118.984109,96.9448619 L118.984109,96.9448619 C118.984109,96.9448619 125.452558,114.970213 121.970737,122.982345 L121.22408,134 C121.22408,134 115.502288,130.745315 109.529032,131.745858 L111.022346,122.733182 L104.302432,97.1979176 L93.1180512,69.9068357 L92,48 Z" id="Path" fill="#67647E" fill-rule="nonzero"></path>
            <path d="M104.44144,78.2698416 L104.44144,106.378214 L108.137865,119.811594 C108.137865,119.811594 110.600872,134.486586 109.861587,138.965669 C109.122302,143.444752 97.2975711,144.438814 94.0952794,140.706245 C90.8929877,136.973676 92.6167093,105.121131 92.6167093,105.121131 L92,58.4930276 L92.4941335,57 L104.44144,78.2698416 Z" id="Path" fill="#000000" fill-rule="nonzero" opacity="0.1"></path>
            <path d="M104.44144,76.901134 L104.44144,105.169613 L108.137865,118.679512 C108.137865,118.679512 110.600872,133.438093 109.861587,137.942689 C109.122302,142.447285 97.2975711,143.44701 94.0952794,139.69318 C90.8929877,135.93935 92.6167093,103.90537 92.6167093,103.90537 L92,57 L104.44144,76.901134 Z" id="Path" fill="#67647E" fill-rule="nonzero"></path>
            <path d="M54,100.768487 L62.1047084,125.404868 L58.3043957,135.925373 C58.3043957,135.925373 76.285979,154.491196 87.6829791,145.579754 C87.6829791,145.579754 88.9510627,107.701318 86.4148955,98.7898772 C83.8787282,89.8784362 71.7256038,59.910588 71.7256038,59.910588 L69.2091272,52 L55.7879192,59.4255593 L54,100.768487 Z" id="Path" fill="#000000" fill-rule="nonzero" opacity="0.1"></path>
            <path d="M54.5213136,98.7857146 L54.5213136,123.034235 C54.5213136,123.034235 55.0215453,128.234196 53.2726732,131.69827 C51.5238011,135.162345 58.759711,133.926825 58.759711,133.926825 C58.759711,133.926825 76.4655872,152.490415 87.6878399,143.580046 C87.6878399,143.580046 88.9364803,105.706165 86.4391995,96.7957963 C83.9419187,87.8854271 71.9751351,57.9211835 71.9751351,57.9211835 L69.481732,50 L56.266308,57.4246661 L54.5213136,98.7857146 Z" id="Path" fill="#67647E" fill-rule="nonzero"></path>
            <path d="M73.6226256,46 C73.6226256,46 65.9934376,51.6031386 57.2360169,50.3562757 C48.4785961,49.1094128 43.4754672,87.7118237 43.4754672,87.7118237 C43.4754672,87.7118237 40.2230444,107.634525 50.7311712,105.892014 L74,98.1707576 C74,98.1707576 68.9968711,92.9393545 69.7477295,86.2171371 L58.4848539,90.6973246 L58.9906134,69.2838095 L73.6226256,46 Z" id="Path" fill="#000000" fill-rule="nonzero" opacity="0.1"></path>
            <path d="M43.4754672,87.5110923 C43.4754672,87.5110923 40.2230444,107.652465 50.7311712,105.890829 L74,98.0848237 C74,98.0848237 68.9968711,92.7999154 69.7477295,86 L58.4926348,90.5332769 L43.4754672,87.5110923 Z" id="Path" fill="#000000" fill-rule="nonzero" opacity="0.1"></path>
            <path d="M69,87.5449756 C69,87.5449756 76.9502192,77.48056 82.8049396,82.3125473 C88.6596601,87.1445347 71.09946,96 71.09946,96 L69,87.5449756 Z" id="Path" fill="#A1616A" fill-rule="nonzero"></path>
            <path d="M73.6226256,46 C73.6226256,46 65.9934376,51.6031386 57.2360169,50.3562757 C48.4785961,49.1094128 43.4754672,87.7118237 43.4754672,87.7118237 C43.4754672,87.7118237 40.2230444,107.634525 50.7311712,105.892014 L74,98.1707576 C74,98.1707576 68.9968711,92.9393545 69.7477295,86.2171371 L58.4848539,90.7011969 L58.9906134,69.2838095 L71.7513153,58.8287479 L73.6226256,46 Z" id="Path" fill="#67647E" fill-rule="nonzero"></path>
            <path d="M88.070868,42.412962 L74.1217598,39 C74.1217598,39 74.8485137,39.8191109 74,43.023503 C76.2449465,45.5908088 79.0035672,48.9999787 82.6868014,48.9999787 C85.3226223,49.0049034 87.8888732,48.1572464 90,46.58436 C89.2121963,45.2650396 88.5656056,43.8669044 88.070868,42.412962 Z" id="Path" fill="#000000" fill-rule="nonzero" opacity="0.1"></path>
            <circle id="Oval" fill="#A1616A" fill-rule="nonzero" cx="82.5" cy="35.5" r="12.5"></circle>
            <path d="M87.6002843,30.3965483 C90.5244792,29.9116063 93.7387418,28.6477025 94.7186998,25.9213358 C95.345873,24.1763084 94.8676535,22.1907192 93.8445772,20.6366138 C92.821501,19.0825085 91.3162854,17.8873365 89.7640317,16.8181731 C87.2435795,15.0922379 84.4644184,13.6106829 81.4304682,13.091375 C80.9073558,12.9695417 80.3621286,12.9695417 79.8390162,13.091375 C79.3840991,13.2727621 78.9515168,13.5033115 78.5493914,13.7786943 C76.4758001,14.9433187 73.8965504,14.4392846 71.4936931,14.3170945 C69.0908359,14.1949043 66.2097591,14.8554946 65.4532315,17.0663718 C65.2180416,17.7498727 65.2337209,18.4868317 65.0612483,19.1894248 C64.669265,20.9077231 63.3404419,22.2441774 62.3173656,23.6760927 C61.2942894,25.1080079 60.5064031,27.0439574 61.3687662,28.5866074 C61.6627536,29.1097338 62.1527327,29.5908573 62.1527327,30.1865341 C62.0770881,30.6099134 61.9453253,31.0219315 61.7607494,31.4122535 C61.4040447,32.6799759 62.4428002,33.9591535 63.6422689,34.5624671 C64.8417376,35.1657808 66.2215186,35.3528844 67.4445063,35.9141951 C69.7821259,37.0378841 71.2325017,39.3861856 71.1565876,41.9244208 C72.26982,42.0504294 73.5672845,42.1153429 74.3198923,41.3058334 C74.6569979,40.9430816 74.8216308,40.4581396 75.1273777,40.0724771 C75.519361,39.5684429 76.1308548,39.2706045 76.6325934,38.8658498 C79.2706405,36.7542521 77.3969607,33.8369634 78.8904168,31.5611727 C79.6743833,30.3889114 80.92089,30.7478449 82.183076,30.7669371 C83.9967173,30.8082745 85.8103524,30.6842715 87.6002843,30.3965483 L87.6002843,30.3965483 Z" id="Path" fill="#000000" fill-rule="nonzero" opacity="0.1"></path>
            <path d="M87.6002843,30.3873907 C90.5244792,29.902704 93.7387418,28.6394654 94.7186998,25.9145339 C95.345873,24.1704251 94.8676535,22.1858812 93.8445772,20.6325939 C92.821501,19.0793066 91.3162854,17.8847638 89.7640317,16.8161632 C87.2435795,15.0911366 84.4644184,13.6103615 81.4304682,13.0913269 C80.9073558,12.9695577 80.3621286,12.9695577 79.8390162,13.0913269 C79.3840991,13.2726185 78.9515168,13.5030465 78.5493914,13.7782844 C76.4758001,14.9422958 73.8965504,14.4385269 71.4936931,14.3164011 C69.0908359,14.1942753 66.2097591,14.8545179 65.4532315,17.0642312 C65.2180416,17.7473723 65.2337209,18.4839434 65.0612483,19.1861667 C64.669265,20.9035605 63.3404419,22.2393112 62.3173656,23.6704727 C61.2942894,25.1016342 60.5064031,27.0365646 61.3687662,28.5784026 C61.6627536,29.1012536 62.1527327,29.5821238 62.1527327,30.177487 C62.0770881,30.6006434 61.9453253,31.0124447 61.7607494,31.4025613 C61.4040447,32.6696162 62.4428002,33.9481205 63.6422689,34.5511166 C64.8417376,35.1541126 66.2215186,35.3411177 67.4445063,35.902133 C69.7919821,37.024243 71.2483312,39.3795025 71.1683471,41.9244606 C72.2815795,42.0504028 73.579044,42.1152822 74.3316518,41.3061989 C74.6687574,40.9436379 74.8333903,40.4589512 75.1391372,40.0734917 C75.5311205,39.5697229 76.1426143,39.2720413 76.6443529,38.8674997 C79.2824,36.7570135 77.4087202,33.8412605 78.9021763,31.5666678 C79.6861428,30.3950236 80.9326495,30.753768 82.1948355,30.7728502 C84.0050456,30.8084084 85.8147128,30.6793621 87.6002843,30.3873907 Z" id="Path" fill="#4A4347" fill-rule="nonzero"></path>
            <path d="M102,73 C102,73 105.008511,87.038558 103.642553,92.4571504 C102.807975,95.6093338 102.931442,98.9055463 104,102" id="Path" fill="#000000" fill-rule="nonzero" opacity="0.1"></path>
            <path d="M57.3090442,78 C57.3090442,78 56.2709253,87.9148073 58,90" id="Path" fill="#000000" fill-rule="nonzero" opacity="0.1"></path>
            <path d="M127.5,195 C127.776142,195 128,194.776142 128,194.5 C128,194.223858 127.776142,194 127.5,194 C127.223858,194 127,194.223858 127,194.5 C127,194.776142 127.223858,195 127.5,195 Z" id="Path" fill="#000000" fill-rule="nonzero"></path>
            <g id="Group" opacity="0.5" transform="translate(95.000000, 46.000000)" fill="url(#linearGradient-2)" fill-rule="nonzero">
                <path d="M211.613139,81.9411546 L211.613139,81.6196648 L106.061898,0.356350093 C105.925141,0.254984346 105.738289,0.254984346 105.601533,0.356350093 L0.0464233577,81.6196648 L0.0464233577,207.581676 L0.247591241,207.581676 L0.247591241,207.783091 L211.818175,207.783091 L211.818175,81.8210801 L211.613139,81.9411546 Z" id="Path"></path>
            </g>
            <polygon id="Path" fill="#FFFFFF" fill-rule="nonzero" points="303 250 98 250 98 127.922631 200.5 49 303 127.922631"></polygon>
            <polygon id="Path" fill="#E0E0E0" fill-rule="nonzero" points="296 243 106 243 106 130.033077 201 57 296 130.033077"></polygon>
            <polygon id="Rectangle" fill="#3D7BA4" fill-rule="nonzero" transform="translate(193.965514, 143.592485) rotate(-14.690000) translate(-193.965514, -143.592485) " points="134.196653 67.3845811 253.829076 67.3101217 253.734375 219.800389 134.101952 219.874848"></polygon>
            <rect id="Rectangle" fill="#F5F5F5" fill-rule="nonzero" x="141" y="77" width="120" height="153"></rect>
            <polygon id="Path" fill="#000000" fill-rule="nonzero" opacity="0.05" points="99 128 201 189 99 250"></polygon>
            <polygon id="Path" fill="#FFFFFF" fill-rule="nonzero" points="98 128 200 189 98 250"></polygon>
            <polygon id="Path" fill="#000000" fill-rule="nonzero" opacity="0.05" points="302 128 200 189 302 250"></polygon>
            <polygon id="Path" fill="#FFFFFF" fill-rule="nonzero" points="303 128 201 189 303 250"></polygon>
            <polygon id="Path" fill="#000000" fill-rule="nonzero" opacity="0.05" points="98 248 200.5 168 303 248"></polygon>
            <polygon id="Path" fill="#FFFFFF" fill-rule="nonzero" points="98 250 200.5 170 303 250"></polygon>
            <path d="M119.764819,259 C119.764819,259 115.281314,241.773022 120.606745,229.086309 C122.869502,223.783139 123.551715,217.791996 122.55095,212.012459 C122.05735,209.273482 121.343181,206.591456 120.417396,204" id="Path" stroke="#535461" stroke-width="2"></path>
            <path d="M124,195.808315 C124,197.910505 120,204 120,204 C120,204 116,197.906696 116,195.808315 C116,193.705041 117.790861,192 120,192 C122.209139,192 124,193.705041 124,195.808315 Z" id="Path" fill="#3D7BA4" fill-rule="nonzero"></path>
            <path d="M130.489395,206.980687 C129.370461,208.820704 123,212 123,212 C123,212 123.115623,204.50481 124.234557,202.664793 C125.393387,200.935875 127.623485,200.483879 129.297132,201.63871 C130.970778,202.793541 131.495978,205.146718 130.489395,206.980687 Z" id="Path" fill="#3D7BA4" fill-rule="nonzero"></path>
            <path d="M129.614551,227.473944 C127.615406,228.44423 120,227.775202 120,227.775202 C120,227.775202 123.969905,221.468341 125.964996,220.498055 C127.265504,219.79604 128.860312,219.838821 130.118383,220.609469 C131.376454,221.380118 132.095055,222.754448 131.989848,224.18866 C131.884641,225.622872 130.97258,226.885851 129.614551,227.477856 L129.614551,227.473944 Z" id="Path" fill="#3D7BA4" fill-rule="nonzero"></path>
            <path d="M125.636111,243.096181 C123.986183,244.408056 117,245 117,245 C117,245 119.57151,237.984666 121.221438,236.672791 C122.870365,235.488742 125.092482,235.906135 126.271308,237.621337 C127.450133,239.33654 127.170625,241.74566 125.636111,243.096181 L125.636111,243.096181 Z" id="Path" fill="#3D7BA4" fill-rule="nonzero"></path>
            <path d="M114.077074,212.824477 C115.671165,214.381821 123,216 123,216 C123,216 121.202662,208.574223 119.624512,207.016879 C118.029984,205.58262 115.609457,205.676357 114.12665,207.229787 C112.643843,208.783218 112.622016,211.24816 114.077074,212.828532 L114.077074,212.824477 Z" id="Path" fill="#3D7BA4" fill-rule="nonzero"></path>
            <path d="M109.953263,230.463876 C111.834343,231.452732 119,230.7709 119,230.7709 C119,230.7709 115.264548,224.343338 113.387284,223.354482 C111.524862,222.475126 109.330127,223.285398 108.409617,225.192182 C107.489107,227.098967 108.169726,229.425101 109.953263,230.467863 L109.953263,230.463876 Z" id="Path" fill="#3D7BA4" fill-rule="nonzero"></path>
            <path d="M107.767879,248.143745 C109.531675,249.422845 117,250 117,250 C117,250 114.251021,243.159933 112.487225,241.880833 C111.352895,240.970294 109.800072,240.746673 108.447132,241.299022 C107.094192,241.85137 106.160844,243.089991 106.018771,244.521632 C105.876699,245.953272 106.548974,247.345443 107.767879,248.143745 L107.767879,248.143745 Z" id="Path" fill="#3D7BA4" fill-rule="nonzero"></path>
            <rect id="Rectangle" fill="#3D7BA4" fill-rule="nonzero" opacity="0.5" x="148" y="84" width="48" height="4"></rect>
            <rect id="Rectangle" fill="#3D7BA4" fill-rule="nonzero" opacity="0.5" x="148" y="100" width="104" height="4"></rect>
            <rect id="Rectangle" fill="#3D7BA4" fill-rule="nonzero" opacity="0.5" x="148" y="110" width="104" height="4"></rect>
            <rect id="Rectangle" fill="#3D7BA4" fill-rule="nonzero" opacity="0.4" x="148" y="120" width="104" height="4"></rect>
            <rect id="Rectangle" fill="#3D7BA4" fill-rule="nonzero" opacity="0.4" x="148" y="130" width="104" height="4"></rect>
            <rect id="Rectangle" fill="#3D7BA4" fill-rule="nonzero" opacity="0.3" x="148" y="140" width="59" height="4"></rect>
            <rect id="Rectangle" fill="#3D7BA4" fill-rule="nonzero" opacity="0.3" x="148" y="150" width="81" height="4"></rect>
        </g>
    </g>
</svg>