<?xml version="1.0" encoding="UTF-8"?>
<svg width="372px" height="329px" viewBox="0 0 372 329" version="1.1" xmlns="http://www.w3.org/2000/svg" xmlns:xlink="http://www.w3.org/1999/xlink">
    <!-- Generator: Sketch 53.2 (72643) - https://sketchapp.com -->
    <title>Untitled</title>
    <desc>Created with Sketch.</desc>
    <defs>
        <linearGradient x1="50.003653%" y1="100.013831%" x2="50.003653%" y2="0.00485949042%" id="linearGradient-1">
            <stop stop-color="#808080" stop-opacity="0.25" offset="0%"></stop>
            <stop stop-color="#808080" stop-opacity="0.12" offset="54%"></stop>
            <stop stop-color="#808080" stop-opacity="0.1" offset="100%"></stop>
        </linearGradient>
        <linearGradient x1="49.9976804%" y1="100.001505%" x2="49.9976804%" y2="-0.0135056733%" id="linearGradient-2">
            <stop stop-color="#808080" stop-opacity="0.25" offset="0%"></stop>
            <stop stop-color="#808080" stop-opacity="0.12" offset="54%"></stop>
            <stop stop-color="#808080" stop-opacity="0.1" offset="100%"></stop>
        </linearGradient>
        <linearGradient x1="50.0031015%" y1="99.9982817%" x2="50.0031015%" y2="-0.00171833116%" id="linearGradient-3">
            <stop stop-color="#808080" stop-opacity="0.25" offset="0%"></stop>
            <stop stop-color="#808080" stop-opacity="0.12" offset="54%"></stop>
            <stop stop-color="#808080" stop-opacity="0.1" offset="100%"></stop>
        </linearGradient>
        <linearGradient x1="49.9948145%" y1="99.9986356%" x2="49.9948145%" y2="-0.00919346259%" id="linearGradient-4">
            <stop stop-color="#808080" stop-opacity="0.25" offset="0%"></stop>
            <stop stop-color="#808080" stop-opacity="0.12" offset="54%"></stop>
            <stop stop-color="#808080" stop-opacity="0.1" offset="100%"></stop>
        </linearGradient>
        <linearGradient x1="50.0067568%" y1="99.9710145%" x2="50.0067568%" y2="-0.0289855072%" id="linearGradient-5">
            <stop stop-color="#808080" stop-opacity="0.25" offset="0%"></stop>
            <stop stop-color="#808080" stop-opacity="0.12" offset="54%"></stop>
            <stop stop-color="#808080" stop-opacity="0.1" offset="100%"></stop>
        </linearGradient>
        <linearGradient x1="49.9964552%" y1="99.9928459%" x2="49.9964552%" y2="-0.00802762243%" id="linearGradient-6">
            <stop stop-color="#000000" stop-opacity="0.12" offset="0%"></stop>
            <stop stop-color="#000000" stop-opacity="0.09" offset="55%"></stop>
            <stop stop-color="#000000" stop-opacity="0.02" offset="100%"></stop>
        </linearGradient>
        <linearGradient x1="49.9922122%" y1="99.9530713%" x2="49.9922122%" y2="-0.0400799968%" id="linearGradient-7">
            <stop stop-color="#808080" stop-opacity="0.25" offset="0%"></stop>
            <stop stop-color="#808080" stop-opacity="0.12" offset="54%"></stop>
            <stop stop-color="#808080" stop-opacity="0.1" offset="100%"></stop>
        </linearGradient>
        <linearGradient x1="49.870761%" y1="89.8163353%" x2="50.0723805%" y2="10.1842916%" id="linearGradient-8">
            <stop stop-color="#000000" stop-opacity="0.12" offset="0%"></stop>
            <stop stop-color="#000000" stop-opacity="0.09" offset="55%"></stop>
            <stop stop-color="#000000" stop-opacity="0.02" offset="100%"></stop>
        </linearGradient>
        <linearGradient x1="49.9970588%" y1="100.004697%" x2="49.9970588%" y2="0.00260124142%" id="linearGradient-9">
            <stop stop-color="#808080" stop-opacity="0.25" offset="0%"></stop>
            <stop stop-color="#808080" stop-opacity="0.12" offset="54%"></stop>
            <stop stop-color="#808080" stop-opacity="0.1" offset="100%"></stop>
        </linearGradient>
        <linearGradient x1="49.9957633%" y1="100.001834%" x2="49.9957633%" y2="0.00626914661%" id="linearGradient-10">
            <stop stop-color="#808080" stop-opacity="0.25" offset="0%"></stop>
            <stop stop-color="#808080" stop-opacity="0.12" offset="54%"></stop>
            <stop stop-color="#808080" stop-opacity="0.1" offset="100%"></stop>
        </linearGradient>
        <linearGradient x1="50.0096072%" y1="99.9912419%" x2="50.0096072%" y2="-0.0265487848%" id="linearGradient-11">
            <stop stop-color="#808080" stop-opacity="0.25" offset="0%"></stop>
            <stop stop-color="#808080" stop-opacity="0.12" offset="54%"></stop>
            <stop stop-color="#808080" stop-opacity="0.1" offset="100%"></stop>
        </linearGradient>
        <linearGradient x1="50%" y1="100%" x2="50%" y2="0%" id="linearGradient-12">
            <stop stop-color="#000000" stop-opacity="0.12" offset="0%"></stop>
            <stop stop-color="#000000" stop-opacity="0.09" offset="55%"></stop>
            <stop stop-color="#000000" stop-opacity="0.02" offset="100%"></stop>
        </linearGradient>
        <linearGradient x1="33.4478857%" y1="83.0852551%" x2="70.2468561%" y2="44.8508894%" id="linearGradient-13">
            <stop stop-color="#808080" stop-opacity="0.25" offset="0%"></stop>
            <stop stop-color="#808080" stop-opacity="0.12" offset="54%"></stop>
            <stop stop-color="#808080" stop-opacity="0.1" offset="100%"></stop>
        </linearGradient>
    </defs>
    <g id="Page-1" stroke="none" stroke-width="1" fill="none" fill-rule="evenodd">
        <g id="undraw_mail_2_tqip" transform="translate(13.000000, 0.000000)">
            <path d="M9,195 C9,195 8.61797753,194.300699 8,193" id="Path" stroke="#69F0AE" stroke-width="9"></path>
            <path d="M6.1559081,188 C-4.41496155,147.332832 -37.3712022,-40.0924137 293,76.9125903" id="Path" stroke="#69F0AE" stroke-width="9" stroke-dasharray="12.04"></path>
            <path d="M296,77 L298,78" id="Path" stroke="#69F0AE" stroke-width="9"></path>
            <path d="M257.999999,222.391934 C258.00446,204.131294 244.102631,188.866889 225.910536,187.157251 C207.718441,185.447612 191.212818,197.854417 187.810759,215.795761 L79,212.846217 L80.1945249,231.528113 C80.1945249,231.528113 64.6787794,267.306035 146.224725,276.838681 L146.224725,313 L240.496285,313 L240.496285,252.876361 C251.328915,246.537376 257.989695,234.936977 257.999999,222.391934 Z" id="Path" fill="url(#linearGradient-1)" fill-rule="nonzero"></path>
            <path d="M84.154566,231.904364 C84.154566,231.904364 69.3622322,266.187276 147.113134,275.333454 L147.113134,310 L237,310 L237,218.189456 L83,214 L84.154566,231.904364 Z" id="Path" fill="#F6B9AD" fill-rule="nonzero"></path>
            <path d="M128.488191,89.274159 L128.488191,89.274159 C123.625433,96.9958426 113.478555,99.3161166 105.777206,94.4674521 L57.6775037,62.5720129 C50.0041314,57.6786387 47.6983743,47.4678768 52.5167028,39.7180405 L52.5167028,39.7180405 C57.3787518,32.0069573 67.5126432,29.6878858 75.2103839,34.5247474 L123.310087,66.4201866 C130.989561,71.3078359 133.303322,81.5198038 128.488191,89.274159 L128.488191,89.274159 Z" id="Path" fill="url(#linearGradient-2)" fill-rule="nonzero"></path>
            <path d="M126.643795,86.869377 L126.643795,86.869377 C122.082155,93.9960036 112.563744,96.1376058 105.339175,91.662826 L60.2021949,62.2235279 C53.0040365,57.7072201 50.8409385,48.283398 55.3606328,41.130623 L55.3606328,41.130623 C59.9222719,34.0039964 69.4406832,31.8623942 76.6652524,36.337174 L121.793501,65.7807944 C128.992079,70.2940853 131.158913,79.7152598 126.643795,86.869377 Z" id="Path" fill="#F6B9AD" fill-rule="nonzero"></path>
            <circle id="Oval" fill="#F6B9AD" fill-rule="nonzero" cx="220" cy="223" r="34"></circle>
            <rect id="Rectangle" fill="url(#linearGradient-3)" fill-rule="nonzero" x="79" y="0" width="140" height="253" rx="12.25"></rect>
            <rect id="Rectangle" fill="#FFFFFF" fill-rule="nonzero" x="81" y="4" width="137" height="246" rx="13.64"></rect>
            <path d="M183.38148,10.0000018 C182.563388,15.3985167 177.918698,19.3948247 172.443802,19.4108192 L125.176629,19.4108192 C119.70339,19.3926822 115.061153,15.3968917 114.243314,10.0000018 L89.2005252,10.0000018 C87.821662,9.99884729 86.4988771,10.5442781 85.5234642,11.5161836 C84.5480513,12.4880891 84.0000013,13.8067659 84.0000018,15.181825 L84.0000018,238.813824 C83.9988441,240.188883 84.545784,241.508018 85.5203787,242.480739 C86.4949733,243.453461 87.8172987,243.999999 89.1961624,243.999998 L208.799475,243.999998 C210.178338,244.001153 211.501123,243.455722 212.476536,242.483816 C213.451949,241.511911 213.999999,240.193234 213.999998,238.818175 L213.999998,15.1861758 C214.001156,13.8111172 213.454216,12.4919822 212.479621,11.5192606 C211.505027,10.5465391 210.182701,10.0000013 208.803838,10.0000018 L183.38148,10.0000018 Z" id="Path" fill="#3D7BA4" fill-rule="nonzero"></path>
            <rect id="Rectangle" fill="#DBDBDB" fill-rule="nonzero" x="135" y="13" width="30" height="2" rx="1"></rect>
            <circle id="Oval" fill="#DBDBDB" fill-rule="nonzero" cx="171" cy="13" r="1"></circle>
            <path d="M241.774498,229.540096 L241.774498,229.540096 C231.974018,231.81827 225.247857,225.393992 222.981198,215.548089 L200.462238,131.508762 C198.221635,121.624655 204.341774,111.776838 214.162068,109.464587 L214.162068,109.464587 C223.996216,107.212601 233.794258,113.363831 236.094822,123.234013 L254.471266,209.429314 C256.737925,219.292674 251.570636,227.261921 241.774498,229.540096 Z" id="Path" fill="url(#linearGradient-4)" fill-rule="nonzero"></path>
            <path d="M229.309436,112.126282 L229.309436,112.126282 C237.815919,112.126357 244.711784,119.022176 244.711915,127.52866 L244.713335,219.71209 C244.713466,228.218308 237.817921,235.114066 229.311703,235.114197 C229.311579,235.114197 229.311455,235.114197 229.31133,235.114197 L229.31133,235.114197 C220.804847,235.114122 213.908982,228.218303 213.908851,219.711819 L213.907431,127.528388 C213.9073,119.022171 220.802846,112.126413 229.309063,112.126282 C229.309187,112.126282 229.309312,112.126282 229.309436,112.126282 Z" id="Rectangle" fill="#F6B9AD" fill-rule="nonzero" transform="translate(229.310383, 173.620239) rotate(-13.010000) translate(-229.310383, -173.620239) "></path>
            <rect id="Rectangle" fill="url(#linearGradient-5)" fill-rule="nonzero" x="125" y="299" width="129" height="30"></rect>
            <rect id="Rectangle" fill="#FF8976" fill-rule="nonzero" x="129" y="302" width="122" height="24"></rect>
            <path d="M177.508494,79.3021966 L167.562231,71.7848625 L171.898004,66.126186 L164.661599,60.4239812 L160.139388,66.17842 L149.9113,58.4521501 C149.111028,57.8492833 148.010384,57.8492833 147.210113,58.4521501 L120.098525,78.7145649 C119.070947,79.5851305 118.108405,80.5819281 118.099734,82.86281 L118.069383,82.86281 L118.000011,114.081293 L118.000011,114.081293 L118.000011,115.469845 C117.997708,116.37262 118.352722,117.239337 118.986952,117.879327 C119.621183,118.519318 120.482677,118.880157 121.381914,118.882462 L122.717332,118.882462 L148.42413,118.939049 L175.470681,118.999989 C176.369918,119.002301 177.233239,118.645891 177.870722,118.009165 C178.508205,117.37244 178.86763,116.507557 178.869927,115.604783 L178.943635,83.0543345 L179,83.0543345 C179,80.7690997 178.536072,80.1727623 177.508494,79.3021966 Z" id="Path" fill="url(#linearGradient-6)" fill-rule="nonzero"></path>
            <path d="M177,83.978639 C177,81.8852425 176.563727,81.3509447 175.630103,80.540739 L150.295732,61.4155042 C149.560289,60.8614986 148.548782,60.8614986 147.813339,61.4155042 L122.923967,80.0195796 C121.707256,80.8920233 121.016721,82.3262617 121.09162,83.8253568 L121.065444,83.8253568 L121.000003,112.484742 L121.000003,112.484742 L121.000003,113.759174 C120.997589,115.484438 122.38761,116.885679 124.106267,116.89051 L125.332194,116.89051 L148.934561,116.943063 L173.762855,116.999997 C175.481516,117.00242 176.877394,115.607059 176.882206,113.8818 L176.947647,84.0005364 L177,83.978639 Z" id="Path" fill="url(#linearGradient-7)" fill-rule="nonzero"></path>
            <path d="M121.537431,83.6185269 L176.301179,83.6185269 L176.301174,113.746397 C176.301174,114.228846 176.109506,114.691534 175.768336,115.032677 C175.427166,115.37382 174.964441,115.565472 174.481953,115.565472 L123.561199,115.565481 C123.029078,115.565481 122.518751,115.354114 122.142485,114.977878 C121.766218,114.601642 121.554834,114.091356 121.554834,113.559278 L121.55484,83.6185369 L121.537431,83.6185269 Z" id="Path" fill="#3D7BA4" fill-rule="nonzero" transform="translate(148.919305, 99.592004) rotate(0.130000) translate(-148.919305, -99.592004) "></path>
            <path d="M121.537431,83.6185269 L176.301179,83.6185269 L176.301174,113.746397 C176.301174,114.228846 176.109506,114.691534 175.768336,115.032677 C175.427166,115.37382 174.964441,115.565472 174.481953,115.565472 L123.561199,115.565481 C123.029078,115.565481 122.518751,115.354114 122.142485,114.977878 C121.766218,114.601642 121.554834,114.091356 121.554834,113.559278 L121.55484,83.6185369 L121.537431,83.6185269 Z" id="Path" fill="#FFFFFF" fill-rule="nonzero" opacity="0.2" transform="translate(148.919305, 99.592004) rotate(0.130000) translate(-148.919305, -99.592004) "></path>
            <path d="M121.06154,84 L121.000009,111.640315 C120.997675,112.766603 121.447836,113.847678 122.25146,114.645715 C123.055083,115.443751 124.146342,115.893377 125.285169,115.895681 L172,116" id="Path" fill="#F5F5F5" fill-rule="nonzero"></path>
            <path d="M177,84 L176.938565,111.748152 C176.93624,112.878124 176.482312,113.960897 175.67664,114.758272 C174.870969,115.555647 173.779552,116.002307 172.642488,115.999991 L126,115.89533" id="Path" fill="#FFFFFF" fill-rule="nonzero"></path>
            <path d="M148.272801,62.4000353 L123.809249,80.1882415 C122.6149,81.0163158 121.933998,82.3898577 122.005062,83.8277171 L177,84 C177,81.9972117 176.563151,81.4717489 175.654505,80.7137043 L150.732262,62.4086495 C150.005557,61.8669913 149.00339,61.8634812 148.272801,62.4000353 L148.272801,62.4000353 Z" id="Path" fill="#3D7BA4" fill-rule="nonzero"></path>
            <path d="M148.272801,62.4000353 L123.809249,80.1882415 C122.6149,81.0163158 121.933998,82.3898577 122.005062,83.8277171 L177,84 C177,81.9972117 176.563151,81.4717489 175.654505,80.7137043 L150.732262,62.4086495 C150.005557,61.8669913 149.00339,61.8634812 148.272801,62.4000353 L148.272801,62.4000353 Z" id="Path" fill="#000000" fill-rule="nonzero" opacity="0.2"></path>
            <polygon id="Path" fill="url(#linearGradient-8)" fill-rule="nonzero" points="171 68.2711706 164.308277 63 148.134782 83.5814047 139.44389 76.8092308 134 83.762408 146.649685 93.4703679 146.649685 93.4703679 149.786842 96"></polygon>
            <polygon id="Path" fill="#FFFFFF" fill-rule="nonzero" points="170 68.5559105 164.056848 64 148.307494 84.5360467 139.560724 77.8313655 135 83.7738575 146.718346 92.7478817 146.718346 92.7478817 149.724376 95"></polygon>
            <path d="M118.486759,135.287557 L118.486759,135.287557 C113.629138,142.995898 103.495248,145.31202 95.8031993,140.471932 L54.6672105,113.529822 C47.0040777,108.643544 44.7015398,98.4498703 49.5132411,90.7124426 L49.5132411,90.7124426 C54.3708623,83.0041018 64.5047516,80.6879802 72.1968007,85.5280677 L113.33279,112.470178 C120.995922,117.356456 123.29846,127.55013 118.486759,135.287557 Z" id="Path" fill="url(#linearGradient-9)" fill-rule="nonzero"></path>
            <path d="M116.656629,133.801273 L116.656629,133.801273 C112.128346,140.995965 102.679536,143.158022 95.5077948,138.640504 L57.1495303,113.493087 C50.004007,108.933644 47.8567262,99.4198166 52.3433711,92.1987265 L52.3433711,92.1987265 C56.8716542,85.0040345 66.3204642,82.8419782 73.4922052,87.359496 L111.85047,112.506913 C118.995993,117.066356 121.143274,126.580183 116.656629,133.801273 Z" id="Path" fill="#F6B9AD" fill-rule="nonzero"></path>
            <path d="M110.507967,179.325804 L110.507967,179.325804 C105.687294,186.995454 95.6262779,189.300549 87.9901586,184.484895 L55.6134835,163.371568 C48.0045101,158.512454 45.7176511,148.371208 50.4952078,140.674196 L50.4952078,140.674196 C55.3158809,133.004546 65.3768968,130.699451 73.0130161,135.515105 L105.38535,156.632807 C112.99321,161.490306 115.281776,171.628568 110.507967,179.325804 Z" id="Path" fill="url(#linearGradient-10)" fill-rule="nonzero"></path>
            <path d="M102.48667,223.24202 L102.48667,223.24202 C97.6202312,230.994983 87.4617654,233.325578 79.7517343,228.457958 L59.6881748,213.686774 C52.0049718,208.77615 49.6953473,198.52545 54.5191695,190.745416 L54.5191695,190.745416 C59.3913176,182.998633 69.5485832,180.676146 77.2541056,185.547011 L97.317665,200.313812 C104.992932,205.223899 107.301656,215.464727 102.48667,223.24202 L102.48667,223.24202 Z" id="Path" fill="url(#linearGradient-11)" fill-rule="nonzero"></path>
            <path d="M100.623708,221.892222 L100.623708,221.892222 C96.0318106,228.996016 86.4502608,231.130757 79.1777688,226.670314 L60.2499692,213.133105 C53.0040632,208.631267 50.8266168,199.237637 55.3762915,192.107778 L55.3762915,192.107778 C59.9681894,185.003984 69.5497392,182.869243 76.8222312,187.329686 L95.7500308,200.866895 C102.995937,205.368733 105.173383,214.762363 100.623708,221.892222 Z" id="Path" fill="#F6B9AD" fill-rule="nonzero"></path>
            <rect id="Rectangle" fill="url(#linearGradient-12)" fill-rule="nonzero" x="105" y="141" width="89" height="27"></rect>
            <rect id="Rectangle" fill="#69F0AE" fill-rule="nonzero" x="108" y="143" width="83" height="19"></rect>
            <polygon id="Path" fill="url(#linearGradient-13)" fill-rule="nonzero" points="344.446707 93.7577699 346 94 345.757704 93.7707466 345.887505 93.7707466 345.684149 93.701538 317.521528 67 310.68531 77.783563 305 87.6198334 307.634973 88.0307594 306.466758 93.3598206"></polygon>
            <polygon id="Path" fill="#3D7BA4" fill-rule="nonzero" points="312.181818 77.8649607 307 86.8279706 345 93 320.524545 76"></polygon>
            <polygon id="Path" fill="#000000" fill-rule="nonzero" opacity="0.2" points="312.181818 77.8649607 307 86.8279706 345 93 320.524545 76"></polygon>
            <polygon id="Path" fill="#3D7BA4" fill-rule="nonzero" points="318.274342 68 345 93 312 77.8377632"></polygon>
            <polygon id="Path" fill="#3D7BA4" fill-rule="nonzero" points="308 92.3104925 345 93 310.460246 81"></polygon>
            <path d="M108.649108,177.755672 L108.649108,177.755672 C104.125071,184.99594 94.6851197,187.171692 87.5201026,182.625558 L57.1428272,162.689328 C50.0040032,158.101003 47.8587356,148.526909 52.3411741,141.260077 L52.3411741,141.260077 C56.8580928,134.012065 66.2995443,131.826156 73.4701798,136.368235 L103.847455,156.304465 C110.99948,160.893674 113.146246,170.484273 108.649108,177.755672 L108.649108,177.755672 Z" id="Path" fill="#F6B9AD" fill-rule="nonzero"></path>
        </g>
    </g>
</svg>