<?xml version="1.0" encoding="UTF-8"?>
<svg width="372px" height="329px" viewBox="0 0 372 329" version="1.1" xmlns="http://www.w3.org/2000/svg" xmlns:xlink="http://www.w3.org/1999/xlink">
    <!-- Generator: Sketch 53.2 (72643) - https://sketchapp.com -->
    <title>Untitled</title>
    <desc>Created with Sketch.</desc>
    <g id="Page-1" stroke="none" stroke-width="1" fill="none" fill-rule="evenodd">
        <g id="undraw_mobile_testing_reah">
            <path d="M166.929703,127.258115 C152.410181,122.560824 137.058559,118.622976 121.369275,119.028815 C98.3036545,119.627529 76.1264103,130.37223 65.1885308,146.252206 C55.9429877,159.709201 54.7089087,175.524886 50.6730281,190.48871 C45.7005338,208.92427 36.2620402,226.419568 26.188418,243.529118 C20.7777653,252.71877 15.0696474,262.101297 14.1290139,272.199065 C12.8386576,286.218609 21.3365177,300.234135 34.7345157,309.628716 C48.1325136,319.023298 65.9603327,324.029991 83.8725676,325.199291 C93.4035166,325.818095 103.364584,325.339928 111.850385,321.908374 C120.826602,318.291983 127.390937,311.673987 136.403332,308.097777 C144.756479,304.78677 154.492438,304.36084 163.862595,304.847043 C175.997517,305.46065 188.015883,307.519125 199.662946,310.978836 C212.723281,314.884539 224.859061,320.506018 237.891257,324.467976 C250.923453,328.429934 265.491213,330.672096 278.844993,327.485654 C291.382754,324.496103 301.327742,317.126701 310.295919,309.660862 C324.748051,297.660324 338.186173,284.489583 350.473834,270.282378 C358.573733,260.883778 366.118901,250.958793 369.736722,239.977018 C376.64676,218.977838 367.389158,195.202073 346.675121,180.740526 C329.514589,168.754197 306.42887,163.462211 283.821507,160.247641 C263.203946,157.286218 239.350445,156.992889 220.401101,149.450704 C202.328074,142.238012 185.887087,133.389907 166.929703,127.258115 Z" id="Path" fill="#3D7BA4" fill-rule="nonzero" opacity="0.1"></path>
            <ellipse id="Oval" fill="#3D7BA4" fill-rule="nonzero" opacity="0.1" cx="351.5" cy="197.5" rx="9.5" ry="1.5"></ellipse>
            <ellipse id="Oval" fill="#3D7BA4" fill-rule="nonzero" opacity="0.1" cx="316.5" cy="201.5" rx="9.5" ry="1.5"></ellipse>
            <ellipse id="Oval" fill="#3D7BA4" fill-rule="nonzero" opacity="0.1" cx="274.5" cy="196.5" rx="9.5" ry="1.5"></ellipse>
            <ellipse id="Oval" fill="#3D7BA4" fill-rule="nonzero" opacity="0.1" cx="330.5" cy="211" rx="6.5" ry="1"></ellipse>
            <ellipse id="Oval" fill="#3D7BA4" fill-rule="nonzero" opacity="0.1" cx="293.5" cy="211" rx="6.5" ry="1"></ellipse>
            <path d="M315.742842,201 C315.742842,201 328.836801,158.611859 313.695143,141.634264 C302.386357,128.932981 289.510495,130.464794 283.755131,132.02453 C280.739801,132.817065 278.229281,134.878045 276.889081,137.661124 C274.869655,141.949403 275.24123,148.910376 289.449912,157.036166 C313.242792,170.642975 314.725051,189.307958 314.725051,189.307958 L315.742842,201 Z" id="Path" fill="#3D7BA4" fill-rule="nonzero"></path>
            <path d="M286,138 C286,138 324.341724,149.926254 315.743324,201" id="Path" stroke="#565987"></path>
            <path d="M309,142 C309,142 303.635637,145.597566 305.331363,151" id="Path" stroke="#565987"></path>
            <path d="M290,145 C290,145 293.140774,141.74532 297,143.539771" id="Path" stroke="#565987"></path>
            <path d="M305,161.198552 C305,161.198552 310.562183,158.028183 312,162" id="Path" stroke="#565987"></path>
            <path d="M319,167.024304 C319,167.024304 315.07037,166.631967 315,169" id="Path" stroke="#565987"></path>
            <path d="M316,201 C316,201 300.740697,170.339928 296.568482,171.010853 C294.560679,171.32845 293.661183,173.265795 293.247575,175.20711 C292.733644,177.719917 293.024177,180.328591 294.078806,182.670652 C296.243218,187.577534 302.0538,196.895052 316,201 Z" id="Path" fill="#3D7BA4" fill-rule="nonzero"></path>
            <path d="M297,177 C297,177 312.923239,199.98939 316,201" id="Path" stroke="#565987"></path>
            <path d="M295,180 L299,180" id="Path" stroke="#565987"></path>
            <path d="M300,188.87547 L306,189.12453" id="Path" stroke="#565987"></path>
            <path d="M304,182 L303,185" id="Path" stroke="#565987"></path>
            <path d="M310.056303,191 L309.943697,194" id="Path" stroke="#565987"></path>
            <path d="M316,201 C316,201 331.259303,170.339928 335.431518,171.010853 C337.439321,171.32845 338.338817,173.265795 338.752425,175.20711 C339.266356,177.719917 338.975823,180.328591 337.921194,182.670652 C335.756782,187.577534 329.9462,196.895052 316,201 Z" id="Path" fill="#3D7BA4" fill-rule="nonzero"></path>
            <path d="M335,177 C335,177 319.076761,199.98939 316,201" id="Path" stroke="#565987"></path>
            <path d="M337,180 L333,180" id="Path" stroke="#565987"></path>
            <path d="M332,188.87547 L326,189.12453" id="Path" stroke="#565987"></path>
            <path d="M329,182 L330,185" id="Path" stroke="#565987"></path>
            <path d="M322.941686,191 L323.058314,194" id="Path" stroke="#565987"></path>
            <path d="M289.874644,208.516817 C289.47449,208.151341 289.18235,207.660143 289.036243,207.107145 C288.902752,206.533282 289.146903,205.933453 289.622347,205.667204 C290.161874,205.438024 290.736334,205.853143 291.174942,206.276909 C291.61355,206.700675 292.11038,207.172008 292.680958,207.085525 C292.084968,206.481889 291.816829,205.574245 291.974528,204.694271 C291.998378,204.514844 292.065449,204.345978 292.168602,204.205642 C292.467477,203.851062 293.010885,204.006732 293.367981,204.283477 C294.505257,205.178576 294.823538,206.899586 294.831301,208.447631 C294.886812,207.872736 294.886812,207.292867 294.831301,206.717972 C294.78626,206.136512 295.00289,205.567996 295.409643,205.200196 C295.679196,205.035644 295.983549,204.954986 296.29074,204.966692 C296.804332,204.885307 297.324819,205.050304 297.723009,205.420728 C298.153853,205.939626 298.04129,206.808779 297.664786,207.379567 C297.241311,207.902128 296.741254,208.340779 296.18594,208.676811 C295.760659,208.957044 295.398274,209.341532 295.126294,209.801089 C295.095772,209.86502 295.069815,209.931529 295.048665,210 L291.842557,210 C291.129677,209.606489 290.467731,209.107592 289.874644,208.516817 L289.874644,208.516817 Z" id="Path" fill="#3D7BA4" fill-rule="nonzero"></path>
            <path d="M347.874159,196.509566 C347.47248,196.146089 347.180059,195.654733 347.036005,195.101214 C346.903038,194.529107 347.147236,193.931347 347.621937,193.666942 C348.161305,193.437976 348.735595,193.852706 349.174074,194.271755 C349.612553,194.690805 350.113117,195.170336 350.683527,195.079614 C350.084952,194.478431 349.815122,193.570635 349.973424,192.690599 C349.996911,192.511708 350.065538,192.343918 350.171322,192.206748 C350.470108,191.8525 351.009476,192.003704 351.366467,192.28451 C352.503407,193.17445 352.821595,194.876569 352.829356,196.444765 C352.886542,195.870511 352.886542,195.290979 352.829356,194.716725 C352.784328,194.13581 353.000894,193.567827 353.407527,193.200371 C353.6783,193.040188 353.981875,192.961277 354.288365,192.971406 C354.799124,192.881907 355.319932,193.039043 355.720211,193.403416 C356.154809,193.917507 356.042279,194.785847 355.662006,195.3561 C355.241411,195.888427 354.741224,196.335679 354.183596,196.67805 C353.758439,196.95802 353.396161,197.342148 353.124262,197.801275 C353.092355,197.864387 353.066349,197.930977 353.046655,198 L349.841493,198 C349.129016,197.602961 348.467384,197.101715 347.874159,196.509566 L347.874159,196.509566 Z" id="Path" fill="#3D7BA4" fill-rule="nonzero"></path>
            <path d="M328.872762,208.516817 C328.473469,208.151341 328.181958,207.660143 328.036165,207.107145 C327.902961,206.533282 328.146587,205.933453 328.621008,205.667204 C329.159374,205.438024 329.732598,205.853143 330.170262,206.276909 C330.607926,206.700675 331.103687,207.172008 331.673038,207.085525 C331.077582,206.482318 330.808637,205.574967 330.964254,204.694271 C330.991149,204.515067 331.059207,204.346712 331.161784,204.205642 C331.460015,203.851062 332.002254,204.006732 332.358582,204.283477 C333.493411,205.178576 333.811008,206.899586 333.818754,208.447631 C333.880586,207.87351 333.887078,207.29364 333.83812,206.717972 C333.793175,206.136512 334.009339,205.567996 334.415217,205.200196 C334.68419,205.035644 334.987888,204.954986 335.294418,204.966692 C335.806905,204.885307 336.326272,205.050304 336.723605,205.420728 C337.153522,205.939626 337.041202,206.808779 336.665508,207.379567 C336.242944,207.902128 335.743962,208.340779 335.189843,208.676811 C334.765477,208.957044 334.403872,209.341532 334.132478,209.801089 C334.102021,209.86502 334.07612,209.931529 334.055015,210 L330.855806,210 C330.137667,209.608174 329.470549,209.109215 328.872762,208.516817 L328.872762,208.516817 Z" id="Path" fill="#3D7BA4" fill-rule="nonzero"></path>
            <path d="M273.696517,183 C273.696517,183 272.494224,184.60396 274.251124,187.023762 C276.008024,189.443564 277.450777,191.491089 276.869022,193 C276.869022,193 274.220097,188.50495 272.063725,188.441584 C269.907353,188.378218 271.322957,185.70495 273.696517,183 Z" id="Path" fill="#3D7BA4" fill-rule="nonzero"></path>
            <path d="M273.727854,183 C273.62032,183.154471 273.535725,183.323986 273.476754,183.50317 C271.350251,186.026941 270.216377,188.384311 272.260488,188.44374 C274.167278,188.499208 276.454642,191.938193 277,192.801902 C277,192.869255 276.960766,192.936609 276.937225,193 C276.937225,193 274.257518,188.50317 272.076087,188.439778 C269.894656,188.376387 271.32671,185.706022 273.727854,183 Z" id="Path" fill="#000000" fill-rule="nonzero" opacity="0.1"></path>
            <path d="M270.857232,185.261079 C270.857232,185.670636 270.921578,186 271.002011,186 C271.082443,186 271.142768,185.670636 271.142768,185.261079 C271.142768,184.851522 271.062335,185.046276 270.985924,185.046276 C270.909514,185.046276 270.857232,184.854386 270.857232,185.261079 Z" id="Path" fill="#FFD037" fill-rule="nonzero"></path>
            <path d="M270.237623,185.500169 C270.627224,185.856316 270.970073,186.06794 270.998124,185.980194 C271.026176,185.892447 270.736312,185.531139 270.346711,185.180153 C269.95711,184.829168 270.109834,185.082084 270.078666,185.180153 C270.047498,185.278223 269.848022,185.149184 270.237623,185.500169 Z" id="Path" fill="#FFD037" fill-rule="nonzero"></path>
            <path d="M280.302427,183 C280.302427,183 281.505191,184.60396 279.747603,187.023762 C277.990015,189.443564 276.546698,191.491089 277.132561,193 C277.132561,193 279.778642,188.50495 281.935859,188.441584 C284.093075,188.378218 282.676917,185.70495 280.302427,183 Z" id="Path" fill="#3D7BA4" fill-rule="nonzero"></path>
            <path d="M280.272146,183 C280.37968,183.154471 280.464275,183.323986 280.523246,183.50317 C282.649749,186.026941 283.783623,188.384311 281.739512,188.44374 C279.832722,188.499208 277.545358,191.938193 277,192.801902 C277.018096,192.869282 277.040372,192.935446 277.066698,193 C277.066698,193 279.742482,188.50317 281.923913,188.439778 C284.105344,188.376387 282.67329,185.706022 280.272146,183 Z" id="Path" fill="#000000" fill-rule="nonzero" opacity="0.1"></path>
            <path d="M282.142768,185.261079 C282.142768,185.670636 282.078422,186 281.997989,186 C281.917557,186 281.857232,185.670636 281.857232,185.261079 C281.857232,184.851522 281.937665,185.046276 282.014076,185.046276 C282.090486,185.046276 282.142768,184.854386 282.142768,185.261079 Z" id="Path" fill="#FFD037" fill-rule="nonzero"></path>
            <path d="M282.762377,185.500169 C282.372776,185.856316 282.029927,186.06794 282.001876,185.980194 C281.973824,185.892447 282.263688,185.531139 282.653289,185.180153 C283.04289,184.829168 282.890166,185.082084 282.921334,185.180153 C282.952502,185.278223 283.151978,185.149184 282.762377,185.500169 Z" id="Path" fill="#FFD037" fill-rule="nonzero"></path>
            <path d="M282,193.001019 C282,193.001019 278.512691,192.889768 277.460451,192.093894 C276.408211,191.29802 272.090399,190.348105 271.816252,191.623216 C271.542105,192.898326 266.57521,197.964536 270.510023,197.998768 C274.444836,198.032999 279.669752,197.348376 280.71796,196.668032 C281.766169,195.987687 282,193.001019 282,193.001019 Z" id="Path" fill="#A8A8A8" fill-rule="nonzero"></path>
            <path d="M270.457655,197.557964 C274.400617,197.592203 279.622923,196.907438 280.676263,196.226953 C281.48342,195.71338 281.794175,193.855956 281.886998,193 L282,193 C282,193 281.782068,195.995845 280.728728,196.66777 C279.675388,197.339696 274.457118,198.03302 270.510121,197.998782 C269.372029,197.998782 268.980558,197.570804 269.000737,196.924557 C269.174276,197.314017 269.610141,197.553685 270.457655,197.557964 Z" id="Path" fill="#000000" fill-rule="nonzero" opacity="0.2"></path>
            <circle id="Oval" fill="#3D7BA4" fill-rule="nonzero" opacity="0.1" cx="51.5" cy="24.5" r="8.5"></circle>
            <circle id="Oval" fill="#3D7BA4" fill-rule="nonzero" opacity="0.1" cx="202.5" cy="10.5" r="8.5"></circle>
            <circle id="Oval" fill="#3D7BA4" fill-rule="nonzero" opacity="0.1" cx="340.5" cy="44.5" r="8.5"></circle>
            <circle id="Oval" fill="#3D7BA4" fill-rule="nonzero" opacity="0.1" cx="14.5" cy="103.5" r="14.5"></circle>
            <circle id="Oval" fill="#3D7BA4" fill-rule="nonzero" opacity="0.1" cx="28.5" cy="175.5" r="14.5"></circle>
            <circle id="Oval" fill="#3D7BA4" fill-rule="nonzero" opacity="0.1" cx="301.5" cy="112.5" r="14.5"></circle>
            <path d="M180.605055,139.936774 C180.095198,139.984938 179.577375,139.960856 179.071501,140.04113 C178.222217,140.211448 177.411782,140.539459 176.681546,141.008426 C173.056781,143.087512 169.635162,145.945252 168.133474,149.862603 C168.009924,150.103404 167.970627,150.379169 168.021942,150.64527 C168.11097,150.864638 168.256781,151.055918 168.444168,151.199158 L169.854241,152.491563 C170.032487,152.677997 170.244846,152.82792 170.479613,152.933067 C170.860089,153.033281 171.261181,153.020739 171.634758,152.896944 C175.510468,152.001894 179.629157,150.970378 182.349722,148.04842 C183.640298,146.6637 184.831292,144.757203 186.731307,144.705025 C187.527958,144.705025 188.272828,145.014078 189.057529,145.106393 C189.842231,145.198707 190.786264,144.861558 190.973477,144.090932 C191.034226,143.707672 190.990159,143.314975 190.846012,142.955061 L189.674934,139.025669 C189.356274,137.950003 186.141784,137.893811 185.070288,138.086468 C183.437152,138.371439 182.337773,139.776227 180.605055,139.936774 Z" id="Path" fill="#65617D" fill-rule="nonzero"></path>
            <path d="M194.410481,161.663795 C194.35554,163.004272 194.461498,164.360755 194.245657,165.689227 C194.05582,166.73678 193.727081,167.753127 193.268485,168.710303 C192.562648,170.249456 191.665778,171.689757 190.599904,172.995828 C189.607034,174.196255 188.417946,175.324656 186.946301,175.796824 C185.474657,176.268993 183.665516,175.928871 182.74721,174.664422 C181.997652,173.636056 181.962333,172.263567 182.017274,170.97911 C182.150703,167.821986 182.637327,164.620847 184.026559,161.795842 C184.623066,160.595415 185.380472,159.451007 185.988752,158.238576 C187.260252,155.72168 187.986263,152.736618 190.179994,151 C191.556277,151.648402 193.028077,152.060754 194.536062,152.220434 C195.120795,152.284457 196.792583,152.324471 196.988802,153.088743 C197.122231,153.604927 196.023403,155.049441 195.811487,155.557622 C194.973864,157.485693 194.498634,159.556948 194.410481,161.663795 Z" id="Path" fill="#65617D" fill-rule="nonzero"></path>
            <path d="M179.270521,104.265675 C179.747511,105.498507 180.351698,106.707166 180.462995,108.020575 C180.542493,108.826348 180.462995,109.63212 180.462995,110.437892 C180.529921,111.541874 180.711112,112.635673 181.003583,113.701271 L183.21761,122.887077 C183.547528,124.260919 183.877445,125.671021 183.706524,127.073065 C183.591252,128.007761 183.257359,128.914255 183.261334,129.85298 C183.303605,130.564809 183.41545,131.270631 183.595227,131.960075 C184.014414,134.090059 183.899611,136.292606 183.261334,138.365966 C183.195945,138.522179 183.172626,138.693182 183.19376,138.861516 C183.249409,139.123392 183.499829,139.284547 183.726399,139.409442 C186.110027,140.731348 188.708435,141.608785 191.397981,142 C193.825469,136.146777 195.521337,130.008867 196.446121,123.729109 C197.010558,119.925863 197.284827,116.074271 198.008262,112.299227 C198.024766,112.081159 198.116194,111.875862 198.266631,111.719071 C198.536925,111.489426 198.946341,111.634465 199.264334,111.787561 C203.32646,113.767447 207.23443,116.057048 210.954554,118.636627 C213.602841,115.16074 214.59159,110.672381 213.65352,106.384857 C213.186296,104.558874 212.519694,102.791374 211.666063,101.115105 C210.756601,99.0760925 209.623217,97.1475153 208.287387,95.3659184 C205.338001,91.6190765 201.013296,89.2259322 196.561393,87.6023007 C193.854477,86.6112006 191.068063,85.8779476 188.285624,85.1285792 C186.727458,84.7055487 184.11594,83.3276778 182.601498,84.3993552 C181.011533,85.51535 179.954206,88.2831785 179.30232,90.0397624 C178.497633,92.2185042 178.059602,94.5187342 178.006499,96.8445109 C177.94104,99.3785035 178.370621,101.900603 179.270521,104.265675 Z" id="Path" fill="#3F3D56" fill-rule="nonzero"></path>
            <path d="M212,114.947857 C211.145194,115.872404 211.865031,117.348434 211.701431,118.597383 C211.594447,119.161335 211.391115,119.703032 211.100204,120.19912 L207.186094,127.818519 C206.531855,128.96194 206.041783,130.190298 205.730061,131.468046 C205.194274,134.217355 206.294479,137.307288 204.887526,139.73625 C204.433538,140.518871 203.730061,141.192005 203.541922,142.076002 C203.402863,142.720751 203.541922,143.393886 203.472393,144.046746 C203.378323,144.813146 202.965235,145.502501 202.736196,146.240517 C202.557539,146.949665 202.430423,147.670608 202.355828,148.397792 C201.859625,151.498751 200.221752,154.307308 197.758691,156.280769 C196.347345,157.466668 194.535102,158.078145 192.687117,157.991991 C190.862986,157.8379 189.051125,156.609226 188.678937,154.833123 C188.552147,154.228924 188.576687,153.555789 188.196319,153.065131 C187.656442,152.363611 186.519427,152.335225 186,151.617485 L188.01227,148.332912 C188.638037,147.315099 189.276074,146.252682 189.378323,145.064558 C189.501022,143.608803 188.793456,142.157102 189.047035,140.717567 C189.263804,139.480783 190.159509,138.450806 190.429448,137.226187 C190.764826,135.705551 190.09407,134.168695 189.730061,132.652114 C188.838446,128.917432 189.836401,125.024604 190.830266,121.298033 C192.151329,116.367117 193.505112,111.359156 196.179959,107 C201.517382,109.850685 206.425358,112.58783 212,114.947857 Z" id="Path" fill="#3F3D56" fill-rule="nonzero"></path>
            <path d="M211.712759,39.0406798 C212.025786,39.8881526 211.857233,40.8275682 211.797035,41.7270086 C211.656575,43.7257652 212.08197,45.7245217 211.985654,47.7512608 C211.889338,49.7779999 211.263284,51.7127963 210.829862,53.6835702 C209.59782,59.3080711 209.894795,65.1684252 208.779135,70.8169112 C207.402619,77.812559 203.883072,84.3285053 203.188794,91.4280885 C202.96807,93.6826859 202.996162,96.0971838 201.756094,98 C194.387151,94.7689875 187.421443,90.6933339 181,85.8555553 C182.412634,75.4180487 183.809216,64.9285744 183.620597,54.399125 C183.529176,53.1297896 183.618348,51.8539539 183.885466,50.6094826 C184.220275,49.5641542 184.701228,48.5710106 185.314153,47.659318 C186.867249,45.1448823 188.576857,42.7303844 190.282453,40.319884 C191.374034,38.776844 192.553905,37.1578512 194.295619,36.4343013 C196.037333,35.7107515 198.1001,36.03455 199.998328,36.3783361 C202.283157,36.7940775 204.56531,37.2098189 206.844789,37.6255602 C208.269463,37.8853986 211.102758,37.389707 211.712759,39.0406798 Z" id="Path" fill="#3D7BA4" fill-rule="nonzero"></path>
            <path d="M155.91661,78.9698018 C155.021357,78.0424127 154.044973,77.2029952 153,76.4623326 C154.362364,74.74565 154.093729,72.2620236 154.427604,70.0645109 C154.701106,68.6370973 155.116504,67.2428168 155.667163,65.9039399 C155.805319,65.5264287 156.001038,65.1091795 156.380965,65.0098344 C156.614235,64.979948 156.850923,65.0185007 157.064066,65.1211009 C158.21536,65.5423239 160.617726,65.5184811 161.511897,66.2893988 C162.590275,67.2272161 161.604,69.1902744 161.19721,70.3625461 C160.909387,71.1493589 156.488419,79.5658722 155.91661,78.9698018 Z" id="Path" fill="#BE6F72" fill-rule="nonzero"></path>
            <path d="M159.828544,153.407372 C160.432056,154.387099 160.826352,155.481732 160.98651,156.622085 C161.082673,157.763308 160.665966,159.013027 159.696319,159.615786 C158.726673,160.218545 157.336312,160.017625 156.182352,159.65597 C151.232028,158.041335 147.202447,154.387416 145.103541,149.609992 C144.738921,148.76613 144.422384,147.870029 143.777289,147.21905 C143.298111,146.796622 142.766065,146.438648 142.194601,146.154176 C140.619927,145.262093 139.101349,144.088723 138.372111,142.425109 C137.642872,140.761495 137.97143,138.539325 139.481995,137.550801 C140.433002,136.999787 141.564855,136.855 142.623329,137.148962 C143.667723,137.446433 144.667643,137.882967 145.596377,138.446902 C147.151017,139.294782 149.050242,140.02613 150.404542,141.155297 C151.606583,142.14784 152.684413,143.489983 153.710155,144.659334 C154.88488,146.004721 155.985708,147.413241 157.007754,148.878645 C157.336312,149.308613 160.105013,153.017588 159.828544,153.407372 Z" id="Path" fill="#65617D" fill-rule="nonzero"></path>
            <path d="M129.750401,144.875613 C129.617494,146.942346 129.270183,148.987641 128.714647,150.975117 C128.398058,152.092333 127.979847,153.25473 127.100433,153.965312 C126.356531,154.472106 125.513601,154.796394 124.634165,154.914123 C124.327399,155.00153 124.006927,155.022491 123.692215,154.975735 C123.152841,154.85662 122.769807,154.367838 122.437584,153.903701 C121.132143,152.088225 119.861878,150.170065 119.310778,147.968493 C118.529077,144.777035 119.310778,141.355562 120.66703,138.373583 C121.154542,137.171451 121.865442,136.08365 122.758082,135.17391 C123.860978,134.221424 125.186095,133.596052 126.596236,133.362542 C128.038475,133.058594 129.809029,132.409623 129.914558,134.25385 C130.068915,137.794598 130.01409,141.342 129.750401,144.875613 L129.750401,144.875613 Z" id="Path" fill="#65617D" fill-rule="nonzero"></path>
            <path d="M152.073985,70 C154.842934,71.4406962 157.916868,73.2728421 158.494735,76.3519772 C158.851889,78.2325498 158.165672,80.1575137 158.278035,82.0703709 C158.378359,83.7532009 159.080629,85.3795331 158.992343,87.0583275 C158.898603,87.8516155 158.764663,88.6395753 158.591046,89.4191323 C158.354281,90.9082553 158.494735,92.4256272 158.434541,93.9308924 C158.302113,97.3207659 157.174468,100.581501 156.628705,103.926984 C156.242412,106.315784 156.1521,108.74353 156.359836,111.154678 C156.492264,112.712406 156.761133,114.262062 156.761133,115.827861 C156.761165,116.955502 156.668552,118.081218 156.484238,119.193521 C155.946353,122.68814 154.862874,126.075371 153.273863,129.229968 C151.343625,133.051646 151.616507,137.983105 151.821168,142.264838 C151.910586,142.854931 151.835574,143.4584 151.604468,144.008202 C151.098834,144.932346 149.838762,145.065519 148.79539,144.976737 C144.926145,144.621193 141.337773,142.79381 138.762968,139.867713 C138.387381,139.499831 138.132549,139.025315 138.032608,138.507729 C137.944323,137.644118 138.634553,136.933859 139.132161,136.219564 C140.825634,133.798226 140.396246,130.517312 140.596895,127.543102 C140.743366,125.379274 141.257795,123.256738 142.11781,121.267801 C142.615418,120.117665 143.237428,118.983672 143.349791,117.732647 C143.454129,116.566369 143.100987,115.412198 142.751859,114.298382 L141.547968,110.456526 C139.681938,104.487927 137.803869,98.4830082 134.978739,92.9098948 C133.125235,94.1226373 131.798557,95.9976571 131.266743,98.1561276 C130.215345,101.957629 131.712182,106.203042 130.279553,109.859262 C130.042361,110.366206 129.845119,110.891097 129.689646,111.429096 C129.605303,111.893472 129.572997,112.365893 129.593335,112.837508 C129.630522,116.771144 129.86894,120.700251 130.307643,124.609247 C130.329279,125.201291 130.494602,125.779026 130.7892,126.292077 C131.025965,126.6351 131.37108,126.889341 131.623897,127.216221 C132.326167,128.132294 132.193739,129.415604 132.025194,130.557668 L131.2226,135.957252 C131.208336,136.231029 131.117963,136.495287 130.961757,136.719974 C130.772509,136.904295 130.536504,137.032734 130.279553,137.091246 C127.729567,137.88755 125.041438,138.135051 122.390056,137.817647 C121.607527,137.724829 120.897232,137.19617 120.243118,136.752258 C120.174897,135.945146 121.174127,135.408416 121.210243,134.605338 C121.171475,134.129523 120.951519,133.687135 120.596259,133.370456 C119.103435,131.675519 117.321677,129.875658 117.337729,127.611707 C117.337729,127.018479 117.478182,126.425251 117.458118,125.832023 C117.405949,124.310616 116.362577,123.007129 115.997397,121.542219 C115.547945,119.730251 116.145877,117.849678 116.374616,115.997354 C116.687628,113.503376 116.318435,110.977113 115.973319,108.487171 L114.628975,99.3506544 C114.472705,97.9325494 114.193408,96.5309045 113.794277,95.1617394 C113.288201,93.8136767 112.694333,92.5006185 112.016532,91.2311004 C110.732382,88.607984 109.676971,85.879943 108.625574,83.1599731 C108.29146,82.4209561 108.081283,81.6314228 108.003563,80.8233817 C107.943369,79.4391834 108.653664,78.1316608 109.536518,77.066272 C111.190091,75.0864414 113.446974,73.7105025 115.957267,73.1517752 C116.376804,73.0340963 116.817805,73.0161359 117.24543,73.0993129 C117.60505,73.2193101 117.942622,73.3979082 118.24466,73.6279717 C124.533262,77.7642364 132.385019,78.7006411 139.461225,76.1582701 C139.862522,76.464973 140.604921,76.3317994 141.066412,76.1138789 C142.354575,75.5206511 143.405973,74.531938 144.53763,73.6925407 C146.644439,72.0863864 149.485621,70.5609433 152.073985,70 Z" id="Path" fill="#3F3D56" fill-rule="nonzero"></path>
            <path d="M69.1505451,172.613449 C69.3596716,173.233878 69.6744195,173.811141 70.0800965,174.318292 C71.5059337,176.22966 73.4950162,177.756324 74.4127512,179.987603 C74.6057513,180.465445 74.7475473,180.967584 74.9247922,181.453525 C75.4638347,182.920166 76.3426224,184.229537 77.4849973,185.268162 C78.3563878,186.011823 79.3032274,186.656722 80.3091005,187.191678 C82.0500399,188.16761 83.9327754,189.050403 85.9100415,188.997759 C86.307606,188.988974 86.7033758,188.940147 87.0916746,188.851977 C87.7071168,188.720794 88.3003771,188.497013 88.8523079,188.187857 C90.1245329,187.467045 91.2155742,186.057816 90.9634924,184.587844 C90.9126166,184.30762 90.8265566,184.035376 90.7074719,183.777943 C90.4985607,183.368337 90.2574957,182.976937 89.9866757,182.607635 C89.3210224,181.66005 88.6356752,180.688168 87.6627972,180.080742 C86.5678172,179.392326 85.1892453,179.222246 84.204551,178.371849 C83.8160199,178.010344 83.4803766,177.592976 83.2080404,177.1327 C82.3155512,175.722345 81.6505222,174.173025 81.2386519,172.544607 C80.9393048,171.329755 80.7384272,169.997467 79.875835,169.106575 C79.0132428,168.215683 77.8276709,168.013208 76.677548,167.810732 C76.2888782,167.728325 75.8927411,167.688955 75.4959149,167.693296 C74.9326698,167.713544 74.3497308,167.879574 73.8219347,167.608257 C73.2941385,167.33694 73.1168936,166.952236 72.4788117,167.00488 C71.9709235,167.075292 71.4921746,167.289844 71.0963009,167.624455 C69.5995656,168.762367 68.6069938,170.787121 69.1505451,172.613449 Z" id="Path" fill="#3F3D56" fill-rule="nonzero"></path>
            <path d="M83.2811799,174.531032 C83.5385704,175.928151 83.9345558,177.415938 84.9720376,178.326744 C85.6333333,178.92021 86.5559793,179.291127 86.8846472,180.127749 C87.2133151,180.964372 86.7896107,182.015302 86.2431508,182.781863 C85.5454142,183.751161 84.6806866,184.577076 83.6930047,185.217547 C82.8535156,185.757437 81.8516725,186.169566 80.8894279,185.930531 C80.0974571,185.73683 79.4718001,185.143364 78.8817818,184.570504 C77.5275117,183.264054 76.1415627,181.908148 75.3812707,180.156598 C74.5892998,178.310259 74.5497013,176.171307 73.686453,174.353816 C73.1835515,173.294644 72.4074201,172.367353 72.1025113,171.229876 C71.9658296,170.818713 71.9658296,170.37168 72.1025113,169.960517 C72.4036498,169.360506 73.0044476,168.98884 73.6547742,169.000256 C74.2923587,169.022408 74.9211312,169.16194 75.5119458,169.412385 C77.299669,170.075641 79.1295845,170.608576 80.9884243,171.007326 C81.728917,171.151571 82.1763805,171.14745 82.572366,171.893404 C82.9381946,172.729203 83.1773058,173.61898 83.2811799,174.531032 Z" id="Path" fill="#FBBEBE" fill-rule="nonzero"></path>
            <path d="M88.7023554,186.277252 C88.4064854,186.727326 88.1967644,187.227883 88.0837493,187.753727 C87.9895614,188.162596 87.9746614,188.585579 88.0398482,189 C88.6634514,188.871425 89.2645787,188.652092 89.8238284,188.349081 C91.1129238,187.642595 92.2184328,186.261376 91.9630083,184.820621 C91.9114579,184.545966 91.8242567,184.279133 91.7035928,184.026817 C91.3159697,183.940446 90.9114347,184.065978 90.6419849,184.356245 C89.8988127,184.892243 89.2443825,185.54039 88.7023554,186.277252 L88.7023554,186.277252 Z" id="Path" fill="#FBBEBE" fill-rule="nonzero"></path>
            <path d="M74.1845489,155.605247 C74.0092755,155.990016 73.9571279,156.421279 74.0354919,156.837955 C74.2208061,157.659761 75.0466625,158.132299 75.7919475,158.506221 L82.8781985,162.039985 C83.3697914,162.271966 83.8485645,162.531223 84.3123687,162.816592 C85.5209391,163.572653 86.4716811,164.641 87.5029945,165.618949 C88.5343079,166.596898 89.6824498,167.513211 91.0481343,167.85837 C92.4114662,168.163088 93.8363254,167.972703 95.0767022,167.320087 C95.7451282,166.980432 96.365721,166.550609 96.9217863,166.042179 C97.4031306,165.611489 97.8478613,165.140007 98.2512137,164.632782 C98.5976871,164.259643 98.8457832,163.80302 98.9723274,163.305566 C99.1052701,162.553614 98.7386705,161.813989 98.3116423,161.193525 C98.0657459,160.835827 97.7965687,160.495381 97.5059287,160.174486 C94.8188739,157.146132 90.4156491,155.576483 86.6287953,154.960129 C85.1221109,154.713587 83.6919692,154.138323 82.2416848,153.669894 C80.7914003,153.201465 79.256516,152.848088 77.7498316,153.065867 C76.2431472,153.283645 74.7606342,154.167087 74.1845489,155.605247 Z" id="Path" fill="#3F3D56" fill-rule="nonzero"></path>
            <path d="M74.1845489,155.605247 C74.0092755,155.990016 73.9571279,156.421279 74.0354919,156.837955 C74.2208061,157.659761 75.0466625,158.132299 75.7919475,158.506221 L82.8781985,162.039985 C83.3697914,162.271966 83.8485645,162.531223 84.3123687,162.816592 C85.5209391,163.572653 86.4716811,164.641 87.5029945,165.618949 C88.5343079,166.596898 89.6824498,167.513211 91.0481343,167.85837 C92.4114662,168.163088 93.8363254,167.972703 95.0767022,167.320087 C95.7451282,166.980432 96.365721,166.550609 96.9217863,166.042179 C97.4031306,165.611489 97.8478613,165.140007 98.2512137,164.632782 C98.5976871,164.259643 98.8457832,163.80302 98.9723274,163.305566 C99.1052701,162.553614 98.7386705,161.813989 98.3116423,161.193525 C98.0657459,160.835827 97.7965687,160.495381 97.5059287,160.174486 C94.8188739,157.146132 90.4156491,155.576483 86.6287953,154.960129 C85.1221109,154.713587 83.6919692,154.138323 82.2416848,153.669894 C80.7914003,153.201465 79.256516,152.848088 77.7498316,153.065867 C76.2431472,153.283645 74.7606342,154.167087 74.1845489,155.605247 Z" id="Path" fill="#000000" fill-rule="nonzero" opacity="0.1"></path>
            <path d="M91.3673595,158.160089 C91.8991713,158.751341 92.3367615,159.419427 92.6650333,160.141298 C92.9603812,160.614139 93.0656335,161.179499 92.9599592,161.725487 C92.8053401,162.093008 92.5574659,162.414783 92.2403401,162.659652 L91.5521797,163.290214 C91.3443324,163.504067 91.1025866,163.682875 90.836493,163.819574 C90.4600471,163.959308 90.0580871,164.018989 89.6567895,163.99473 C88.7326885,163.99473 87.7378052,163.99473 86.9867274,163.445908 C85.9603854,162.714145 85.7755652,161.200019 86.2435142,160.036205 C86.7114632,158.87239 87.6906171,157.992718 88.6776356,157.206462 C89.479834,156.564223 90.8050342,157.572344 91.3673595,158.160089 Z" id="Path" fill="#FBBEBE" fill-rule="nonzero"></path>
            <path d="M96.0697676,161.991597 C95.9324779,162.68875 95.9986865,163.41023 96.2606293,164.071429 C96.4472496,164.701681 96.6296286,165.331933 96.8120076,165.97479 C96.8120076,165.97479 96.8120076,165.97479 96.8120076,166 C97.3187782,165.559599 97.7870012,165.077485 98.2116601,164.558824 C98.5764354,164.177271 98.8376369,163.710351 98.9708656,163.201681 C99.1108309,162.432773 98.7248661,161.676471 98.2752807,161.042017 C98.0163952,160.676253 97.7329991,160.32813 97.4270064,160 C97.227662,160.256303 97.0537657,160.508403 96.9095591,160.672269 C96.5384224,161.048127 96.2521671,161.497839 96.0697676,161.991597 Z" id="Path" fill="#FBBEBE" fill-rule="nonzero"></path>
            <path d="M77.7529009,132.035766 C76.9195326,135.530769 77.2738148,139.186462 77.7166675,142.753775 C78.0548459,145.469433 78.4332836,148.281505 77.6280969,150.896731 C77.3301779,151.872922 76.8591436,152.865181 77.0403106,153.87351 C77.382515,155.773667 79.6772971,156.504805 81.5775377,156.86234 C82.1257439,157.001442 82.6954173,157.035522 83.256352,156.962771 C83.8190718,156.809868 84.3413071,156.535601 84.7862067,156.159322 C87.4872711,154.199998 89.5386495,151.478658 90.6761474,148.345781 C91.3967895,146.248779 91.6262677,144.019208 91.8476941,141.81374 C92.2180799,138.101806 92.5924918,134.345681 92.0489907,130.65785 C91.8879534,129.573194 91.6463974,128.50059 91.5457491,127.407899 C91.4190253,125.507403 91.5244742,123.598581 91.8597719,121.723497 C92.5530033,117.078377 93.6028348,112.493262 95,108.008623 C91.1663433,108.516548 87.2695138,107.81416 83.8562161,106 C84.5164692,106.353518 83.7595937,111.989712 83.679075,112.78111 C83.4348053,115.140445 83.0081273,117.477408 82.4028541,119.771116 C81.2796186,124.057517 78.7714621,127.777486 77.7529009,132.035766 Z" id="Path" fill="#3F3D56" fill-rule="nonzero"></path>
            <path d="M77.7529009,132.035766 C76.9195326,135.530769 77.2738148,139.186462 77.7166675,142.753775 C78.0548459,145.469433 78.4332836,148.281505 77.6280969,150.896731 C77.3301779,151.872922 76.8591436,152.865181 77.0403106,153.87351 C77.382515,155.773667 79.6772971,156.504805 81.5775377,156.86234 C82.1257439,157.001442 82.6954173,157.035522 83.256352,156.962771 C83.8190718,156.809868 84.3413071,156.535601 84.7862067,156.159322 C87.4872711,154.199998 89.5386495,151.478658 90.6761474,148.345781 C91.3967895,146.248779 91.6262677,144.019208 91.8476941,141.81374 C92.2180799,138.101806 92.5924918,134.345681 92.0489907,130.65785 C91.8879534,129.573194 91.6463974,128.50059 91.5457491,127.407899 C91.4190253,125.507403 91.5244742,123.598581 91.8597719,121.723497 C92.5530033,117.078377 93.6028348,112.493262 95,108.008623 C91.1663433,108.516548 87.2695138,107.81416 83.8562161,106 C84.5164692,106.353518 83.7595937,111.989712 83.679075,112.78111 C83.4348053,115.140445 83.0081273,117.477408 82.4028541,119.771116 C81.2796186,124.057517 78.7714621,127.777486 77.7529009,132.035766 Z" id="Path" fill="#000000" fill-rule="nonzero" opacity="0.1"></path>
            <path d="M97.8435464,111.614915 C99.4677499,116.240066 99.1104251,121.292216 98.4079571,126.136853 C97.7054891,130.98149 96.6700593,135.826127 96.9745975,140.706679 C97.0923522,142.622186 97.4090719,144.589572 96.8406007,146.421275 C96.5246776,147.314935 96.1064705,148.170427 95.5940245,148.971294 L82.6369407,170.991645 C81.9658184,172.152587 80.7444355,172.902817 79.3885337,172.986965 C78.0039001,173.08274 76.6436297,172.635788 75.3523879,172.136958 C74.4944061,171.857513 73.697063,171.423069 73.0013532,170.855963 C72.3013557,170.282956 71.9312442,169.409376 72.0105891,168.517448 C72.5912418,164.694415 73.4642512,160.779597 74.1098722,156.944593 C74.5489897,154.342496 75.5066401,151.851238 76.9278653,149.613787 C77.930811,148.017531 79.1652057,146.584892 80.030094,144.924785 C82.5151255,140.167943 81.6542976,134.365552 79.7377374,129.36129 C77.8211772,124.357028 74.9666395,119.711923 73.4439487,114.595923 C72.9925311,113.172293 72.734486,111.696286 72.6765125,110.206219 C72.6386082,107.098514 73.85989,104.103589 76.0710979,101.881744 C76.3906149,101.526112 76.7933532,101.252196 77.244585,101.083616 C77.772074,100.963355 78.321616,100.97295 78.8444255,101.111551 C86.0599497,102.488321 95.4600277,104.782939 97.8435464,111.614915 Z" id="Path" fill="#3F3D56" fill-rule="nonzero"></path>
            <path d="M212.952344,42.415416 C213.181368,44.1589019 212.557475,45.9222906 211.669019,47.4309233 C208.30868,53.0833203 200.561343,55.5831129 194.571175,52.9519618 C192.103241,51.8652686 190.014382,50.074016 187.968959,48.3066468 C187.281886,47.7095626 186.567173,47.0846145 186.219687,46.2407355 C185.60764,44.748025 186.346046,42.9687141 187.550397,41.9019236 C188.754749,40.8351332 190.314483,40.3096991 191.866319,39.8360123 C196.987775,38.2278655 211.732198,33.1566304 212.952344,42.415416 Z" id="Path" fill="#FBBEBE" fill-rule="nonzero"></path>
            <path d="M210.287343,36.0383671 C215.017695,39.8762608 221.902939,43.5323594 227.262135,46.3764406 C229.084582,47.3460137 231.107298,48.4367835 231.76418,50.4163286 C232.116653,51.4747793 232.000497,52.6261474 231.884341,53.7411564 C231.66004,55.886337 231.427728,58.0638366 230.606626,60.0555014 C229.64133,62.3865168 227.935039,64.3095035 226.565199,66.4264048 C224.161973,70.135022 222.75208,74.5061809 219.784094,77.78253 C221.786783,84.492784 223.977725,91.1949583 224.690683,98.1597252 C224.730085,98.3512711 224.709077,98.5504517 224.630602,98.7293494 C224.548638,98.8469657 224.441965,98.9449022 224.318182,99.0161815 L219.335492,102.31273 C218.792176,102.63251 218.30608,103.042218 217.897561,103.524697 C217.016378,104.680104 217.132534,106.304139 216.587803,107.649422 C215.984366,108.976271 214.870564,109.997543 213.503662,110.477344 C212.142069,110.950611 210.69159,111.105336 209.261966,110.929811 C207.442028,110.814228 205.689507,110.191925 204.199168,109.132061 C202.929464,108.162488 202.024248,106.801046 201.151076,105.459803 C200.504139,104.545022 199.966377,103.556508 199.548925,102.514724 C199.016209,101.028046 198.984166,99.4080506 199.004193,97.8244145 C199.01742,94.8109289 199.302983,91.8049332 199.857339,88.8437434 C200.089651,87.668136 200.378038,86.5086882 200.562285,85.325001 C200.93078,82.941467 200.858683,80.5094545 201.131049,78.1138009 C201.503171,75.41925 202.099405,72.7610548 202.913442,70.1673411 C203.358864,68.5608094 203.706643,66.9283523 203.95484,65.2790766 C204.42347,62.378437 205.356723,59.5787946 206.289976,56.7953118 L207.892127,52.024204 C208.232584,50.9940326 208.577047,49.967901 208.98159,48.9619689 C209.734601,47.083421 210.703902,45.2533517 210.960247,43.2495673 C211.244628,41.0639878 208.905488,38.4703797 209.694547,36.4181166 C209.758633,36.1918829 210.107101,35.8929312 210.287343,36.0383671 Z" id="Path" fill="#3F3D56" fill-rule="nonzero"></path>
            <path d="M230.843319,50 C231.969725,50.5023887 232.591892,51.7000834 232.99447,52.857587 C233.901966,55.4662421 234.120321,58.2607512 233.628836,60.9761887 C233.469973,61.6588238 233.361251,62.3519173 233.30352,63.0500493 C233.311955,63.8592609 233.392236,64.6661792 233.543441,65.4615151 C233.950085,68.5361341 233.543441,71.6589823 233.677633,74.761735 C233.815893,78.2503223 234.584451,81.9358459 233.104264,85.1069235 C232.120184,87.212937 230.25775,88.7803898 228.419716,90.2031546 C221.576714,95.4743187 214.02645,99.7810402 205.985119,103 C207.371778,101.352165 207.396177,98.8723743 206.473093,96.9311443 C205.550009,94.9899143 203.833968,93.5309775 202,92.3975885 C204.334332,91.8848146 206.595027,91.0869189 208.729972,90.0222947 C212.99161,87.8841283 216.643281,84.7532418 220.250221,81.6545082 C220.782305,81.2763939 221.196488,80.7584271 221.445756,80.1593994 C221.811737,78.9536665 220.803258,77.8082202 220.103829,76.7511944 C217.985209,73.5359066 218.477249,69.3359369 219.363735,65.6142413 C220.351882,61.5348449 221.803604,57.471525 224.450862,54.1919314 C226.10184,52.1421855 228.257058,50.5666945 230.843319,50 Z" id="Path" fill="#3F3D56" fill-rule="nonzero"></path>
            <path d="M205.408973,102.985962 C205.056273,103.576563 204.59832,104.093532 204.05912,104.509769 C202.881922,105.316017 201.265238,105.009643 199.9507,104.437207 C198.729071,103.9049 197.601947,103.167913 196.615307,102.256308 C196.191153,101.793023 195.690255,101.410836 195.135962,101.127562 C194.107876,100.724439 192.671695,101.026781 192.094868,100.055254 C192.027749,99.953223 191.994699,99.8315587 192.000692,99.7085672 C192.036008,99.3578497 192.483343,99.2611 192.828655,99.2409438 C194.430656,99.1321365 195.98556,98.6392481 197.368713,97.8017925 C196.926914,97.4737878 196.548909,97.0635742 196.2543,96.5924217 C196.132117,96.4279888 196.065936,96.2268533 196.065948,96.0199862 C196.113892,95.7951833 196.234155,95.5935276 196.407335,95.4475506 C198.987175,92.946323 202.783251,92.2963525 206.013268,93.8028063 C206.321538,93.9309416 206.592013,94.139342 206.798066,94.4074917 C206.943302,94.6547311 207.040576,94.9285169 207.084518,95.213739 C207.339577,96.3424851 208.261716,98.0356042 207.928176,99.1764441 C207.559321,100.486596 206.166304,101.877372 205.408973,102.985962 Z" id="Path" fill="#FBBEBE" fill-rule="nonzero"></path>
            <path d="M178.583417,97.8938094 C183.588715,92.1633927 185.825809,84.6225314 187.901961,77.3289113 L189.386652,72.1448184 L192.967612,59.6591299 C193.494698,57.816783 194.021783,55.9744361 194.371832,54.0961993 C194.971341,50.8541473 195.027671,47.5403156 194.991459,44.2464227 C194.940335,42.880948 194.624794,41.5379504 194.062018,40.290561 C193.711969,39.429204 193.54298,38.5120183 193.257308,37.622747 C192.893852,36.3829666 192.350346,35.2021865 191.643864,34.1175026 C191.447183,33.7950197 191.201547,33.5044931 190.915601,33.2561456 C190.420463,32.9226319 189.859574,32.6970099 189.269969,32.5941768 C187.990835,32.2172252 186.665279,32.017275 185.330912,32 C183.995093,32.0478532 182.619039,32.506446 181.757999,33.5113625 C181.10216,34.2810009 180.800394,35.2779419 180.281356,36.1432866 C180.039748,36.4975959 179.820709,36.8665179 179.625517,37.2478972 C179.404299,37.8272871 179.281921,38.4391279 179.263397,39.058342 C179.054172,41.5706332 178.875795,44.0855829 178.728265,46.6031911 C178.659864,47.7476793 178.599511,48.9001431 178.64377,50.048619 C178.679982,50.9418781 178.776547,51.8311495 178.873113,52.7204208 L179.826694,61.429697 C180.04799,63.4754198 179.891071,65.3895465 180.076154,67.4392571 C180.526792,72.388072 179.452504,77.3368869 178.350051,82.1939832 C177.822966,84.5028984 177.279786,86.8437158 176.153192,88.933304 C175.159375,90.7836265 173.670661,92.6618632 174.064969,94.7235371 C174.20177,95.4413346 174.567913,96.1112789 174.624243,96.8370519 C174.596698,97.286514 174.641518,97.7374565 174.75702,98.1729528 C175.093932,98.7806414 175.788359,99.1030072 176.475076,98.9705056 C177.27178,98.8318669 178.007097,98.4563517 178.583417,97.8938094 L178.583417,97.8938094 Z" id="Path" fill="#3F3D56" fill-rule="nonzero"></path>
            <path d="M179.341673,74.7269547 C179.49551,75.8972484 179.378109,77.0838527 179.434785,78.2623018 C179.561835,79.7800649 179.832963,81.2820761 180.244454,82.7477479 C180.649288,84.3788192 181.167476,86.2056191 182.59654,87.1108637 C182.954962,87.2984331 183.297519,87.515276 183.620771,87.7592146 C183.94676,88.0181788 184.079049,88.4536737 183.952735,88.8520323 L182.839441,88.6644591 C183.184132,88.9298902 183.347403,89.3707397 183.259516,89.798709 C183.171628,90.2266783 182.848119,90.5661088 182.427168,90.6720206 C182.006217,90.7779323 181.562243,90.6316017 181.284877,90.2955305 C181.327091,90.6629271 181.292618,91.0351547 181.183669,91.3883483 C181.068184,91.7433376 180.744674,91.9877277 180.374001,92 C180.164123,91.967168 179.965389,91.8831788 179.795088,91.7553393 L176.888378,89.9407725 C176.017431,89.4685289 175.293079,88.7629185 174.795386,87.9019333 L173.524207,85.9731915 C173.244004,85.6014408 173.021505,85.188966 172.864327,84.749888 C172.390671,83.1188166 173.714479,81.3083275 173.026261,79.7710428 C172.819539,79.3921836 172.576854,79.0343942 172.301607,78.702691 C170.832059,76.6638519 170.925171,73.8910306 171.087105,71.3628701 C171.139733,70.5106353 171.29357,69.4993711 172.058707,69.1283024 C172.665958,68.8306319 173.39466,69.0956809 173.957379,69.4667497 C174.520099,69.8378184 175.018045,70.3271398 175.657683,70.5473344 C176.062517,70.6859755 176.507834,70.7022862 176.912668,70.8490826 C177.479436,71.0488889 178.005721,71.8277254 178.386265,72.2885031 C178.924351,72.9956245 179.255293,73.8402763 179.341673,74.7269547 L179.341673,74.7269547 Z" id="Path" fill="#FBBEBE" fill-rule="nonzero"></path>
            <path d="M143.347236,38.0860752 C142.999749,38.8619862 142.511967,39.5709666 141.907068,40.1793252 C141.290689,40.7958009 140.410091,41.0911561 139.534066,40.9752378 C138.625778,40.800137 137.958883,40.071877 137.357449,39.3834127 C135.786358,37.5886299 134.194809,35.7699697 133.139232,33.6448832 C131.527227,30.4094986 131.269469,26.7164644 131.036261,23.1308784 C130.978981,22.2076198 130.929885,21.2286474 131.384028,20.4207961 C131.960913,19.3900894 133.184237,18.9045827 134.313459,18.4946878 L140.55282,16.226337 C140.935223,16.0501788 141.358456,15.9747068 141.780235,16.007461 C142.758076,16.1666436 143.118118,17.3127576 143.384058,18.2399957 C143.860047,19.9062366 144.650892,21.4716874 145.716147,22.8562885 C147.1154,24.6709692 150.253492,27.1144207 148.461466,29.3787919 C146.297124,32.0928537 144.922419,35.0218119 143.347236,38.0860752 Z" id="Path" fill="#BE6F72" fill-rule="nonzero"></path>
            <path d="M151.322601,28.0107818 C154.034992,30.5389786 154.952657,34.4762022 154.822722,38.159801 C154.692787,41.8433998 153.661429,45.4344055 153.072661,49.0737206 C152.483894,52.7130357 152.36614,56.5979241 153.961903,59.9433564 C154.510066,61.0907069 155.257192,62.1535157 155.638875,63.3652788 C155.958897,64.5629343 156.067424,65.8064706 155.959652,67.0408261 C155.953072,68.3420764 155.702477,69.6307666 155.220647,70.8411728 C154.355768,72.7413462 152.577285,74.0618057 150.87595,75.269543 C147.404252,77.7574818 143.863526,80.2856786 139.786819,81.5860091 C137.025703,82.4676574 134.102168,82.7575143 131.211117,82.9145202 C129.253686,83.0691861 127.285132,83.0138462 125.339684,82.7494628 C121.936576,82.1871694 118.809204,80.5457235 116.426963,78.0714935 C116.011893,77.6726844 115.669796,77.2054669 115.415908,76.6906472 C115.167846,76.0207034 115.048042,75.3107506 115.062647,74.5972359 C114.965196,71.9536331 114.981438,69.3100303 115.111373,66.6664275 C115.185928,64.1470658 115.53582,61.6431483 116.154912,59.1985851 C116.930461,56.3805313 118.274475,53.7396124 119.293652,50.9940229 C122.842498,41.4488723 122.485177,30.587288 127.414582,21.6741866 C128.478424,19.7498585 130.256908,17.7248856 132.449559,18.0308457 C132.871353,18.056006 133.268318,18.236993 133.562126,18.5380954 C133.814079,18.9045082 133.954977,19.3347697 133.968173,19.7780391 C134.491973,24.1097902 135.235038,28.5542636 137.293694,32.4633067 C138.105787,33.9971331 139.323926,36.3320919 141.195801,36.7427226 C143.067675,37.1533533 144.172122,35.3820052 145.175057,34.1259584 C146.93741,31.8226292 149.005256,29.7656698 151.322601,28.0107818 Z" id="Path" fill="#E3E8F4" fill-rule="nonzero"></path>
            <path d="M164.763441,21.5293289 C165.323709,21.8243567 165.84677,22.1819985 166.322036,22.595015 C167.555752,23.7328153 168.008115,25.4755728 167.99989,27.1261845 C167.991665,28.7767961 167.588651,30.4033698 167.341908,32.0379561 C166.679814,36.444929 167.243211,40.9560667 167.506404,45.4191284 C167.586616,46.1397114 167.542133,46.8682995 167.374807,47.5745388 C167.1733,48.2476037 166.757949,48.8405419 166.490644,49.4935751 C165.705178,51.4246305 166.297361,53.628117 165.836774,55.6553245 C165.343287,57.8147413 163.653096,59.7778474 163.96975,61.9693148 C164.097234,62.8266714 164.52081,63.6159201 164.701755,64.465264 C164.8827,65.3146079 164.726429,66.3402307 163.973862,66.7969533 C163.221295,67.253676 162.1274,66.9211498 161.230899,67.1735492 C160.866697,67.304535 160.512192,67.4598145 160.169903,67.6382845 C158.784029,68.247248 157.130849,68.0389184 155.765536,67.3738661 C154.427408,66.6623538 153.224272,65.7327959 152.20832,64.6255176 C150.6415,63.0630454 149.124029,61.3523386 148.43726,59.2730487 C147.433838,56.2602817 148.326226,52.9790901 149.416009,49.9903612 C150.505791,47.0016323 151.805306,43.9808527 151.612024,40.8038258 C151.505102,39.0250113 150.929367,37.3143046 150.583927,35.5675407 C150.156331,33.1473675 150.003253,30.68872 150.127452,28.2359404 C150.180913,26.4411005 150.304284,24.5901719 151.097975,22.9676046 C152.247699,20.7682458 154.46623,19.2891299 156.986915,19.0413923 C159.865587,18.7369106 162.333019,20.1671736 164.763441,21.5293289 Z" id="Path" fill="#3F3D56" fill-rule="nonzero"></path>
            <path d="M157.04862,60.2518223 C157.077777,61.529087 157.31568,62.7939677 157.75359,64 C158.495883,62.3713988 158.582967,60.5432142 158.682492,58.7709129 C159.097181,52.6676501 160.502975,46.9116626 162,41 C160.909369,41.7983339 160.29563,43.7941687 159.773123,44.9916696 C157.699474,49.8206723 156.768791,55.0335022 157.04862,60.2518223 L157.04862,60.2518223 Z" id="Path" fill="#000000" fill-rule="nonzero" opacity="0.1"></path>
            <path d="M130.30768,17.2446977 C128.352199,17.7538875 126.656368,18.9005667 124.761742,19.6503185 C122.794091,20.4521921 120.67633,20.7929884 118.61131,21.2861407 C113.832148,22.4328199 109.032701,24.5617943 106.148164,28.503003 C104.022289,31.4017761 103.141917,34.9821417 101.685449,38.2658141 C100.468345,41.0202499 98.8455398,43.6022828 97.9489398,46.4689809 C96.7764629,50.2097213 96.9103444,54.2190893 97.1983923,58.1242137 C97.4336991,61.3317081 97.7907163,64.5752868 99.2634122,67.4179287 C100.034245,68.9094135 101.097182,70.2445331 101.868015,71.736018 C102.793014,73.5282055 103.279856,75.5048239 104.050688,77.3491331 C104.821521,79.1934424 105.953428,81.0377517 107.74257,82 L110.70419,80.2879999 C115.122278,77.7340325 119.540366,75.1760557 123.820515,72.4015731 C127.552967,69.9959523 131.317876,67.2334977 133.305813,63.2802609 C135.066557,59.7881014 135.241008,55.7065648 134.786623,51.8295059 C134.332237,47.9524471 133.293642,44.159585 132.758116,40.2945543 C132.075909,35.429936 132.178609,30.4891787 133.062392,25.6563518 C133.468093,23.4752556 134.547259,21.2219908 134.770395,19.0489133 C135.017872,16.7274893 131.999454,16.8036673 130.30768,17.2446977 Z" id="Path" fill="#3F3D56" fill-rule="nonzero"></path>
            <path d="M111.951255,81.9912648 C114.174683,84.107718 117.372601,84.7238499 120.15288,85.9921215 C122.21861,86.9569009 124.078648,88.31562 125.629911,89.9929782 C126.485075,90.9371804 127.312397,92.2214554 126.882826,93.4217124 C126.520873,94.4539335 125.411148,94.9820466 124.392905,95.3661288 C123.128057,95.8462316 121.716041,96.2703224 120.455171,95.7862188 C119.715354,95.5021579 119.118727,94.9340363 118.438573,94.5299498 C116.771997,93.5337364 114.671872,93.5297356 112.961543,92.6095385 C110.551172,91.313261 109.349964,88.4606501 107.082784,86.9203203 C105.841801,86.0801404 104.127494,85.391993 104.000214,83.8916717 C103.994368,83.3491306 104.108491,82.8120662 104.334325,82.3193351 C104.791738,81.0950729 105.57133,76.8901725 107.313479,77.0021965 C109.210751,77.126223 110.539239,80.9790481 111.951255,81.9912648 Z" id="Path" fill="#FBBEBE" fill-rule="nonzero"></path>
            <path d="M100.066565,63.1801689 C100.802012,65.7849625 102.510016,68.0057669 104.282322,70.0721837 C105.556293,71.5566786 106.954847,73.171809 106.999055,75.1155077 C107.039243,76.9523227 105.793404,78.6426675 104.18587,79.5808683 C102.578337,80.519069 100.685466,80.8199266 98.8247452,80.9386862 C97.3362162,81.0798537 95.8342243,80.9768506 94.3799142,80.63387 C90.7066995,79.652124 88.1587584,76.4970776 85.2692164,74.0585473 C83.5531741,72.613639 81.6241336,71.3547873 80.3099747,69.5456829 C78.9958158,67.7365785 78.4412166,65.1397021 79.7352813,63.3147631 C80.2022543,62.7232026 80.7422615,62.191282 81.3428151,61.7313019 C83.5375098,59.8568745 85.4091221,57.644305 86.8847879,55.1797311 C87.4795754,54.1861092 88.0502499,53.1093556 89.0509397,52.511599 C90.4856636,51.6525713 92.3262898,52.044478 93.9498989,52.4640952 C95.7141673,52.9193403 100.685466,53.8100372 101.031085,56.0268829 C101.171745,56.9373731 100.026377,58.3545709 99.8535668,59.3323581 C99.6336201,60.6146289 99.7063812,61.9290571 100.066565,63.1801689 L100.066565,63.1801689 Z" id="Path" fill="#FBBEBE" fill-rule="nonzero"></path>
            <path d="M109.338008,68.2444135 C109.866199,69.1959292 110.300963,70.1958016 110.636279,71.2301813 C111.866008,75.4783877 109.668624,79.8548418 108.620331,84.1511412 C107.281741,89.6537708 107.850239,95.4088882 107.785728,101.071827 C107.757505,103.660829 107.479304,106.510333 105.604472,108.305802 C105.120645,108.762684 104.540051,109.147427 104.213468,109.724542 C104.011626,110.147417 103.86138,110.592766 103.765927,111.051105 C103.185982,113.057199 101.715922,114.690085 99.7742614,115.484895 C97.8326006,116.279704 95.6320466,116.149366 93.799079,115.130986 C92.2709903,114.285353 90.9444963,112.818519 89.1946532,112.774434 C88.6444398,112.800839 88.096398,112.86107 87.5536713,112.954782 C85.811892,113.127115 84.1063997,112.485876 82.4734816,111.856661 C82.0837426,111.734318 81.7201314,111.541372 81.4009971,111.287562 C81.1066687,111.019043 80.9171695,110.658346 80.6470325,110.369789 C79.651154,109.303729 77.9496937,109.488085 76.5143385,109.191513 C74.3281655,108.705233 72.620877,107.008173 72.1316669,104.835097 C71.8413704,103.456434 72.0873161,102.029678 72.3292299,100.638991 L73.4097781,94.4430224 C73.8632257,92.1703513 74.1769509,89.8723297 74.34921,87.5617295 C74.4816777,84.9505552 74.256519,82.3335983 73.6799152,79.7827025 C73.2041514,77.6986767 72.4945376,75.6587361 72.2364963,73.5346329 C71.7868621,69.7278589 72.7943611,65.8922546 75.0588238,62.7898768 C75.6192575,62.0243981 76.3530626,61.2589194 77.3045902,61.1867801 C78.0746825,61.1186484 78.796392,61.5274381 79.4656868,61.9201968 C85.2796816,65.3401366 91.1339954,68.6892729 97.0286282,71.9676058 C98.6413868,72.8693477 100.290433,73.7750974 102.088658,74.2199567 C102.628933,74.3562199 103.403057,74.3001116 103.479663,73.7550587 C103.489274,73.5472967 103.434379,73.3416222 103.322419,73.1659206 C102.314445,71.2381967 100.854898,69.5829993 99.6937118,67.7474536 C98.5325256,65.9119078 97.6374446,63.7397116 97.9801558,61.607593 C98.4478558,58.6578949 101.205673,56.7061246 103.459503,59.0185917 C105.987502,61.6436626 107.680899,65.0181813 109.338008,68.2444135 Z" id="Path" fill="#F86D70" fill-rule="nonzero"></path>
            <path d="M90.7017929,105.646711 C95.3956868,105.936061 100.193623,106.2447 104.539376,107.980799 C105.935939,108.53635 107.416537,109.253937 108.885129,108.910576 C109.61609,108.696112 110.296,108.344759 110.885937,107.876633 C112.695212,106.597617 114.404506,105.192091 116,103.671417 C115.839935,102.826516 114.651456,102.710776 113.763097,102.718492 C111.596999,102.730943 109.4602,102.235776 107.536585,101.275602 C106.904288,100.908972 106.233642,100.607667 105.535778,100.376689 C103.635011,99.8712916 101.69823,100.83579 99.7894595,101.306466 C96.9643197,102.000905 93.9871184,101.595816 91.1019544,101.186868 L83.3148125,100.079623 C82.5905203,99.9793154 81.7741909,99.8982975 81.1979584,100.330393 C80.8127663,100.681299 80.548745,101.137865 80.4416533,101.638254 C79.489269,104.72465 79.9454531,104.983136 83.1147318,105.176036 L90.7017929,105.646711 Z" id="Path" fill="#FBBEBE" fill-rule="nonzero"></path>
            <circle id="Oval" fill="#000000" fill-rule="nonzero" opacity="0.1" cx="198" cy="37" r="13"></circle>
            <circle id="Oval" fill="#FBBEBE" fill-rule="nonzero" cx="198" cy="36" r="13"></circle>
            <path d="M208.952572,19.6066693 C209.98101,20.2370567 211.057655,20.9153216 211.620082,21.9766067 C211.922513,22.6971134 212.152616,23.445501 212.307046,24.2108912 C213.010079,26.6047674 214.882157,28.6834499 214.994642,31.1770709 C215.11918,33.9100796 213.05427,36.2840068 210.716182,37.7163428 C210.182537,38.1069757 209.539118,38.3218386 208.876243,38.330771 C208.197313,38.2868833 207.610783,37.8639651 206.988096,37.5926592 C204.348708,36.4276394 201.395967,37.9038631 198.599903,38.582128 C195.694314,39.2790115 192.645621,39.1012328 189.842115,38.0714344 C188.335615,37.5128633 186.873305,36.6750066 185.929232,35.3783237 C184.985158,34.0816407 184.647702,32.2662846 185.451169,30.8738466 C185.852902,30.1636633 186.51978,29.5213066 186.475589,28.7113784 C186.451485,28.2246236 186.162237,27.7857463 186.073856,27.3069711 C185.945301,26.5449205 186.347035,25.8028189 186.756803,25.1524825 C188.616067,22.1810603 190.965531,19.541534 193.70679,17.3444563 C194.510257,16.6901301 195.438261,16.0517631 196.490803,16.0038856 C198.60392,15.9121203 200.419755,17.4761195 202.593133,17.484099 C205.059776,17.4920786 206.83142,18.3059965 208.952572,19.6066693 Z" id="Path" fill="#3F3D56" fill-rule="nonzero"></path>
            <circle id="Oval" fill="#000000" fill-rule="nonzero" opacity="0.1" cx="150.5" cy="20.5" r="13.5"></circle>
            <circle id="Oval" fill="#BE6F72" fill-rule="nonzero" cx="150.5" cy="19.5" r="13.5"></circle>
            <path d="M157.51197,27.1889913 C159.40987,28.2371363 161.7517,28.1287075 163.869528,27.6508176 C165.070641,27.4282486 166.20943,26.9544443 167.209181,26.2613227 C168.215242,25.5524701 168.835366,24.4272549 168.891225,23.2092528 C168.891225,21.8639326 167.995221,20.6511364 167.885257,19.3058161 C167.750856,17.6111142 168.870862,16.0449205 168.988971,14.3421868 C169.107081,12.6394531 168.255877,11.1053864 167.425036,9.64360557 C165.995502,7.13367971 164.508949,4.59162681 162.334102,2.67203552 C160.159255,0.752444223 157.145422,-0.472399594 154.294499,0.174157306 C152.893474,0.491411934 151.594268,1.23434999 150.164734,1.37892172 C148.894037,1.49538228 147.63963,1.11788943 146.373006,0.957254173 C145.106382,0.796618918 143.684993,0.897015952 142.77677,1.76043045 C142.279895,2.24233621 141.962221,2.92102016 141.379818,3.27441772 C140.984889,3.45403714 140.576381,3.60307482 140.157994,3.72018055 C138.687732,4.30248335 138.015729,5.93694707 137.494417,7.40675965 L134,17.2818119 C135.168878,18.0849882 136.578049,18.4504334 137.856892,19.0688791 C139.135734,19.6873249 140.377922,20.6752317 140.638578,22.0566949 C140.838143,23.1048399 140.459377,24.3096043 141.078435,25.1850665 C141.644547,25.9882427 142.797134,26.1247827 143.774593,25.9882427 C144.752053,25.8517028 145.733585,25.5183846 146.711044,25.6669722 C149.154692,26.0324174 150.062915,27.5102618 152.32329,25.6669722 C154.583664,23.8236827 155.410432,26.0243857 157.51197,27.1889913 Z" id="Path" fill="#3F3D56" fill-rule="nonzero"></path>
            <circle id="Oval" fill="#000000" fill-rule="nonzero" opacity="0.1" cx="94" cy="50" r="12"></circle>
            <circle id="Oval" fill="#FBBEBE" fill-rule="nonzero" cx="95" cy="49" r="12"></circle>
            <path d="M103.673085,36.8732618 C100.795421,34.6706891 97.5620811,32.9742212 94.1123109,31.8569171 C91.9044289,31.1414449 89.5031558,30.651065 87.2630419,31.3102642 C84.2251897,32.1744582 80.1599471,33.4647199 78.2784126,36.0010288 C77.3517468,37.247076 76.412994,38.5292987 75.9657771,40.0205358 C75.0713431,43.019088 76.3445014,46.214596 76.2598927,49.3417725 C76.1591682,52.9874653 74.221228,56.3156171 72.1060125,59.2900522 C69.9907971,62.2644874 69.563725,66.5251648 68.3147407,69.9578238 C67.8876686,71.1355393 67.7506832,72.7714787 68.8505953,73.3623462 C69.8175509,73.8969406 70.9859556,73.2297025 71.8803896,72.5865813 L77.2590802,68.7077571 C77.6771535,68.3649023 78.159165,68.1080697 78.6772818,67.9520898 C79.7852518,67.6948413 80.8690479,68.3861965 81.7957137,69.0413762 L93.0768626,77 C93.528316,76.0805866 93.5475018,75.0087064 93.1292394,74.0737989 C94.1888616,74.399379 94.9583971,75.279651 95.8890919,75.9066941 C96.8197867,76.5337372 98.2339593,76.738732 98.9108282,75.8624795 C99.5876972,74.986227 99.0760165,73.8085115 98.3225969,73.1010782 C97.5691773,72.393645 96.5780478,71.9715968 95.8407441,71.244066 C94.3782237,69.793024 94.2291514,67.501905 93.3065146,65.6690098 C92.6457616,64.3827676 91.5780814,63.3055397 91.1107195,61.9348878 C90.349242,59.6960224 91.3444005,57.2843183 92.3194141,55.1298625 C93.4837898,52.5734561 94.8012668,49.8442108 97.2790906,48.5097345 C98.1130898,48.0595497 99.0357267,47.7942623 99.8898708,47.3842726 C102.017173,46.3673373 104.672272,43.9676916 105.711749,41.8172554 C106.622299,39.9079896 105.220214,38.0630359 103.673085,36.8732618 Z" id="Path" fill="#3F3D56" fill-rule="nonzero"></path>
            <path d="M85.3564647,77.3883468 C86.4889411,78.1135251 87.7674163,78.5771636 88.8801632,79.3340436 C89.9929101,80.0909237 90.9675501,81.2401132 90.9991174,82.5874389 C91.0306847,83.8753238 90.2099352,85.0046998 89.420753,86.0270822 L79.8085137,98.6959065 L84.7093352,99.9996423 C83.920153,101.093354 83.7189116,102.488232 83.3085368,103.772154 C82.8981621,105.056076 82.1247635,106.391514 80.8147211,106.728345 C79.6309477,107.033475 78.3919317,106.407365 77.1686993,106.478694 C76.2650856,106.534172 75.4127688,106.962146 74.5091552,106.99781 C73.3451115,107.0414 72.2639318,106.427178 71.2932377,105.777292 C69.1308785,104.322973 66.9843029,102.238581 67.0000865,99.6231836 C67.0513083,98.7386289 67.2280269,97.8659497 67.5248927,97.031563 C68.9414747,92.3912148 70.4093536,87.6399103 73.3451115,83.7802185 C74.9234759,81.7196027 76.8530264,79.9799674 78.7825769,78.2522204 C79.2212997,77.8086243 79.7376175,77.4499605 80.3056985,77.1941734 C81.5683901,76.7186467 82.945513,77.3051296 84.2516096,77.685551 C85.5577061,78.0659724 87.203151,78.1214505 87.95682,77" id="Path" fill="#000000" fill-rule="nonzero" opacity="0.1"></path>
            <path d="M85.3523581,76.4159211 C86.4848216,77.1368509 87.7632822,77.6042669 88.8760165,78.3608472 C89.9887507,79.1174274 90.9633796,80.2661617 90.9988924,81.6089926 C91.0344052,82.9518234 90.2097192,84.029257 89.420546,85.0512345 L79.8044704,97.703157 L84.705236,99.0063764 C83.9160628,100.099655 83.7148236,101.490019 83.3044536,102.777394 C82.8940835,104.064769 82.1206937,105.395716 80.8106662,105.732414 C79.6269064,106.037423 78.3879044,105.411561 77.164686,105.482861 C76.2610826,105.534356 75.4087756,105.966122 74.5051722,105.997811 C73.3411417,106.041384 72.2599744,105.427405 71.2892914,104.777776 C69.1269568,103.327994 66.9804056,101.240467 67.000135,98.6300668 C67.0474031,97.7457117 67.2228668,96.8730006 67.5209893,96.0394728 C68.9375552,91.3970015 70.4054174,86.6475791 73.3411417,82.7933773 C74.9194882,80.7296166 76.8529625,78.9906705 78.7785452,77.2477632 C79.2193443,76.8068453 79.7351734,76.448659 80.3016495,76.1901353 C81.5643266,75.714797 82.9414339,76.3010476 84.2475156,76.6852795 C85.5535972,77.0695113 87.1990234,77.1210063 87.9526838,76" id="Path" fill="#F86D70" fill-rule="nonzero"></path>
            <g id="Group" opacity="0.1" transform="translate(184.000000, 25.000000)" fill="#000000" fill-rule="nonzero">
                <path d="M1.76210526,7.564 C2.72065789,8.864 4.20947368,9.708 5.735,10.264 C8.58062847,11.3005206 11.6773343,11.4788263 14.6271053,10.776 C17.4823684,10.096 20.4640789,8.616 23.1439474,9.784 C23.7761842,10.06 24.3676316,10.48 25.0569737,10.528 C25.731398,10.5160624 26.3854772,10.299461 26.9292105,9.908 C28.5811842,8.908 30.0985526,7.452 30.8246053,5.736 C30.8246053,5.824 30.8246053,5.912 30.8490789,6.004 C30.9755263,8.744 28.8789474,11.124 26.505,12.56 C25.9631707,12.9516322 25.309884,13.1670448 24.6368421,13.176 C23.9475,13.132 23.3519737,12.708 22.7197368,12.436 C20.0398684,11.268 17.0418421,12.748 14.2028947,13.428 C11.2527431,14.1266662 8.15729249,13.9484328 5.31078947,12.916 C3.78118421,12.356 2.29644737,11.516 1.33789474,10.216 C0.379342105,8.916 0.0367105263,7.096 0.8525,5.7 L0.913684211,5.6 C1.04573976,6.30789369 1.33543174,6.97849829 1.76210526,7.564 L1.76210526,7.564 Z" id="Path"></path>
                <path d="M2.30460526,0.88 C2.33723684,1.496 1.95789474,2.012 1.59486842,2.536 C1.54428674,2.40608415 1.50472269,2.27229691 1.47657895,2.136 C1.35421053,1.42 1.705,0.724 2.0925,0.096 C2.20365597,0.345163495 2.27518918,0.609570143 2.30460526,0.88 L2.30460526,0.88 Z" id="Path"></path>
            </g>
            <path d="M138.382187,5.76118352 L134.945335,15.7819916 C136.094958,16.5973544 137.480914,16.9724212 138.73869,17.5961737 C139.996466,18.2199262 141.21819,19.2268992 141.474552,20.6293231 C141.670829,21.6933715 141.298303,22.9164156 141.907163,23.8092378 C142.463949,24.6246006 143.597549,24.7591354 144.558907,24.6246006 C145.520264,24.4900657 146.485627,24.1476134 147.446984,24.2984555 C149.850377,24.6694455 150.743638,26.169713 152.966777,24.3188395 C155.189915,22.4679661 155.995052,24.6653687 158.06197,25.8476447 C159.928605,26.9157699 162.231857,26.8056959 164.314797,26.3164783 C165.495804,26.0917642 166.615812,25.6121706 167.599434,24.9099775 C167.739295,24.7935943 167.873004,24.6697577 168,24.5389875 C167.693312,25.2071363 167.231371,25.7892237 166.6541,26.234942 C165.670818,26.9385802 164.550789,27.4195735 163.369463,27.6455195 C161.286522,28.1306604 158.963242,28.2407343 157.116635,27.1766859 C155.049717,25.99441 154.200518,23.8377755 152.021442,25.6478808 C149.842366,27.4579861 148.897031,25.9984868 146.501649,25.6478808 C145.540292,25.4970387 144.578935,25.8354142 143.613572,25.9740259 C142.648209,26.1126376 141.518615,25.9740259 140.961828,25.1586632 C140.352969,24.2699178 140.725495,23.0468737 140.529218,21.9828253 C140.272856,20.5804014 139.051131,19.5734284 137.793355,18.9496759 C136.53558,18.3259234 135.149623,17.9467797 134,17.1354938 L137.452875,7.08614798 C137.85344,5.98133146 138.294062,4.78682505 139.095193,4 C138.817623,4.5694948 138.579377,5.15798097 138.382187,5.76118352 Z" id="Path" fill="#000000" fill-rule="nonzero" opacity="0.1"></path>
            <g id="Group" opacity="0.1" transform="translate(68.000000, 35.000000)" fill="#000000" fill-rule="nonzero">
                <path d="M26.124,39.264 C27.008,39.664 28.124,39.724 28.684,38.976 C29.312,38.176 28.848,36.936 28.1,36.228 C27.352,35.52 26.368,35.104 25.636,34.38 C24.184,32.94 24.036,30.66 23.12,28.836 C22.464,27.552 21.404,26.48 20.94,25.116 C20.184,22.892 21.172,20.488 22.14,18.348 C23.296,15.804 24.604,13.088 27.064,11.76 C27.892,11.312 28.808,11.048 29.656,10.64 C31.768,9.628 34.404,7.236 35.436,5.096 C36.304,3.292 35.08,1.54 33.624,0.352 C34.332,0.812 35.024,1.296 35.696,1.812 C37.236,3.012 38.624,4.832 37.696,6.724 C36.664,8.864 34.028,11.252 31.916,12.264 C31.068,12.664 30.152,12.936 29.324,13.384 C26.864,14.712 25.556,17.428 24.4,19.972 C23.428,22.116 22.44,24.516 23.2,26.744 C23.664,28.108 24.724,29.18 25.38,30.46 C26.308,32.284 26.444,34.564 27.896,36.008 C28.628,36.732 29.612,37.148 30.36,37.856 C31.108,38.564 31.56,39.788 30.944,40.604 C30.328,41.42 28.864,41.252 27.944,40.648 C27.324,40.228 26.76,39.676 26.124,39.264 Z" id="Path"></path>
                <path d="M1.864,35.716 L7.204,31.86 C7.61890799,31.517647 8.09741923,31.2607191 8.612,31.104 C9.712,30.852 10.788,31.54 11.708,32.192 L22.908,40.112 C23.356346,39.195672 23.3753902,38.1277307 22.96,37.196 C23.988,37.516 24.736,38.372 25.628,38.972 C25.4983571,38.9132142 25.3646842,38.8637553 25.228,38.824 C25.6432537,39.7543703 25.6242059,40.8210486 25.176,41.736 L13.976,33.816 C13.056,33.164 11.976,32.476 10.88,32.732 C10.3656102,32.8872229 9.88706593,33.1428091 9.472,33.484 L4.132,37.344 C3.244,37.984 2.084,38.648 1.124,38.116 C0.589562747,37.7875923 0.270891896,37.1990423 0.288,36.572 C0.854564335,36.3701645 1.3862615,36.0813747 1.864,35.716 L1.864,35.716 Z" id="Path"></path>
            </g>
            <path d="M204,97.4991537 C204,97.4991537 180.646288,99.2778889 176,96.131194 L197.364774,93 L204,97.4991537 Z" id="Path" fill="#E3E8F4" fill-rule="nonzero"></path>
            <path d="M204,97.4991537 C204,97.4991537 180.646288,99.2778889 176,96.131194 L197.364774,93 L204,97.4991537 Z" id="Path" fill="#000000" fill-rule="nonzero" opacity="0.1"></path>
            <path d="M204,97 L197.542505,93.0941855 C197.542505,93.0941855 178.27865,98.38395 173,96.2003844 L178.371188,89 L197.458014,92.5559827 L204,97 Z" id="Path" fill="#E3E8F4" fill-rule="nonzero"></path>
            <path d="M174.954787,43.7659286 C174.261277,44.6551983 173.705002,45.6463275 173.305034,46.7053386 C173.124776,47.2661732 173.034647,47.8508732 172.88182,48.419663 C172.45182,49.8361031 171.789411,51.1687318 170.922493,52.3614158 C168.990597,55.2133197 166.576707,57.9657848 166.090794,61.390456 C165.855675,63.0809151 166.114306,64.799217 166.443473,66.4737659 C166.621658,67.5779966 166.932231,68.655961 167.368275,69.6836494 C167.865944,70.7734983 168.606569,71.732088 169.174774,72.786139 C169.693797,73.8207481 170.131437,74.895382 170.483604,76 C171.153694,75.3198388 171.549478,74.4089797 172.086333,73.6134695 C172.623189,72.8179594 173.422594,72.1020002 174.366989,72.0900676 C175.456375,72.0900676 176.353746,73.0049043 177.431376,73.1480961 C177.599562,73.1825108 177.774009,73.1659107 177.932963,73.1003655 C178.324829,72.9134206 178.356178,72.3764512 178.324829,71.9468758 C178.015255,68.9438249 176.322397,65.9805496 177.121802,63.0689824 C177.858509,60.3761806 180.491844,58.6936766 181.875128,56.2793033 C182.878303,54.5252034 183.176121,52.456877 183.442589,50.4442363 C183.775675,48.0378181 184.112679,45.6115121 183.96377,43.1891837 C183.889316,41.9680756 182.933164,34.2516271 181.185445,35.0590699 C180.578054,35.3374985 180.049036,36.5188311 179.668927,37.0478453 L178.101465,39.3031166 L174.954787,43.7659286 Z" id="Path" fill="#3F3D56" fill-rule="nonzero"></path>
            <polygon id="Path" fill="#E3E8F4" fill-rule="nonzero" points="127 93.2663934 113.880098 104 97 100.967213 108.366232 92"></polygon>
            <polygon id="Path" fill="#000000" fill-rule="nonzero" opacity="0.1" points="128 93.2663934 114.880098 104 98 100.967213 109.366232 92"></polygon>
            <polygon id="Path" fill="#E3E8F4" fill-rule="nonzero" points="128 92.2704918 114.881881 103 98 99.9713115 109.368764 91"></polygon>
            <polygon id="Path" fill="#000000" fill-rule="nonzero" opacity="0.1" points="128 91.2663934 114.877803 102 98 98.9672131 109.368764 90"></polygon>
            <polygon id="Path" fill="#E3E8F4" fill-rule="nonzero" points="128 90.2663934 114.880098 101 98 97.9672131 109.366232 89"></polygon>
            <path d="M298.020962,234.209475 L298.020962,234.209475 C298.685671,233.908769 299.467258,233.933052 300.108899,234.274345 C300.750541,234.615637 301.169271,235.229809 301.227497,235.915048 L302,245.229482 L297.416769,246 L295,239.265997 L298.020962,234.209475 Z" id="Path" fill="#3F3D56" fill-rule="nonzero"></path>
            <path d="M148.863975,171.489037 L83.4822311,204.590641 C81.9531337,205.368854 80.9932343,206.939412 81.0000359,208.651931 C81.0068375,210.364451 81.9791821,211.927371 83.514413,212.69347 L224.33075,283.19491 C229.418253,285.736678 235.439995,285.586225 240.393588,282.793581 L299.705003,249.4271 C301.17144,248.592361 302.053966,247.016124 301.997438,245.332692 C301.94091,243.64926 300.954625,242.135481 299.435479,241.400523 L152.882701,171.444891 C151.60886,170.836557 150.12408,170.852868 148.863975,171.489037 Z" id="Path" fill="#3F3D56" fill-rule="nonzero"></path>
            <path d="M83.2096783,199 L81.1617336,200.515352 L81.000795,207.771405 C80.9743023,208.925675 81.6117869,209.993635 82.6423694,210.521488 L225.88986,283.763518 C226.550918,284.103328 227.341919,284.07536 227.977139,283.689715 C228.612359,283.304071 228.999985,282.61649 229,281.875341 L229,271.336025 L83.2096783,199 Z" id="Path" fill="#3F3D56" fill-rule="nonzero"></path>
            <path d="M148.868122,163.491117 L83.4881494,196.589737 C81.9579573,197.365714 80.9957632,198.934884 81.000014,200.64745 C81.0042649,202.360015 81.9742371,203.924412 83.5082626,204.692818 L224.332854,275.196449 C229.420698,277.736151 235.441211,277.58572 240.395257,274.795108 L299.705065,241.423576 C301.171463,240.588811 302.053965,239.012525 301.997438,237.329041 C301.940912,235.645556 300.954653,234.13173 299.435548,233.39675 L152.88674,163.442956 C151.612311,162.835861 150.127567,162.853655 148.868122,163.491117 L148.868122,163.491117 Z" id="Path" fill="#E3E8F4" fill-rule="nonzero"></path>
            <polygon id="Path" fill="#3F3D56" fill-rule="nonzero" points="162 170 90 206.397255 213.748492 268 288 230.477964"></polygon>
            <ellipse id="Oval" fill="#3F3D56" fill-rule="nonzero" cx="259.5" cy="252.5" rx="7.5" ry="4.5"></ellipse>
            <circle id="Oval" fill="#3F3D56" fill-rule="nonzero" cx="120.5" cy="181.5" r="1"></circle>
            <circle id="Oval" fill="#3F3D56" fill-rule="nonzero" cx="119" cy="187" r="1"></circle>
            <path d="M122,185 L130,181" id="Path" stroke="#3F3D56"></path>
            <path d="M174.35539,209.378876 L201.87173,209.392294 C205.86744,209.394243 209.106116,212.632918 209.108066,216.628628 L209.108066,216.628628 C209.110013,220.619302 205.876511,223.855961 201.885837,223.857908 C201.883487,223.857909 201.881138,223.857909 201.878788,223.857908 L174.362448,223.84449 C170.366738,223.842541 167.128062,220.603866 167.126112,216.608156 L167.126112,216.608156 C167.124165,212.617482 170.357667,209.380824 174.348341,209.378876 C174.35069,209.378875 174.35304,209.378875 174.35539,209.378876 Z" id="Rectangle" fill="#3D7BA4" fill-rule="nonzero" transform="translate(188.117089, 216.618392) rotate(-30.000000) translate(-188.117089, -216.618392) "></path>
            <path d="M195.669721,220.226109 L223.186062,220.239527 C227.181771,220.241476 230.420448,223.480151 230.422397,227.475861 L230.422397,227.475861 C230.424344,231.466535 227.190843,234.703193 223.200169,234.70514 C223.197819,234.705142 223.195469,234.705142 223.19312,234.70514 L195.676779,234.691723 C191.68107,234.689774 188.442393,231.451099 188.440444,227.455389 L188.440444,227.455389 C188.438497,223.464715 191.671999,220.228056 195.662672,220.226109 C195.665022,220.226108 195.667372,220.226108 195.669721,220.226109 Z" id="Rectangle" fill="#3D7BA4" fill-rule="nonzero" transform="translate(209.431421, 227.465625) rotate(-30.000000) translate(-209.431421, -227.465625) "></path>
            <path d="M155.05192,196.927176 L182.56826,196.940593 C186.56397,196.942542 189.802646,200.181217 189.804596,204.176927 L189.804596,204.176927 C189.806543,208.167601 186.573041,211.40426 182.582367,211.406207 C182.580017,211.406208 182.577668,211.406208 182.575318,211.406207 L155.058978,211.392789 C151.063268,211.39084 147.824592,208.152165 147.822642,204.156455 L147.822642,204.156455 C147.820695,200.165781 151.054197,196.929123 155.044871,196.927176 C155.047221,196.927174 155.04957,196.927174 155.05192,196.927176 Z" id="Rectangle" fill="#3D7BA4" fill-rule="nonzero" transform="translate(168.813619, 204.166691) rotate(-30.000000) translate(-168.813619, -204.166691) "></path>
        </g>
    </g>
</svg>