<?xml version="1.0" encoding="utf-8"?>
<!-- Generator: Adobe Illustrator 16.0.0, SVG Export Plug-In . SVG Version: 6.00 Build 0)  -->
<!DOCTYPE svg PUBLIC "-//W3C//DTD SVG 1.1//EN" "http://www.w3.org/Graphics/SVG/1.1/DTD/svg11.dtd">
<svg version="1.1" id="Layer_1" xmlns="http://www.w3.org/2000/svg" xmlns:xlink="http://www.w3.org/1999/xlink" x="0px" y="0px"
	 width="410px" height="245px" viewBox="0 0 410 245" style="enable-background:new 0 0 410 245;" xml:space="preserve">
<style type="text/css">
<![CDATA[
	.st0{fill:#7D92A1;}
]]>
</style>
<path class="st0" d="M270,27c0,1.7-1.3,3-3,3H143c-1.7,0-3-1.3-3-3V3c0-1.7,1.3-3,3-3h124c1.7,0,3,1.3,3,3V27z"/>
<path class="st0" d="M270,102c0,1.7-1.3,3-3,3h-24c-1.7,0-3-1.3-3-3V38c0-1.7,1.3-3,3-3h24c1.7,0,3,1.3,3,3V102z"/>
<path class="st0" d="M235,102c0,1.7-1.3,3-3,3h-89c-1.7,0-3-1.3-3-3V38c0-1.7,1.3-3,3-3h89c1.7,0,3,1.3,3,3V102z"/>
<path class="st0" d="M410,27c0,1.7-1.3,3-3,3H283c-1.7,0-3-1.3-3-3V3c0-1.7,1.3-3,3-3h124c1.7,0,3,1.3,3,3V27z"/>
<path class="st0" d="M310,102c0,1.7-1.3,3-3,3h-24c-1.7,0-3-1.3-3-3V38c0-1.7,1.3-3,3-3h24c1.7,0,3,1.3,3,3V102z"/>
<path class="st0" d="M410,102c0,1.7-1.3,3-3,3h-89c-1.7,0-3-1.3-3-3V38c0-1.7,1.3-3,3-3h89c1.7,0,3,1.3,3,3V102z"/>
<path class="st0" d="M130,242c0,1.7-1.3,3-3,3H3c-1.7,0-3-1.3-3-3v-99c0-1.7,1.3-3,3-3h124c1.7,0,3,1.3,3,3V242z"/>
<path class="st0" d="M130,27c0,1.7-1.3,3-3,3H3c-1.7,0-3-1.3-3-3V3c0-1.7,1.3-3,3-3h124c1.7,0,3,1.3,3,3V27z"/>
<path class="st0" d="M130,102c0,1.7-1.3,3-3,3H3c-1.7,0-3-1.3-3-3V38c0-1.7,1.3-3,3-3h124c1.7,0,3,1.3,3,3V102z"/>
<path class="st0" d="M170,242c0,1.7-1.3,3-3,3h-24c-1.7,0-3-1.3-3-3v-99c0-1.7,1.3-3,3-3h24c1.7,0,3,1.3,3,3V242z"/>
<path class="st0" d="M270,242c0,1.7-1.3,3-3,3h-89c-1.7,0-3-1.3-3-3v-99c0-1.7,1.3-3,3-3h89c1.7,0,3,1.3,3,3V242z"/>
<path class="st0" d="M410,242c0,1.7-1.3,3-3,3h-24c-1.7,0-3-1.3-3-3v-99c0-1.7,1.3-3,3-3h24c1.7,0,3,1.3,3,3V242z"/>
<path class="st0" d="M375,242c0,1.7-1.3,3-3,3h-89c-1.7,0-3-1.3-3-3v-99c0-1.7,1.3-3,3-3h89c1.7,0,3,1.3,3,3V242z"/>
</svg>
